<svg xmlns="http://www.w3.org/2000/svg" width="133.958" height="93.074" viewBox="0 0 133.958 93.074">
  <g id="bathroom_icon" data-name="bathroom icon" transform="translate(-53.504 -564.497)">
    <g id="Group_293" data-name="Group 293" transform="translate(53.504 570.481)">
      <g id="Group_292" data-name="Group 292" transform="translate(0 0)">
        <g id="Group_291" data-name="Group 291">
          <g id="Group_285" data-name="Group 285" transform="translate(4.627 25.909)">
            <path id="Path_3111" data-name="Path 3111" d="M183.382,655.16a3.184,3.184,0,1,1,3.184,3.184A3.185,3.185,0,0,1,183.382,655.16Z" transform="translate(-118.695 -637.184)" fill="#bec5ff" opacity="0.3"/>
            <path id="Path_3112" data-name="Path 3112" d="M173.5,669.4a3.184,3.184,0,1,1,3.183,3.184A3.183,3.183,0,0,1,173.5,669.4Z" transform="translate(-114.085 -643.824)" fill="#bec5ff" opacity="0.3"/>
            <path id="Path_3113" data-name="Path 3113" d="M181.208,669.4a3.184,3.184,0,1,1,3.184,3.184A3.183,3.183,0,0,1,181.208,669.4Z" transform="translate(-117.682 -643.824)" fill="#bec5ff" opacity="0.3"/>
            <path id="Path_3114" data-name="Path 3114" d="M189.348,667.091a3.184,3.184,0,1,1,3.183,3.184A3.184,3.184,0,0,1,189.348,667.091Z" transform="translate(-121.478 -642.748)" fill="#bec5ff" opacity="0.3"/>
            <path id="Path_3115" data-name="Path 3115" d="M195.313,670.85a3.183,3.183,0,1,1,3.184,3.184A3.185,3.185,0,0,1,195.313,670.85Z" transform="translate(-124.259 -644.501)" fill="#bec5ff" opacity="0.3"/>
            <path id="Path_3116" data-name="Path 3116" d="M164.894,663.434a3.183,3.183,0,1,1,3.183,3.183A3.183,3.183,0,0,1,164.894,663.434Z" transform="translate(-110.074 -641.043)" fill="#bec5ff" opacity="0.3"/>
            <path id="Path_3117" data-name="Path 3117" d="M160.741,669.4a3.183,3.183,0,1,1,3.183,3.184A3.183,3.183,0,0,1,160.741,669.4Z" transform="translate(-108.138 -643.824)" fill="#bec5ff" opacity="0.3"/>
            <path id="Path_3118" data-name="Path 3118" d="M152.962,664.885a3.184,3.184,0,1,1,3.184,3.183A3.184,3.184,0,0,1,152.962,664.885Z" transform="translate(-104.51 -641.719)" fill="#bec5ff" opacity="0.3"/>
            <path id="Path_3119" data-name="Path 3119" d="M150.654,669.4a3.184,3.184,0,1,1,3.184,3.184A3.183,3.183,0,0,1,150.654,669.4Z" transform="translate(-103.434 -643.824)" fill="#bec5ff" opacity="0.3"/>
            <path id="Path_3120" data-name="Path 3120" d="M143.238,667.091a3.184,3.184,0,1,1,3.184,3.184A3.183,3.183,0,0,1,143.238,667.091Z" transform="translate(-99.976 -642.748)" fill="#bec5ff" opacity="0.3"/>
            <path id="Path_3121" data-name="Path 3121" d="M142,669.4a3.184,3.184,0,1,1,3.184,3.184A3.183,3.183,0,0,1,142,669.4Z" transform="translate(-99.396 -643.824)" fill="#bec5ff" opacity="0.3"/>
            <path id="Path_3122" data-name="Path 3122" d="M136.031,661.126a3.184,3.184,0,1,1,3.183,3.183A3.183,3.183,0,0,1,136.031,661.126Z" transform="translate(-96.615 -639.966)" fill="#bec5ff" opacity="0.3"/>
            <path id="Path_3123" data-name="Path 3123" d="M132.471,663.434a3.183,3.183,0,1,1,3.183,3.183A3.183,3.183,0,0,1,132.471,663.434Z" transform="translate(-94.955 -641.043)" fill="#bec5ff" opacity="0.3"/>
            <path id="Path_3124" data-name="Path 3124" d="M124.1,661.126a3.184,3.184,0,1,1,3.184,3.183A3.184,3.184,0,0,1,124.1,661.126Z" transform="translate(-91.051 -639.966)" fill="#bec5ff" opacity="0.3"/>
            <path id="Path_3125" data-name="Path 3125" d="M118.134,664.885a3.184,3.184,0,1,1,3.183,3.183A3.183,3.183,0,0,1,118.134,664.885Z" transform="translate(-88.269 -641.719)" fill="#bec5ff" opacity="0.3"/>
            <path id="Path_3126" data-name="Path 3126" d="M130.066,652.954a3.183,3.183,0,1,1,3.183,3.183A3.183,3.183,0,0,1,130.066,652.954Z" transform="translate(-93.833 -636.156)" fill="#bec5ff" opacity="0.3"/>
            <path id="Path_3127" data-name="Path 3127" d="M112.169,658.919a3.183,3.183,0,1,1,3.183,3.184A3.183,3.183,0,0,1,112.169,658.919Z" transform="translate(-85.488 -638.937)" fill="#bec5ff" opacity="0.3"/>
            <path id="Path_3128" data-name="Path 3128" d="M100.127,661.126a3.183,3.183,0,1,1,3.183,3.183A3.183,3.183,0,0,1,100.127,661.126Z" transform="translate(-79.872 -639.966)" fill="#bec5ff" opacity="0.1"/>
            <path id="Path_3129" data-name="Path 3129" d="M102.5,655.16a3.184,3.184,0,1,1,3.183,3.184A3.183,3.183,0,0,1,102.5,655.16Z" transform="translate(-80.979 -637.184)" fill="#bec5ff" opacity="0.3"/>
            <path id="Path_3130" data-name="Path 3130" d="M90.569,657.469a3.184,3.184,0,1,1,3.183,3.183A3.183,3.183,0,0,1,90.569,657.469Z" transform="translate(-75.415 -638.261)" fill="#bec5ff" opacity="0.3"/>
            <path id="Path_3131" data-name="Path 3131" d="M83.069,644.923a3.184,3.184,0,1,1,3.183,3.184A3.183,3.183,0,0,1,83.069,644.923Z" transform="translate(-71.918 -632.411)" fill="#bec5ff" opacity="0.3"/>
            <path id="Path_3132" data-name="Path 3132" d="M74.1,651.5a3.184,3.184,0,1,1,3.183,3.184A3.183,3.183,0,0,1,74.1,651.5Z" transform="translate(-67.738 -635.479)" fill="#bec5ff" opacity="0.3"/>
            <path id="Path_3133" data-name="Path 3133" d="M66.36,655.16a3.183,3.183,0,1,1,3.183,3.184A3.184,3.184,0,0,1,66.36,655.16Z" transform="translate(-64.126 -637.184)" fill="#bec5ff" opacity="0.3"/>
            <path id="Path_3134" data-name="Path 3134" d="M62.174,653.58a3.184,3.184,0,1,1,3.183,3.183A3.182,3.182,0,0,1,62.174,653.58Z" transform="translate(-62.174 -636.448)" fill="#bec5ff" opacity="0.3"/>
            <path id="Path_3135" data-name="Path 3135" d="M72.325,642.9a3.184,3.184,0,1,1,3.183,3.184A3.183,3.183,0,0,1,72.325,642.9Z" transform="translate(-66.908 -631.467)" fill="#bec5ff" opacity="0.3"/>
            <path id="Path_3136" data-name="Path 3136" d="M110.787,627.442a3.184,3.184,0,1,1,3.184,3.183A3.183,3.183,0,0,1,110.787,627.442Z" transform="translate(-84.843 -624.259)" fill="#bec5ff" opacity="0.3"/>
            <path id="Path_3137" data-name="Path 3137" d="M142,639.9a3.184,3.184,0,1,1,3.184,3.183A3.183,3.183,0,0,1,142,639.9Z" transform="translate(-99.396 -630.069)" fill="#bec5ff" opacity="0.3"/>
          </g>
          <g id="Group_286" data-name="Group 286" transform="translate(0 45.117)">
            <path id="Path_3138" data-name="Path 3138" d="M106.436,722.038c0,.7-.777,1.266-1.733,1.266h-2.022c-.957,0-1.734-.568-1.734-1.266v-2.955c0-.7.777-1.266,1.734-1.266H104.7c.956,0,1.733.566,1.733,1.266Z" transform="translate(-75.627 -687.095)" fill="#949fff"/>
            <path id="Path_3139" data-name="Path 3139" d="M194.837,722.038c0,.7-.777,1.266-1.732,1.266h-2.023c-.957,0-1.734-.568-1.734-1.266v-2.955c0-.7.777-1.266,1.734-1.266h2.023c.955,0,1.732.566,1.732,1.266Z" transform="translate(-116.85 -687.095)" fill="#949fff"/>
            <path id="Path_3140" data-name="Path 3140" d="M57.716,660.576s25.014-1.9,40.212,3.483,45.6,2.85,50.026,2.217c0,0,0,19-16.781,25.647H78.613A38.907,38.907,0,0,1,58.032,668.9s-3.068-1.229-4.037-3.721C52.617,661.635,54.228,660.763,57.716,660.576Z" transform="translate(-53.504 -660.25)" fill="#283fff"/>
          </g>
          <g id="Group_290" data-name="Group 290" transform="translate(6.465)">
            <g id="Group_287" data-name="Group 287">
              <path id="Path_3141" data-name="Path 3141" d="M66.884,620.828H65.618V586.016c0-3.509.314-5.584,2.1-7.882a7.058,7.058,0,0,1,7.715-2.03c3.261,1.119,5.133,4.271,5.133,8.646H79.3c0-3.8-1.559-6.515-4.277-7.447a5.765,5.765,0,0,0-6.3,1.608c-1.571,2.019-1.836,3.824-1.836,7.105Z" transform="translate(-65.618 -575.71)" fill="#1f1f1f"/>
            </g>
            <g id="Group_289" data-name="Group 289" transform="translate(8.257 9.039)">
              <path id="Path_3142" data-name="Path 3142" d="M92.646,593.332a.687.687,0,0,1-.686.686H90.165a.686.686,0,0,1-.686-.686h0a.685.685,0,0,1,.686-.685H91.96a.686.686,0,0,1,.686.685Z" transform="translate(-85.002 -592.647)" fill="#1f1f1f"/>
              <g id="Group_288" data-name="Group 288" transform="translate(0 1.372)">
                <path id="Path_3143" data-name="Path 3143" d="M81.09,601.276a6.059,6.059,0,0,1,12.119,0" transform="translate(-81.09 -595.217)" fill="#1f1f1f"/>
                <rect id="Rectangle_714" data-name="Rectangle 714" width="12.119" height="1.118" transform="translate(0 6.059)" fill="#1f1f1f"/>
              </g>
            </g>
          </g>
        </g>
      </g>
    </g>
    <g id="Group_329" data-name="Group 329" transform="translate(152.805 604.047)">
      <g id="Group_327" data-name="Group 327" transform="translate(0 0)">
        <rect id="Rectangle_715" data-name="Rectangle 715" width="12.878" height="23.333" transform="translate(21.779 1.384)" fill="#283fff"/>
        <path id="Path_3208" data-name="Path 3208" d="M533.464,669.771v3.685a8.026,8.026,0,0,1-8,8H506.834a8.025,8.025,0,0,1-8-8V669.1" transform="translate(-498.832 -645.063)" fill="#283fff"/>
        <rect id="Rectangle_716" data-name="Rectangle 716" width="21.779" height="1.816" transform="translate(0 23.387)" fill="#949fff"/>
        <rect id="Rectangle_717" data-name="Rectangle 717" width="12.759" height="1.816" transform="translate(21.839)" fill="#949fff"/>
        <rect id="Rectangle_718" data-name="Rectangle 718" width="21.104" height="14.173" transform="translate(7.114 36.143)" fill="#283fff"/>
      </g>
    </g>
    <g id="Group_331" data-name="Group 331" transform="translate(121.237 564.497)">
      <path id="Path_2350" data-name="Path 2350" d="M421.339,657.54,424,659.247l.924,1.353a10.008,10.008,0,0,1-1.479.605,44.612,44.612,0,0,1-4.752-.317l-.114-2.471Z" transform="translate(-393.56 -569.785)" fill="#273140"/>
      <path id="Path_2351" data-name="Path 2351" d="M347.975,664.7l1.315,1.475s1.071,2,.534,1.97-3.453.126-3.65-.209a25.822,25.822,0,0,0-1.947-1.726,7.136,7.136,0,0,1,0-2.105Z" transform="translate(-333.504 -575.077)" fill="#273140"/>
      <path id="Path_2352" data-name="Path 2352" d="M347.606,442.293,344.3,462.4l-4.217,19.14-3.758-.215.725-20.209s-2.707-18.573-2.718-24.066Z" transform="translate(-325.595 -391.923)" fill="#ffaf20"/>
      <path id="Path_2353" data-name="Path 2353" d="M548.33,376.879l-1.512,37.1-3.869.18-2.055-18.852L537.9,378.673l7.992-10.293Z" transform="translate(-518.037 -325.519)" fill="#ffaf20"/>
      <path id="Path_2355" data-name="Path 2355" d="M347.4,293.323c-2.028-9.86.545-14.624-3.892-17.365,0,0-7.231-1.987-11.836,1.318l-.193.139-1.674,3.48-1.27,15.608s-3.551,20.493-1.667,20.655c2.136.193,11.946-4.385,13.808-4.276s7.561,1.129,12.938-.7C358.229,310.611,349.427,303.191,347.4,293.323Z" transform="translate(-319.133 -260.9)" fill="#ffaf20"/>
      <path id="Path_2356" data-name="Path 2356" d="M528.4,219.9l-1.405.052-.143,1.415,5.166,14.45,1.158-6.262-1.264-9.092Z" transform="translate(-509.123 -204.991)" fill="#fff"/>
      <path id="Path_2357" data-name="Path 2357" d="M548.521,330.95l-1.991,15.731,4.2.592,2.9-.224L549.96,333.4Z" transform="translate(-524.999 -294.827)" fill="#fff"/>
      <path id="Path_2358" data-name="Path 2358" d="M376.7,237.745l-2.9.12a14.546,14.546,0,0,1-.166-2.3c-.831-.166-1.806-.454-2.061-1.264a2.432,2.432,0,0,1-.064-.795,10.75,10.75,0,0,1,.1-3.312c.126-.36.027-.773.193-1.121a2.453,2.453,0,0,1,1.57-1.16,5.967,5.967,0,0,1,4.945.491,2.641,2.641,0,0,1,.957.951,3.534,3.534,0,0,1,.17,2.067l-.226,1.933a2.421,2.421,0,0,1-.893,1.953c-.344.193-.773.215-1.083.47C376.715,236.228,376.914,237.082,376.7,237.745Z" transform="translate(-355.517 -222.079)" fill="#e7caad"/>
      <path id="Path_2359" data-name="Path 2359" d="M363.426,200.153a2.819,2.819,0,0,1-.667-.124c-.721-.244-1.259-.81-2.022-1.03a6.808,6.808,0,0,0-4.833.536c-1.353.71-3.252,1.1-4.447,2A3.834,3.834,0,0,0,350.334,203a5.8,5.8,0,0,0,.839,6.071,8.409,8.409,0,0,0,1.05,1,6.2,6.2,0,0,0,2.672,1.562c-.095-.831-1.216-3.335-.677-4.1.717-1.017,2.283-1.125,3.414-1.116,1.353.012,2.409-.51,3.747-.557.681-.023,1.46.048,1.943-.433a11.725,11.725,0,0,0,1.933-3,1.787,1.787,0,0,0-.5-1.833A2.012,2.012,0,0,0,363.426,200.153Z" transform="translate(-338.101 -198.773)" fill="#f4e1c0"/>
      <path id="Path_2360" data-name="Path 2360" d="M421.665,285.206l-8.758-7.936-2.107,1.777,7.25,12.106,3.271.315s.943-3.372,1.139-3.729Z" transform="translate(-387.284 -262.273)" fill="#ffaf20"/>
      <path id="Path_2365" data-name="Path 2365" d="M449.218,223.75l-4.149,1.28-9.929,16.926.677,3.271,12.862,6.432,1.806-3.5-8.124-6.206,4.965-6.77,1.918-10.832Z" transform="translate(-435.14 -208.17)" fill="#ffaf20"/>
      <path id="Path_2366" data-name="Path 2366" d="M547.232,211.624l-2.107-2.264-2.032.565-.562,2.03,1.8.338,1.7.344Z" transform="translate(-521.772 -196.415)" fill="#eac1a4"/>
      <path id="Path_2367" data-name="Path 2367" d="M508.137,351.8l2.026.418-.325,1.193,1.755,2.055-2.407.876-2.357-2.009Z" transform="translate(-492.972 -311.613)" fill="#e7caad"/>
    </g>
  </g>
</svg>
