<svg xmlns="http://www.w3.org/2000/svg" width="76" height="93" viewBox="0 0 76 93">
  <g id="Balcony_icon" data-name="Balcony icon" transform="translate(0)">
    <g id="Girl" transform="translate(22.879)">
      <path id="Path_2828" data-name="Path 2828" d="M464.907,909.584l.158,1.566-2.838,1.951-1.657-1.372,1.34-1.758,2.839-1.951Z" transform="translate(-436.047 -821.911)" fill="#202630"/>
      <path id="Path_2829" data-name="Path 2829" d="M416.307,598.066l3.953,26.244-2.91,1-7.673-25.622-1.217-7.453.044-15.78Z" transform="translate(-391.294 -537.161)" fill="#efd7bf"/>
      <path id="Path_2830" data-name="Path 2830" d="M332.26,593.367l6.122,43.975h2.783l.5-28.188,5.064-19.784Z" transform="translate(-325.855 -548.249)" fill="#efd7bf"/>
      <path id="Path_2831" data-name="Path 2831" d="M367.762,926.69v1.58l-3.009,1.58-1.5-1.58,1.5-1.58Z" transform="translate(-352.47 -837.945)" fill="#202630"/>
      <path id="Path_2785" data-name="Path 2785" d="M207.971,239.834a.758.758,0,0,0,.138.218,1.771,1.771,0,0,0,.954.531,4.45,4.45,0,0,0,1.44,0c.648-.076.652-.451.786-1.029a17.42,17.42,0,0,0,.3-1.9c.928-.076,2.028-.28,2.43-1.234a3.255,3.255,0,0,0,.191-.959l.411-4.051a3.977,3.977,0,0,0-.025-1.4,2.755,2.755,0,0,0-1.522-1.646,5.875,5.875,0,0,0-5.431-.16,3.005,3.005,0,0,0-1.185,1.014,4.836,4.836,0,0,0-.506,2.489c-.016.8-.035,1.59-.053,2.386a3.187,3.187,0,0,0,.664,2.518c.346.288.823.379,1.1.739a2.368,2.368,0,0,1,.265,1.617A1.958,1.958,0,0,0,207.971,239.834Z" transform="translate(-192.545 -224.148)" fill="#efd7bf"/>
      <path id="Path_2786" data-name="Path 2786" d="M230.564,220.465a1.481,1.481,0,0,1,.091.241c.115.43-.019.9.095,1.329.177.685.928,1.142.994,1.851.056.574-.372,1.088-.446,1.66-.08.627.28,1.251.171,1.868a4.135,4.135,0,0,1-.841,1.679c.109-.128,1.008-.014,1.253-.142a.95.95,0,0,0,.56-.693,7.508,7.508,0,0,1,.269-1.1c.237-.453.677-.765.86-1.251.247-.664-.062-1.407.016-2.113.119-1.068,1.117-2.008.856-3.051-.154-.617-.706-1.029-.994-1.594a7.97,7.97,0,0,1-.411-1.37,1.615,1.615,0,0,0-.85-1.092,7.6,7.6,0,0,0-.782-.15,10.079,10.079,0,0,1-1.22-.632,2.382,2.382,0,0,0-2.148.794c-.4.5-.247.952.086,1.44C228.677,218.955,230.122,219.554,230.564,220.465Z" transform="translate(-209.945 -214.789)" fill="#c49c0f"/>
      <path id="Path_2787" data-name="Path 2787" d="M188.9,212.7a12.9,12.9,0,0,0-1.234.706,3.5,3.5,0,0,0-.994,2.469,16.887,16.887,0,0,0-.459,2.349,2.057,2.057,0,0,0,.654,1.528c.543.457,1.44.59,1.646,1.269.226.738-.584,1.588-.177,2.246.224.362.708.446,1.049.7a3.157,3.157,0,0,1,.763,1.187,1.441,1.441,0,0,0,1.029.9,3.966,3.966,0,0,0-.126-1.971c-.152-.4-.629-1.144-.193-1.531.28-.327.893-.395.94-.823a1,1,0,0,0-.206-.56,2.483,2.483,0,0,1-.021-2.263,3.222,3.222,0,0,1,1.714-1.533c.854-.339.734-.549,1.029-1.321.274-.712.7-.852,1.37-1.07a1.383,1.383,0,0,0,1.062-.864,1.626,1.626,0,0,0,.22-1.323,2.732,2.732,0,0,0-.769-.913,3.533,3.533,0,0,0-2.179-1.144c-.465,0-.918.187-1.382.179a8.748,8.748,0,0,1-.924-.128,2.468,2.468,0,0,0-1.545.348c-.455.286-.467.617-.739,1.051A1.6,1.6,0,0,1,188.9,212.7Z" transform="translate(-176.916 -210.75)" fill="#c49c0f"/>
      <path id="Path_2746" data-name="Path 2746" d="M590.855,419.933c.045-.078.093-.155.137-.23,1.76-2.669,5.745-.99,8.355-.99.714,7.533,2.689,14.711,3.966,22.107q2.031,11.781,4.574,23.467c.1.44-6.726.219-7.371.23-6.565.111-15.154.087-21.487-1.9,4.042-10.868,5.517-22.567,8.7-33.712.7-2.462,1.462-4.884,2.359-7.259A10.973,10.973,0,0,1,590.855,419.933Z" transform="translate(-579.03 -402.518)" fill="#ff5a3a"/>
      <path id="Path_2750" data-name="Path 2750" d="M593.324,424.36l-2.165,1.387L581.05,437.988l.273,3.419h4.7l8.569-13.54Z" transform="translate(-580.774 -407.892)" fill="#ff5a3a"/>
      <path id="Path_2769" data-name="Path 2769" d="M581.05,521.807l4.423-.347,8.16,9.1-1.778,1.778-10.531-7.112Z" transform="translate(-580.774 -491.653)" fill="#ff5a3a"/>
      <path id="Path_2798" data-name="Path 2798" d="M211.961,375.439a2.37,2.37,0,0,0,.49.123,13.473,13.473,0,0,0,1.724.167c.411.019.823.027,1.251.027,1.928,0,3.5-.187,3.616-.424v-.047a.392.392,0,0,0,0-.049v-8.19a.51.51,0,0,0-.018-.22.179.179,0,0,0-.07-.072.775.775,0,0,0-.119-.051,5.254,5.254,0,0,0-1.3-.216c-.7-.064-1.411-.086-2.117-.086s-1.415.023-2.119.086a5.254,5.254,0,0,0-1.3.216c-.119.043-.255.1-.247.243V375.1c0,.113-.014.2.078.276A.411.411,0,0,0,211.961,375.439Z" transform="translate(-197.196 -334.274)" fill="#283fff"/>
      <ellipse id="Ellipse_19" data-name="Ellipse 19" cx="3.584" cy="0.436" rx="3.584" ry="0.436" transform="translate(14.627 32.183)" fill="#d67086"/>
      <path id="Path_2800" data-name="Path 2800" d="M216.824,367.49c-1.675,0-3.049.181-3.154.453a21.567,21.567,0,0,0,6.307.053c0-.014.146-.019.146-.031C220.115,367.679,218.558,367.49,216.824,367.49Z" transform="translate(-198.724 -335.146)" fill="#fff"/>
      <path id="Path_2801" data-name="Path 2801" d="M200.88,375.417a2.657,2.657,0,0,0-2.769-.8,2.469,2.469,0,0,0-1.467,1.989,2.608,2.608,0,0,0,3.409,2.637c.428-.206.126-.878-.3-.671-1.088.523-2.547-.823-2.189-2,.411-1.376,1.777-1.424,2.757-.533A.418.418,0,0,0,200.88,375.417Z" transform="translate(-185.188 -340.684)" fill="#283fff"/>
      <path id="Path_2802" data-name="Path 2802" d="M221.574,337.662c.323.019.321-.485,0-.5A1.416,1.416,0,0,0,220,338.392a1.522,1.522,0,0,0,.3,1.057c.411.586,1.454,1.257.444,1.971-.261.185,0,.617.255.434a1.387,1.387,0,0,0,.617-1.452,1.623,1.623,0,0,0-.44-.737c-.189-.206-.492-.411-.584-.679A.951.951,0,0,1,221.574,337.662Z" transform="translate(-203.744 -311.068)" fill="#fff"/>
      <path id="Path_2803" data-name="Path 2803" d="M233.19,340.13c.323.021.323-.483,0-.5a1.413,1.413,0,0,0-1.576,1.234,1.506,1.506,0,0,0,.3,1.057c.411.586,1.454,1.259.444,1.973-.263.185-.012.617.253.434a1.389,1.389,0,0,0,.617-1.452,1.631,1.631,0,0,0-.44-.739c-.187-.206-.492-.4-.582-.677A.951.951,0,0,1,233.19,340.13Z" transform="translate(-212.972 -313.028)" fill="#fff"/>
      <path id="Path_2804" data-name="Path 2804" d="M183.282,377.15a.878.878,0,0,0-.043-.148c-.175-.448-.656-.467-.915-.8-.117-.148-.086-.734-.393-.617-.113.043-.5.152-.891.286a9.907,9.907,0,0,1-.992-.049c-.823-.107-2.374-1.341-3.086-.362a2.187,2.187,0,0,0-.35.607,1.755,1.755,0,0,0-.056.558c0,.144-.025.376.076.467s.473.1.617.128l1.234.255c.411.084.87.222.987.617a2.179,2.179,0,0,0,.07.265.617.617,0,0,0,.206.224,4.437,4.437,0,0,0,.93.6c.6.276,1.543-.313,2.09-.6a1.111,1.111,0,0,0,.37-.276,1.154,1.154,0,0,0,.169-.716A2.192,2.192,0,0,0,183.282,377.15Z" transform="translate(-169.244 -341.172)" fill="#efbfa5"/>
      <path id="Path_2701" data-name="Path 2701" d="M.726,6.22a.886.886,0,0,1-.1-.109C.344,5.745.537,5.327.386,4.944c-.067-.168-.551-.43-.327-.635.083-.076.337-.354.613-.618.136-.286.283-.566.391-.864.271-.755-.044-2.667,1.05-2.8a1.828,1.828,0,0,1,.635,0,1.559,1.559,0,0,1,.468.224c.115.072.313.168.337.291a2.111,2.111,0,0,1-.169.586c-.11.391-.221.784-.337,1.179a1.188,1.188,0,0,0,.069,1.142A1.747,1.747,0,0,1,3.3,3.64a.674.674,0,0,1,.094.278,4.7,4.7,0,0,1,.074,1.087c-.042.647-.918,1.158-1.388,1.479a.93.93,0,0,1-.382.18,1.011,1.011,0,0,1-.645-.206A2.1,2.1,0,0,1,.726,6.22Z" transform="matrix(0.995, 0.105, -0.105, 0.995, 22.217, 38.516)" fill="#e5d1bd"/>
      <path id="Path_2702" data-name="Path 2702" d="M12.738,14.2a5.73,5.73,0,0,1,.593,1.41,5.08,5.08,0,0,1,.084,1.218A24.461,24.461,0,0,1,12.1,24.277,9.061,9.061,0,0,1,8.638,23.5a39.236,39.236,0,0,0,.13-6.234,4.783,4.783,0,0,0-.2-1.257,8.331,8.331,0,0,0-.989-1.537C6.148,12.168,4.918,10.8,3.354,8.71,2.495,7.565.9,5.6.082,4.424-.691,3.31,4.227-.808,5.556.141,8.947,2.562,10.783,10.51,12.738,14.2Z" transform="matrix(0.995, 0.105, -0.105, 0.995, 15.916, 15.64)" fill="#ff5a3a"/>
    </g>
    <path id="Fence" d="M331.635,360.945h2.081v1.475h4.116v34.02h-3.508v5.469h8.208v2.782h54.035v-2.782h8.208V396.44h-3.589V362.42h4.368v-1.475h2.082v-2.961h-76Zm59.139,2.315V396.44H387.95V362.42h2.824Zm-42.531-.415v-.425h2.825v34.02h-2.825Zm6.618,0v-.425h2.825v34.02h-2.825Zm6.618,0v-.425H364.3v34.02h-2.824Zm6.618,0v-.425h2.824v34.02H368.1Zm6.618,0v-.425h2.825v34.02h-2.825Zm6.617,0v-.425h2.825v34.02h-2.825Zm-39.707,0v-.425h2.825v34.02h-2.825Zm55.768.415V396.44h-2.824V362.42h2.824Z" transform="translate(-331.635 -311.691)" fill="#283fff"/>
  </g>
</svg>
