<svg xmlns="http://www.w3.org/2000/svg" width="336" height="228.895" viewBox="0 0 336 228.895">
  <g id="example_icon" data-name="example icon" transform="translate(-38.001 -138.57)">
    <g id="Shadow" transform="translate(38.001 331.757)">
      <g id="Group_216" data-name="Group 216" opacity="0.5">
        <path id="Path_2833" data-name="Path 2833" d="M215.137,668.113a282.656,282.656,0,0,0-29.5,1.313c-3.718.4-7.332,1.275-11.043,1.626-7.413.705-14.694,2.024-22.134,2.632-5.993.489-12.01.776-17.986,1.4a65.451,65.451,0,0,1-17.364-.513c-4.117-.712-8.251-1.113-12.3-2.254a51.777,51.777,0,0,0-14.156-2.159c-6.723.044-13.271.051-19.707,2.308a19.585,19.585,0,0,0-6.74,3.759c-3.914,3.806-4.445,13.3-.507,17.252,6.6,6.644,20.7,9.252,29.955,9.377,10.141.132,20-.594,30.155-1.012,9.438-.4,18.855-.965,28.309-.945,19.311.04,38.622,0,57.9-1.245,18.108-1.174,36.263-.769,54.421-.769,18.611,0,37.1.138,55.574,2.531,8.052,1.043,16.252,1.407,24.337,2.136,7.247.655,14.2,0,21.427-.614a52.576,52.576,0,0,0,17.577-4.558c4.357-2.024,12.128-8.266,13.463-13.075,3.749-13.473-52.805-13.159-61.486-13.118-9.715.034-19.5.337-29.212,0a70.6,70.6,0,0,1-12.091-1.768c-3.978-.847-7.967-.628-11.993-.982-16.783-1.474-33.606-1.259-50.443-1.259C226.109,668.143,220.627,668.1,215.137,668.113Z" transform="translate(-61.001 -668.109)" fill="#ffcdc3"/>
      </g>
    </g>
    <g id="Object" transform="translate(67.439 129.464)">
      <path id="Path_2834" data-name="Path 2834" d="M321.864,274l1.913-1.62,2.477.793,1.424,2.068-.651,1.765L325,278.173l.766.206-.142.621-3.158,1.441c-.763-.793-3.323-1.4-3.728-1.825l2.112-1.815Z" transform="translate(-239.698 -202.665)" fill="#f4d4bd"/>
      <path id="Path_2835" data-name="Path 2835" d="M142.917,708l-.071.722-.246,2.4,4.771,2.912,2.757-2.139-2.264-2.652-.213-.128-.111.277Z" transform="translate(-123.168 -492.248)" fill="#4b505b"/>
      <path id="Path_2836" data-name="Path 2836" d="M162.91,555.06c-5.4.358-10.429.5-14.37.557l.138,18.49-5.9,32.479.26.078,4.619,1.383.111-.273,15.5-38.292.54-7.8Z" transform="translate(-123.287 -390.911)" fill="#1f1f1f"/>
      <path id="Path_2837" data-name="Path 2837" d="M205.39,554.19l-.28,4.008,1.387,10.149,1.579,36.639h.034l.02-.53,4.724.142,7.443-38.9.4-15.892c-5.112.816-10.46,1.35-15.521,1.711Z" transform="translate(-164.586 -387.432)" fill="#1f1f1f"/>
      <path id="Path_2838" data-name="Path 2838" d="M218.9,711.922l-.327-.01-4.714-.142-.02.53-.071,1.876,4.95,2.561,2.612-2.331Z" transform="translate(-170.324 -494.746)" fill="#4b505b"/>
      <path id="Path_2839" data-name="Path 2839" d="M153.479,282.92c-.159-.4-.317-.8-.472-1.194l.034-.027a8.3,8.3,0,0,0,2.932-6.954,13.9,13.9,0,0,0-1.232-4.919,10.948,10.948,0,0,0-1.906-2.426,7.293,7.293,0,0,0-4.946-2.227c-.722.027-.422.59-1.3.145a1.6,1.6,0,0,1-.395-.337l-.243.263a13.114,13.114,0,0,1-2.773,1.927,4.823,4.823,0,0,0-1.987,4.93,5.747,5.747,0,0,1,.3,2.382,6.76,6.76,0,0,1-1.043,1.7,3.141,3.141,0,0,0-.378,1.124c1.687,3.037,4.849,5.49,8.118,5.79v.034c.044.2.091.388.145.577.236.837.806,1.721,1.687,1.785a2.652,2.652,0,0,0,1.161-.263l2.244-.9a.614.614,0,0,0,.381-.3.594.594,0,0,0-.057-.418Z" transform="translate(-121.491 -197.764)" fill="#f4d4bd"/>
      <path id="Path_2840" data-name="Path 2840" d="M133.106,246.5c-1.768-.108-3.334.928-4.771,1.927-.256-1.741-1.93-2.939-3.539-3.408s-3.3-.469-4.869-1.083c-1.886-.739-3.752-2.362-5.628-1.839-1.687.479-2.74,2.531-3.792,4.353l-.081-.088a8.5,8.5,0,0,0-2.73-2.075c-3.374-1.39-2.983,2.811-5.567,2.588a6.119,6.119,0,0,1-1.744-.806,3.679,3.679,0,0,0-3.347.5,23.443,23.443,0,0,1-2.942,1.876,22.616,22.616,0,0,0-2.915,1.032c-1.35.8-1.059,2.247-1.3,3.566a14.073,14.073,0,0,1-1.451,4.636,13.745,13.745,0,0,1-2.186,2.153,3.375,3.375,0,0,0-1.215,2.8c.148,1.032.968,1.873,1.2,2.892.337,1.525.159,2.362.837,3.863a4.683,4.683,0,0,0,1.424,2.078,3.485,3.485,0,0,0,3.037.162,6.356,6.356,0,0,1,3.037-.509c2.257.442,2.132,2.669,2.942,4.42a5.341,5.341,0,0,0,2.612,2.564,4.889,4.889,0,0,0,4.41,0,5.829,5.829,0,0,0,2.49-6.073,18.245,18.245,0,0,0-.776-2.483,6.073,6.073,0,0,1-.236-.955c-.182-1.151.267-2.838-.9-3.617a8.493,8.493,0,0,1-.894-.493,1.687,1.687,0,0,1-.452-.712,3.469,3.469,0,0,1-.175-1.687,3.141,3.141,0,0,1,.378-1.124,7.047,7.047,0,0,0,1.043-1.7,5.748,5.748,0,0,0-.3-2.382,4.841,4.841,0,0,1,1.987-4.93,12.945,12.945,0,0,0,2.773-1.927l.243-.263a1.6,1.6,0,0,0,.395.337c.874.445.574-.118,1.3-.145a7.287,7.287,0,0,1,4.946,2.227,10.949,10.949,0,0,1,1.906,2.426,11.269,11.269,0,0,1,1.539,5.264c.081,2.615-1.275,3.769-.027,6.411a9.282,9.282,0,0,0,1.012,1.653,8.536,8.536,0,0,0,4.126,3.006,4.928,4.928,0,0,0,.547-.02,6.983,6.983,0,0,0,2.588-.739,7.635,7.635,0,0,0,2.159-1.633,7.74,7.74,0,0,0,1.9-3.685,4.507,4.507,0,0,1,.736-2.17c.408-.445,1.012-.621,1.441-1.056,1.728-1.815-1.569-5.108-.827-7.6.469-1.579,2.409-2.193,2.831-3.789C136.743,248.453,134.877,246.608,133.106,246.5Z" transform="translate(-85.008 -182.355)" fill="#d58b5d"/>
      <path id="Path_2841" data-name="Path 2841" d="M198.122,289.8c-.58-.1-6.593-1.812-6.593-1.812.337.057-14.509,10.959-15.909,11.809-4.319,2.6-12.484-.577-17.545-.793a7.635,7.635,0,0,1-2.159,1.633,6.984,6.984,0,0,1-2.588.739c-.182,0-.364.024-.547.02a8.537,8.537,0,0,1-4.14-3.006c-.617-.145-1.113-.25-1.447-.321l-2.331.094.267.675a.594.594,0,0,1,.057.418.614.614,0,0,1-.381.3l-2.237.921a2.652,2.652,0,0,1-1.157.277c-.874-.064-1.444-.948-1.687-1.785-.054-.189-.1-.381-.145-.577l-4.427.179-1.036,1.451a18.247,18.247,0,0,1,.776,2.483,5.829,5.829,0,0,1-2.49,6.073,4.889,4.889,0,0,1-4.41,0l-.921,51.985,4.363,19.627s3.124.084,7.959.02c3.728-.051,8.476-.189,13.591-.526l.887-.057c4.788-.337,9.856-.844,14.694-1.616,1.863-.3,3.712-.634,5.456-1.012,0,0,4.538-12.332-1.981-43.279-1.012-4.862-2.443-10.325-3.816-15.163,4.346-3.728,15.993-10.176,19.8-14.458,4.167-4.69,10.146-14.289,10.277-14.266Z" transform="translate(-112.878 -213.294)" fill="#ff5a3a"/>
      <g id="man" transform="translate(179.915 49.079)">
        <path id="Path_2842" data-name="Path 2842" d="M812,295.63l-10.321,1.819L783.389,311.62l-24.428-6.377-2.831,5.871,22.711,10.929,9.9,2.5,12.859-4.2Z" transform="translate(-747.668 -268.369)" fill="#ffaf20"/>
        <path id="Path_2843" data-name="Path 2843" d="M741.678,325.555l-3.823,1.913-2.73-.307-.017-.931,1.6-.641-5.183-1.124-.479-2.5,6.212-1.474,5.628,1.636Z" transform="translate(-731.05 -284.852)" fill="#eac1a4"/>
        <path id="Path_2844" data-name="Path 2844" d="M875.224,694.77l-4.818,3.411-1.606,2.612a18.518,18.518,0,0,0,2.811,1.012c1.012.2,8.833-1.012,8.833-1.012v-4.619Z" transform="translate(-822.322 -533.488)" fill="#23262d"/>
        <path id="Path_2845" data-name="Path 2845" d="M994.237,693.875l-1.778,3.236s-1.11,4.086-.148,3.806,6.34-1.215,6.556-1.9,2.551-3.458,2.824-3.958-.887-3.826-.887-3.826Z" transform="translate(-903.899 -531.143)" fill="#23262d"/>
        <path id="Path_2846" data-name="Path 2846" d="M901.13,466.274l15.558,46.441,17.393,29.672,6.748-1.96L929.3,506.6s-1.393-34-3.671-44Z" transform="translate(-843.744 -379.655)" fill="#c2c4c6"/>
        <path id="Path_2847" data-name="Path 2847" d="M864.63,462.721l6.023,69.057h7.227l2.21-35.33,4.147-31.285-15.791-18.5Z" transform="translate(-819.559 -369.093)" fill="#c2c4c6"/>
        <path id="Path_2848" data-name="Path 2848" d="M860.283,317.891c.746-3.56,1.043-7.389,2.8-10.709s5.095-5.83,7.663-8.655a9.959,9.959,0,0,1,3.873-3.01,11.581,11.581,0,0,1,3.526-.456l10.878-.273a9.977,9.977,0,0,1,3.9.418c1.805.715,2.824,2.379,3.711,3.931,2.277,3.961,2.7,8.358,2.9,12.822,0,.044,2.827,56.253.58,55.2a33.552,33.552,0,0,0-9.147-2.5,101.334,101.334,0,0,0-13.483-1.259l-7.946.536h-4.791c-2.878.28-2.642,1.147-5.6.965C857.246,364.781,859.409,321.971,860.283,317.891Z" transform="translate(-815.424 -267.89)" fill="#ffaf20"/>
        <path id="Path_2849" data-name="Path 2849" d="M913.112,263.432l5.4-.233a26.588,26.588,0,0,0-.054-4.305c1.522-.442,3.29-1.134,3.634-2.679a4.41,4.41,0,0,0,0-1.488q-.361-3.074-.715-6.144a5.434,5.434,0,0,0-.52-2.058,4.557,4.557,0,0,0-3.1-1.906,11.11,11.11,0,0,0-9.11,1.687,4.869,4.869,0,0,0-1.63,1.92,6.65,6.65,0,0,0,0,3.867q.364,1.775.725,3.556c.277,1.35.7,2.919,1.97,3.492.675.307,1.488.273,2.085.7C912.842,260.615,912.606,262.238,913.112,263.432Z" transform="translate(-847.445 -234.114)" fill="#eac1a4"/>
        <path id="Path_2850" data-name="Path 2850" d="M889.639,217.409a5.175,5.175,0,0,0,1.221-.337c1.3-.567,2.217-1.687,3.6-2.237a12.672,12.672,0,0,1,9.059.236c2.632,1.107,6.222,1.532,8.577,3.02a7.167,7.167,0,0,1,2.321,2.558,10.8,10.8,0,0,1-.6,11.425,15.059,15.059,0,0,1-1.8,2.024c-1.35,1.3-2.949,2.915-4.724,3.327.044-1.559,1.738-6.411.611-7.74-1.495-1.782-4.423-1.738-6.526-1.539-2.5.233-4.562-.57-7.059-.445-1.272.064-2.7.321-3.684-.5a22.1,22.1,0,0,1-4.073-5.27,3.334,3.334,0,0,1,.7-3.5A3.715,3.715,0,0,1,889.639,217.409Z" transform="translate(-833.943 -214.108)" fill="#f4dbb0"/>
        <path id="Path_2851" data-name="Path 2851" d="M898.74,337.246l-4.565,5.652-2.3-6.748a4.256,4.256,0,0,1,.337-1.623c.951-2.3,10.976-31.183,10.976-31.183a27.821,27.821,0,0,0,.594-2.811l3.212-.2-.547,3.263-1.5,1.289Z" transform="translate(-837.608 -271.515)" fill="#1f1f1f"/>
        <path id="Path_2858" data-name="Path 2858" d="M877.245,334.52l.607,20.045L849.24,360.76l1.282,6.5,31.652-1.97,5.861-5.466,3.931-19.256Z" transform="translate(-809.362 -294.218)" fill="#ffaf20"/>
        <path id="Path_2859" data-name="Path 2859" d="M835.267,415.743l-4.238,2.433-4.639-2.251L831,408.58l3.1,1.252Z" transform="translate(-794.221 -343.373)" fill="#eac1a4"/>
      </g>
      <g id="Group_251" data-name="Group 251" transform="matrix(0.966, 0.259, -0.259, 0.966, 84.092, 0)">
        <g id="Group_250" data-name="Group 250" transform="translate(0.01 -0.005)">
          <g id="Group_249" data-name="Group 249" transform="translate(0 0)">
            <g id="Group_247" data-name="Group 247" transform="translate(0 0)">
              <rect id="Rectangle_708" data-name="Rectangle 708" width="117.466" height="155.207" transform="translate(-0.002 26.568) rotate(-8.604)" fill="#1f1f1f"/>
              <path id="Path_2942" data-name="Path 2942" d="M-.01,157.393l1.739-.263L104.8,144.735,80.166,0,75.6,2.075Z" transform="translate(30.877 14.756)" fill="#080a0a" opacity="0.26"/>
              <rect id="Rectangle_709" data-name="Rectangle 709" width="105.616" height="143.583" transform="translate(6.597 30.574) rotate(-8.604)" fill="#fbf9f8"/>
              <path id="Path_2943" data-name="Path 2943" d="M0,11.395,75.146,0l-65.8,74.12Z" transform="translate(5.908 18.727)" fill="#040605" opacity="0.05"/>
              <g id="Group_246" data-name="Group 246" transform="translate(35.217 -0.006)">
                <rect id="Rectangle_710" data-name="Rectangle 710" width="45.898" height="4.254" transform="translate(0.796 25.338) rotate(-8.604)" fill="#000100" opacity="0.12"/>
                <g id="Group_245" data-name="Group 245" transform="translate(0 0)">
                  <path id="Path_2944" data-name="Path 2944" d="M34.946,7.1l-.7.107-.071-.47C33.5,2.3,28.794-.656,23.657.123L16.891,1.149c-5.138.779-8.759,5-8.089,9.434l.071.471-.7.106c-5.137.779-8.759,5-8.089,9.434l1.354,8.965,45.381-6.882L45.46,13.713C44.79,9.281,40.083,6.321,34.946,7.1ZM27.563,8.408,15.607,10.221a2.227,2.227,0,1,1-.665-4.4L26.9,4a2.227,2.227,0,1,1,.666,4.4Z" fill="#1f1f1f"/>
                </g>
              </g>
            </g>
            <g id="Group_248" data-name="Group 248" transform="translate(25.754 65.753)" opacity="0.47">
              <path id="Path_2945" data-name="Path 2945" d="M16.016.008.687,2.335a.817.817,0,0,0-.679.913q1.147,7.6,2.294,15.208a.815.815,0,0,0,.917.67L18.549,16.8a.748.748,0,0,0,.508-.294l.023-.029.012-.018a.736.736,0,0,0,.135-.572Q18.081,8.282,16.933.679A.814.814,0,0,0,16.016.008Zm1.5,15.329L3.78,17.421Q2.752,10.609,1.725,3.8L15.456,1.713Q16.484,8.525,17.512,15.336Z" transform="translate(0 0)" fill="#b5b3b3"/>
              <path id="Path_2946" data-name="Path 2946" d="M16.016.008.687,2.335a.817.817,0,0,0-.679.913q1.147,7.6,2.294,15.208a.815.815,0,0,0,.918.67L18.55,16.8a.748.748,0,0,0,.508-.294c.009-.01.016-.02.023-.029l.012-.018a.736.736,0,0,0,.136-.572Q18.082,8.282,16.934.678A.815.815,0,0,0,16.016.008Zm1.5,15.328L3.78,17.421Q2.752,10.609,1.725,3.8L15.456,1.713Q16.485,8.525,17.512,15.336Z" transform="translate(4.242 28.118)" fill="#b5b3b3"/>
              <path id="Path_2947" data-name="Path 2947" d="M16.016.008.687,2.335a.817.817,0,0,0-.679.913q1.148,7.6,2.294,15.208a.816.816,0,0,0,.918.67L18.55,16.8a.751.751,0,0,0,.508-.294l.023-.029.012-.018a.736.736,0,0,0,.135-.572Q18.082,8.283,16.934.678A.815.815,0,0,0,16.016.008Zm1.5,15.328L3.78,17.421Q2.752,10.609,1.725,3.8L15.457,1.713Q16.485,8.525,17.512,15.336Z" transform="translate(8.485 56.235)" fill="#b5b3b3"/>
            </g>
            <path id="Path_2948" data-name="Path 2948" d="M0,13.091l3.35-1.7,2.487,3.2L20.863,0,22.88.09,5.7,18.978Z" transform="translate(32.471 60.034)" fill="#283fff"/>
            <path id="Path_2949" data-name="Path 2949" d="M0,13.091l3.35-1.7,2.487,3.2L20.863,0,22.88.09,5.7,18.978Z" transform="translate(35.545 89.011)" fill="#283fff"/>
            <path id="Path_2950" data-name="Path 2950" d="M0,13.091l3.35-1.7,2.486,3.2L20.863,0,22.88.09,5.7,18.978Z" transform="translate(39.242 115.629)" fill="#283fff"/>
            <rect id="Rectangle_711" data-name="Rectangle 711" width="54.745" height="7.67" transform="translate(61.026 126.658) rotate(-8.604)" fill="#1f1f1f" opacity="0.32"/>
            <rect id="Rectangle_712" data-name="Rectangle 712" width="54.744" height="7.67" transform="translate(56.532 96.922) rotate(-8.604)" fill="#1f1f1f" opacity="0.32"/>
            <rect id="Rectangle_713" data-name="Rectangle 713" width="54.744" height="7.67" transform="translate(52.038 67.186) rotate(-8.604)" fill="#1f1f1f" opacity="0.32"/>
          </g>
        </g>
      </g>
      <path id="Path_2860" data-name="Path 2860" d="M272.288,416.24l-.088,2.726,4.815,1.754,2.777-2.1V415.44l-2.679-.148-.084-.7-.877-.563Z" transform="translate(-208.897 -296.828)" fill="#f4d4bd"/>
      <path id="Path_2861" data-name="Path 2861" d="M219.86,402.71l14.846,2.939s-.854,9.059-.847,8.307-19.509-1.636-19.509-1.636Z" transform="translate(-170.606 -289.317)" fill="#ff5a3a"/>
      <g id="question_mark" data-name="question mark" transform="translate(150.229 89.928) rotate(4)">
        <path id="Path_2372" data-name="Path 2372" d="M10.5,0A10.208,10.208,0,0,0,9.92,20.413a10.525,10.525,0,0,0,3.191-.375A10.225,10.225,0,0,0,10.514,0Z" transform="translate(12.679 89.215)" fill="#7e8bff"/>
        <path id="Path_2373" data-name="Path 2373" d="M9.93,3.186A9.884,9.884,0,0,0,2.81.006,10.6,10.6,0,0,0,.185.243a9.809,9.809,0,0,1,4.95,2.885,10.305,10.305,0,0,1-.427,14.477A9.809,9.809,0,0,1,.577,19.982c-.185.058-.375.1-.577.144a11.173,11.173,0,0,0,5.4-.092A10.277,10.277,0,0,0,9.954,3.18Z" transform="translate(20.365 89.212)" fill="#283fff"/>
        <path id="Path_2374" data-name="Path 2374" d="M59.688,9.421C53.623,3.484,45.361.316,35.125.022S16.412,2.393,9.9,7.962A28.654,28.654,0,0,0,.031,27.1a4.778,4.778,0,0,0,4.616,5.32l6.093.179A4.772,4.772,0,0,0,15.6,28.491a15.353,15.353,0,0,1,5.066-9.959c3.393-2.925,8.078-4.322,13.958-4.149s10.415,1.9,13.577,5.153,4.657,7.8,4.489,13.531c-.231,7.9-2.654,13.167-7.2,15.637-4.783,2.6-12.221,3.716-22.111,3.329l-2.637-.075a4.783,4.783,0,0,0-4.916,4.616l-.669,22.965a4.772,4.772,0,0,0,4.616,4.91l6.18.179a4.721,4.721,0,0,0,1.437-.173,4.789,4.789,0,0,0,3.462-4.46l.433-14.869a.346.346,0,0,1,.34-.335c11.54.029,20.449-2.268,26.542-6.832,6.457-4.853,9.89-12.746,10.2-23.467S65.775,15.393,59.688,9.421Z" transform="translate(0 1.208)" fill="#7e8bff"/>
        <path id="Path_2375" data-name="Path 2375" d="M41.5,9.422C35.434,3.484,27.171.317,16.935.022A40.372,40.372,0,0,0,0,2.867,46.361,46.361,0,0,1,8.811,2.33c10.23.3,18.493,3.462,24.557,9.4s9.024,14.425,8.707,25.094-3.745,18.591-10.2,23.45a28.146,28.146,0,0,1-6.393,3.56A34.027,34.027,0,0,0,40,57.977c6.457-4.853,9.89-12.746,10.2-23.467S47.586,15.394,41.5,9.422Z" transform="translate(21.696 0)" fill="#283fff"/>
      </g>
    </g>
  </g>
</svg>
