<svg xmlns="http://www.w3.org/2000/svg" width="338" height="239" viewBox="0 0 338 239">
  <g id="dircover" transform="translate(-14.096 4.207)">
    <g id="Iliustrations_discover" data-name="Iliustrations/discover" transform="translate(24.096 -4.206)">
      <g id="background" transform="translate(-41 192.261)">
        <path id="Path_2827" data-name="Path 2827" d="M441.27,859h-274.8c-8.695,0-15.8,3.457-15.8,7.712h0c0,2.925,3.429,5.5,8.383,6.805H134.861c-8.691,0-15.8,3.473-15.8,7.712h0c0,4.255,7.11,7.712,15.8,7.712h8.432c-2.355,1.348-3.784,3.093-3.784,4.991v3.1c0,4.255,7.114,7.712,15.8,7.712H426.026c8.691,0,15.8-3.457,15.8-7.712v-3.085c0-4.255-7.114-7.712-15.8-7.712l-18.407.173a9.963,9.963,0,0,0,5.19-1.633c2.667-1.9,2.8-4.787,1.49-7.2-.85-1.556-2.21-2.787-5.578-3.252l32.536.106c8.695,0,15.8-3.473,15.8-7.712h0C457.075,862.47,449.965,859,441.27,859Z" transform="translate(-88.06 -858)" fill="#bec5ff"/>
      </g>
      <path id="Path_2775" data-name="Path 2775" d="M432.207,515.8l-43.3-.48,4.28-33.094,35.474.392Z" transform="translate(-256.962 -325.424)" fill="#d1d3d4"/>
      <g id="Group_201" data-name="Group 201" transform="translate(134.997 164.428)" opacity="0.14">
        <path id="Path_2776" data-name="Path 2776" d="M396.53,502.736l37.47-1.6,1.04,9.743Z" transform="translate(-396.53 -501.14)"/>
      </g>
      <path id="Path_2732" data-name="Path 2732" d="M711.242,422l5.428,4.012,21.476,29.736-.944,7.08h-9.676L706.05,434.036Z" transform="translate(-676.073 -338.065)" fill="#d34e4e"/>
      <path id="Path_2777" data-name="Path 2777" d="M254.4,168.282V328.307a3.056,3.056,0,0,0,3.04,3.052H479.425a3.056,3.056,0,0,0,3.056-3.052V168.282a2.932,2.932,0,0,0-2.932-2.932H257.328A2.932,2.932,0,0,0,254.4,168.282Z" transform="translate(-214.758 -165.098)" fill="#d1d3d4"/>
      <path id="Path_2778" data-name="Path 2778" d="M254.4,167.44V310.451H482.461V167.44a2.724,2.724,0,0,0-2.72-2.72H257.12a2.72,2.72,0,0,0-2.72,2.72Z" transform="translate(-214.758 -164.72)" fill="#1f1f1f"/>
      <rect id="Rectangle_679" data-name="Rectangle 679" width="216.038" height="131.316" transform="translate(45.653 6.664)" fill="#fff"/>
      <path id="Path_2828" data-name="Path 2828" d="M468.054,910.719l.273,2.7-4.9,3.367-2.86-2.368,2.312-3.033,4.9-3.367Z" transform="translate(-418.255 -703.927)" fill="#202630"/>
      <path id="Path_2829" data-name="Path 2829" d="M422,613.742l6.821,45.285-5.021,1.732-13.24-44.211-2.1-12.86.076-27.228Z" transform="translate(-378.841 -453.138)" fill="#efd7bf"/>
      <path id="Path_2830" data-name="Path 2830" d="M332.26,596.267l10.563,75.88h4.8l.862-48.639,8.738-34.137Z" transform="translate(-321.209 -462.904)" fill="#efd7bf"/>
      <path id="Path_2831" data-name="Path 2831" d="M371.036,926.69v2.726l-5.191,2.726-2.594-2.726,2.594-2.726Z" transform="translate(-344.65 -718.049)" fill="#202630"/>
      <rect id="Rectangle_680" data-name="Rectangle 680" width="68.432" height="11.935" transform="translate(119.565 185.82)" fill="#d1d3d4"/>
      <rect id="Rectangle_681" data-name="Rectangle 681" width="216.022" height="11.151" transform="translate(45.477 6.664)" fill="#d1d3d4"/>
      <rect id="Rectangle_682" data-name="Rectangle 682" width="67.888" height="5.46" transform="translate(188.719 9.507)" fill="#fff"/>
      <path id="Path_2779" data-name="Path 2779" d="M686.51,118.7h3.424l-1.712,1.448Z" transform="translate(-435.458 -106.997)" fill="#ccc"/>
      <rect id="Rectangle_683" data-name="Rectangle 683" width="0.324" height="4.564" transform="translate(248.441 9.907)" fill="#ccc"/>
      <path id="Path_2780" data-name="Path 2780" d="M291.056,190.308a3.648,3.648,0,1,1-3.648-3.648A3.648,3.648,0,0,1,291.056,190.308Z" transform="translate(-232.375 -177.885)" fill="#8cabef"/>
      <g id="Group_207" data-name="Group 207" transform="translate(16.043 56.184)">
        <path id="Path_2785" data-name="Path 2785" d="M209.479,248.7a1.309,1.309,0,0,0,.238.376,3.056,3.056,0,0,0,1.647.916,7.678,7.678,0,0,0,2.485,0c1.118-.131,1.125-.777,1.356-1.775a30.064,30.064,0,0,0,.511-3.276c1.6-.131,3.5-.483,4.192-2.13a5.616,5.616,0,0,0,.33-1.654l.71-6.989a6.862,6.862,0,0,0-.043-2.41,4.754,4.754,0,0,0-2.627-2.84,10.138,10.138,0,0,0-9.371-.277,5.185,5.185,0,0,0-2.045,1.75,8.345,8.345,0,0,0-.873,4.3c-.028,1.374-.06,2.744-.092,4.118-.036,1.58.032,3.408,1.147,4.345.6.5,1.42.653,1.9,1.274a4.087,4.087,0,0,1,.458,2.79A3.38,3.38,0,0,0,209.479,248.7Z" transform="translate(-198.906 -221.63)" fill="#efd7bf"/>
        <path id="Path_2786" data-name="Path 2786" d="M232.572,223.824a2.553,2.553,0,0,1,.156.415c.2.742-.032,1.548.163,2.293.305,1.182,1.6,1.97,1.714,3.195.1.99-.642,1.878-.77,2.865-.138,1.083.483,2.158.295,3.223a7.135,7.135,0,0,1-1.452,2.9c.188-.22,1.739-.025,2.162-.245a1.639,1.639,0,0,0,.966-1.2,12.954,12.954,0,0,1,.465-1.906c.408-.781,1.168-1.321,1.484-2.158.426-1.147-.106-2.428.028-3.645.206-1.842,1.927-3.464,1.477-5.264-.266-1.065-1.218-1.775-1.714-2.751a13.754,13.754,0,0,1-.71-2.364,2.786,2.786,0,0,0-1.466-1.885,13.121,13.121,0,0,0-1.349-.259,17.392,17.392,0,0,1-2.1-1.09c-1.047-.44-3.014.5-3.706,1.37s-.426,1.644.149,2.485C229.317,221.218,231.809,222.251,232.572,223.824Z" transform="translate(-213.036 -214.03)" fill="#f8edc7"/>
        <path id="Path_2787" data-name="Path 2787" d="M190.852,214.119a22.25,22.25,0,0,0-2.13,1.218c-1.221.99-1.562,2.691-1.714,4.26-.138,1.391-.838,2.588-.792,4.054a3.55,3.55,0,0,0,1.129,2.637c.937.788,2.485,1.019,2.84,2.19.39,1.274-1.008,2.74-.305,3.876.387.625,1.221.77,1.81,1.214a5.446,5.446,0,0,1,1.317,2.048,2.486,2.486,0,0,0,1.775,1.558,6.843,6.843,0,0,0-.217-3.4c-.263-.685-1.086-1.974-.334-2.641.483-.564,1.541-.682,1.622-1.42a1.725,1.725,0,0,0-.355-.965,4.285,4.285,0,0,1-.036-3.9,5.559,5.559,0,0,1,2.957-2.645c1.473-.586,1.267-.948,1.775-2.279.472-1.228,1.2-1.47,2.364-1.846a2.386,2.386,0,0,0,1.832-1.491,2.805,2.805,0,0,0,.38-2.282,4.715,4.715,0,0,0-1.328-1.576c-1.086-.958-2.311-1.974-3.759-1.974-.8,0-1.583.323-2.385.309a15.1,15.1,0,0,1-1.594-.22,4.259,4.259,0,0,0-2.666.6c-.784.493-.806,1.065-1.274,1.814A2.765,2.765,0,0,1,190.852,214.119Z" transform="translate(-186.214 -210.75)" fill="#f8edc7"/>
      </g>
      <path id="Path_2789" data-name="Path 2789" d="M941.443,610.63l-2.046,2.4a55.953,55.953,0,0,1-7.4-6.869c1.371-.664,2.322-2.581,4.1-1.1C936.69,605.542,941.31,610.8,941.443,610.63Z" transform="translate(-627.79 -415.984)" fill="#efbfa5"/>
      <path id="Path_2790" data-name="Path 2790" d="M944.2,620.449a2.281,2.281,0,0,0-.43,1.609,5.987,5.987,0,0,1,.1,1.049,2.242,2.242,0,0,1-.332.888c-.787,1.434-3.539,5.187.294,5.246,3.5.063,5.707-5.7,6.889-8.565a1.134,1.134,0,0,0,.126-.609,1.456,1.456,0,0,0-.325-.647c-.812-1.088-2.025-2.766-3.176-1.623-.493.486-.647,1.318-1.2,1.8C945.689,620.012,944.5,620.068,944.2,620.449Z" transform="translate(-634.194 -424.373)" fill="#4d4d4d"/>
      <path id="Path_2791" data-name="Path 2791" d="M875.577,407.159c.668,4.529-.168,8.963-.616,13.4a45.746,45.746,0,0,0,.983,14.181c1.084,5.417,2.27,10.841,3.787,16.143,1.581,5.543,3.917,9.946,6.575,14.979a2.839,2.839,0,0,1,.444,1.367c-.063,1.721-7.547,6.463-8.044,5.473-4.116-8.393-10.726-16.839-14.276-25.53a421.05,421.05,0,0,1-15.888-46.384c-.626-2.252-1.2-4.833-.084-6.743.853-1.465,2.48-2.1,4.022-2.595,4.116-1.294,11.541-4.12,15.674-1.374C872.671,393.083,874.832,402.085,875.577,407.159Z" transform="translate(-573.053 -275.785)" fill="#3b455a"/>
      <path id="Path_2792" data-name="Path 2792" d="M856.735,629.311l-3.029-.06a63.011,63.011,0,0,1-.217-10.492c1.378.665,3.336.168,3.5,2.581C857.064,622.1,856.543,629.308,856.735,629.311Z" transform="translate(-576.656 -425.247)" fill="#efbfa5"/>
      <path id="Path_2793" data-name="Path 2793" d="M840.068,643.21a1.909,1.909,0,0,0-1.4.7,5.667,5.667,0,0,1-.65.773,1.878,1.878,0,0,1-.836.322c-1.518.311-5.945.574-3.431,3.714,2.291,2.85,7.764.836,10.527-.1a1.007,1.007,0,0,0,.507-.3,1.49,1.49,0,0,0,.224-.7c.206-1.374.549-3.462-1.011-3.637-.664-.073-1.343.35-2.053.224C841.366,644.119,840.526,643.2,840.068,643.21Z" transform="translate(-563.409 -441.147)" fill="#4d4d4d"/>
      <path id="Path_2794" data-name="Path 2794" d="M862.183,415.763c-1.224,6.61-5.2,11.712-7.057,18.14-3.574,12.429-4.333,26.67-6.075,39.564-.133.99-.119,4.546-.119,4.546s-4.742.951-7.606.371a431,431,0,0,1-2.413-77.712c.14-2.354.434-5,2.1-6.446,1.277-1.109,3.008-1.179,4.606-1.123,4.281.143,12.16-.06,15.136,3.931C864,401.393,863.123,410.685,862.183,415.763Z" transform="translate(-566.765 -278.5)" fill="#3b455a"/>
      <path id="Path_2795" data-name="Path 2795" d="M844.545,265.425l4.77-.615a24.033,24.033,0,0,0-.371-3.815c1.315-.507,2.833-1.252,3.022-2.651a3.946,3.946,0,0,0-.119-1.322q-.545-2.7-1.1-5.4a4.828,4.828,0,0,0-.616-1.791,4.077,4.077,0,0,0-2.9-1.458,9.934,9.934,0,0,0-7.967,2.193,4.334,4.334,0,0,0-1.3,1.829,5.981,5.981,0,0,0,.3,3.431l.913,3.1c.35,1.189.846,2.535,2.011,2.952a10.3,10.3,0,0,1,1.91.465C844.094,262.942,844,264.4,844.545,265.425Z" transform="translate(-566.543 -184.121)" fill="#eacdb0"/>
      <g id="Group_209" data-name="Group 209" transform="translate(0 82.997)">
        <path id="Path_2746" data-name="Path 2746" d="M599.435,421.2c.078-.135.16-.267.236-.4,3.037-4.6,9.912-1.709,14.417-1.709,1.232,13,4.64,25.384,6.844,38.145q3.5,20.329,7.892,40.493c.165.76-11.607.378-12.718.4-11.328.191-26.149.151-37.076-3.278,6.974-18.753,9.52-38.94,15.012-58.17,1.211-4.248,2.523-8.428,4.071-12.525A18.945,18.945,0,0,1,599.435,421.2Z" transform="translate(-579.03 -418.192)" fill="#ff5a3a"/>
        <path id="Path_2750" data-name="Path 2750" d="M602.229,424.36l-3.736,2.393L581.05,447.875l.472,5.9h8.107l14.785-23.364Z" transform="translate(-580.573 -422.906)" fill="#ff5a3a"/>
        <path id="Path_2769" data-name="Path 2769" d="M581.05,522.059l7.632-.6,14.08,15.7-3.068,3.068L581.522,527.96Z" transform="translate(-580.573 -497.089)" fill="#ff5a3a"/>
      </g>
      <path id="Path_2796" data-name="Path 2796" d="M802.267,230.647a12.281,12.281,0,0,0-.941-1.27,22.968,22.968,0,0,1-2.259-2.56,2.958,2.958,0,0,1-.182-3.217,3.522,3.522,0,0,1,1.847-1.14,13.639,13.639,0,0,1,7.18-.35c2.256.5,4.288,1.4,6.515.479,2.1-.853,3.634-.577,5.868.147,2.42.783,5.638.888,7.841,2.032a6.407,6.407,0,0,1,2.256,2.1,9.638,9.638,0,0,1,.329,10.184,13.909,13.909,0,0,1-1.444,1.934c-1.091,1.259-2.4,2.8-3.938,3.312-.081-1.4,1.049-5.809-.046-6.917-1.749-1.749-5.557-1.011-7.645-.5-2.28.553-4.274,2.235-6.536,2.651a8.573,8.573,0,0,1-5.155-1.245C804.211,235.287,803.319,232.266,802.267,230.647Z" transform="translate(-540.967 -166.89)" fill="#865b48"/>
      <path id="Path_2797" data-name="Path 2797" d="M848.076,289.3a18.4,18.4,0,0,1,7.344,8.044c6.585,13,9.792,27.394,12.884,41.617,1,4.62,2.193,9.572,5.756,12.677-3.147.588-6.47,1.025-9.53.056a45.755,45.755,0,0,1-5.655-2.742c-4.735-2.27-10.2-2.658-15.412-2a82.8,82.8,0,0,0-15.237,3.924,58.418,58.418,0,0,1-.413-11.156c.608-10.971,5-21.4,5.029-32.44,0-3.889-.528-7.841.332-11.635a9.659,9.659,0,0,1,9.943-7.694A11.356,11.356,0,0,1,848.076,289.3Z" transform="translate(-559.974 -209.975)" fill="#ffaf20"/>
      <rect id="Rectangle_684" data-name="Rectangle 684" width="73.979" height="96.458" transform="translate(171.909 30.994)" fill="#bec5ff"/>
      <path id="Path_2798" data-name="Path 2798" d="M212.117,382a4.087,4.087,0,0,0,.845.213,23.237,23.237,0,0,0,2.975.288c.71.032,1.42.046,2.158.046,3.326,0,6.034-.323,6.24-.731v-.082a.69.69,0,0,0,0-.085V367.515a.88.88,0,0,0-.032-.38.309.309,0,0,0-.121-.124,1.336,1.336,0,0,0-.206-.089,9.068,9.068,0,0,0-2.247-.373c-1.214-.11-2.435-.149-3.653-.149s-2.442.039-3.656.149a9.068,9.068,0,0,0-2.247.373c-.206.075-.44.174-.426.419V381.4c0,.2-.025.337.135.476A.709.709,0,0,0,212.117,382Z" transform="translate(-186.64 -255.044)" fill="#283fff"/>
      <ellipse id="Ellipse_19" data-name="Ellipse 19" cx="6.184" cy="0.753" rx="6.184" ry="0.753" transform="translate(25.239 111.478)" fill="#d67086"/>
      <path id="Path_2800" data-name="Path 2800" d="M219.112,367.49c-2.889,0-5.261.312-5.442.781a37.212,37.212,0,0,0,10.883.092c0-.025.252-.032.252-.053C224.791,367.817,222.1,367.49,219.112,367.49Z" transform="translate(-187.881 -255.736)" fill="#fff"/>
      <path id="Path_2801" data-name="Path 2801" d="M203.966,376.1c-1.331-1.246-3.06-2.066-4.778-1.388a4.26,4.26,0,0,0-2.531,3.433c-.4,3.152,3.344,5.747,5.882,4.551.738-.355.217-1.516-.525-1.157-1.878.9-4.395-1.42-3.777-3.454.71-2.375,3.067-2.456,4.757-.919A.722.722,0,0,0,203.966,376.1Z" transform="translate(-176.888 -260.248)" fill="#283fff"/>
      <path id="Path_2802" data-name="Path 2802" d="M222.724,338.03c.557.032.554-.838,0-.87A2.443,2.443,0,0,0,220,339.29a2.627,2.627,0,0,0,.525,1.825c.71,1.012,2.51,2.169.767,3.4-.451.319,0,1.065.44.749a2.392,2.392,0,0,0,1.065-2.506,2.8,2.8,0,0,0-.76-1.271c-.327-.355-.848-.71-1.008-1.171A1.64,1.64,0,0,1,222.724,338.03Z" transform="translate(-191.958 -236.158)" fill="#fff"/>
      <path id="Path_2803" data-name="Path 2803" d="M234.338,340.5c.557.035.557-.834,0-.866a2.438,2.438,0,0,0-2.719,2.13,2.6,2.6,0,0,0,.525,1.825c.71,1.012,2.51,2.172.767,3.4-.454.319-.021,1.065.437.749a2.4,2.4,0,0,0,1.065-2.506,2.815,2.815,0,0,0-.76-1.274c-.323-.355-.848-.692-1-1.168A1.641,1.641,0,0,1,234.338,340.5Z" transform="translate(-199.452 -237.753)" fill="#fff"/>
      <path id="Path_2804" data-name="Path 2804" d="M188.164,378.648a1.514,1.514,0,0,0-.075-.256c-.3-.774-1.132-.806-1.58-1.377-.2-.256-.149-1.267-.678-1.065-.2.075-.87.263-1.537.493a17.094,17.094,0,0,1-1.711-.085c-1.42-.185-4.1-2.314-5.324-.625a3.773,3.773,0,0,0-.6,1.047,3.028,3.028,0,0,0-.1.962c0,.248-.043.65.131.806s.816.167,1.065.22l2.13.44c.71.146,1.5.383,1.7,1.065a3.764,3.764,0,0,0,.121.458,1.065,1.065,0,0,0,.355.387,7.656,7.656,0,0,0,1.6,1.036c1.04.476,2.662-.54,3.606-1.044a1.917,1.917,0,0,0,.639-.476,1.991,1.991,0,0,0,.291-1.235A3.781,3.781,0,0,0,188.164,378.648Z" transform="translate(-163.94 -260.644)" fill="#efbfa5"/>
      <path id="Path_2806" data-name="Path 2806" d="M391.224,259.2a37.726,37.726,0,0,0-28.594,13.059l28.594,24.778,28.6-24.778A37.734,37.734,0,0,0,391.224,259.2Z" transform="translate(-279.627 -221.475)" fill="#283fff"/>
      <path id="Path_2807" data-name="Path 2807" d="M349.358,292.16a37.83,37.83,0,0,0,8.907,56.5l20.019-32.106Z" transform="translate(-266.327 -241.284)" fill="#ffaf20"/>
      <path id="Path_2808" data-name="Path 2808" d="M404.245,391.12a37.7,37.7,0,0,1-20.455-6l20.459-31.83Z" transform="translate(-292.326 -277.995)" fill="#7e8bff"/>
      <path id="Path_2809" data-name="Path 2809" d="M496.254,303.071a37.638,37.638,0,0,0-8.859-19.391L458.8,308.458Z" transform="translate(-337.306 -236.174)" fill="#ff5a3a"/>
      <path id="Path_2810" data-name="Path 2810" d="M482.234,346.54l-37.454,5.384v37.838a37.818,37.818,0,0,0,37.454-43.221Z" transform="translate(-328.898 -273.944)" fill="#bec5ff"/>
      <rect id="Rectangle_685" data-name="Rectangle 685" width="7.676" height="20.315" transform="translate(236.46 72.934) rotate(180)" fill="#fff"/>
      <rect id="Rectangle_686" data-name="Rectangle 686" width="7.676" height="14.803" transform="translate(212.604 72.928) rotate(180)" fill="#fff"/>
      <rect id="Rectangle_687" data-name="Rectangle 687" width="7.676" height="20.623" transform="translate(188.744 72.934) rotate(180)" fill="#fff"/>
      <rect id="Rectangle_688" data-name="Rectangle 688" width="7.676" height="28.646" transform="translate(200.672 72.948) rotate(180)" fill="#fff"/>
      <rect id="Rectangle_689" data-name="Rectangle 689" width="7.676" height="36.362" transform="translate(224.532 72.958) rotate(180)" fill="#fff"/>
      <g id="Group_202" data-name="Group 202" transform="translate(179.653 80.557)" opacity="0.22">
        <rect id="Rectangle_690" data-name="Rectangle 690" width="58.484" height="2.48" fill="#fff"/>
      </g>
      <g id="Group_203" data-name="Group 203" transform="translate(179.653 89.116)" opacity="0.22">
        <rect id="Rectangle_691" data-name="Rectangle 691" width="58.484" height="2.48" fill="#fff"/>
      </g>
      <g id="Group_204" data-name="Group 204" transform="translate(179.653 97.671)" opacity="0.22">
        <rect id="Rectangle_692" data-name="Rectangle 692" width="58.484" height="2.48" fill="#fff"/>
      </g>
      <g id="Group_205" data-name="Group 205" transform="translate(179.653 106.227)" opacity="0.22">
        <rect id="Rectangle_693" data-name="Rectangle 693" width="58.484" height="2.48" fill="#fff"/>
      </g>
      <g id="Group_206" data-name="Group 206" transform="translate(179.653 114.782)" opacity="0.22">
        <rect id="Rectangle_694" data-name="Rectangle 694" width="58.484" height="2.48" fill="#fff"/>
      </g>
      <path id="Path_2825" data-name="Path 2825" d="M739.511,387.557l2.3-2.553c.238-.266.759-1.13,1.172-.8.2.161.923.64,1.619,1.165.7.2,1.4.434,2.1.57,1.8.35,6.008-1.049,6.7,1.357a4.12,4.12,0,0,1,.231,1.434,3.564,3.564,0,0,1-.35,1.14c-.126.283-.255.766-.535.874a4.807,4.807,0,0,1-1.4-.161l-2.773-.325c-.909-.1-1.986-.143-2.556.57a4.052,4.052,0,0,1-.35.479,1.57,1.57,0,0,1-.594.315,10.917,10.917,0,0,1-2.427.56c-.755.07-1.088-.423-1.619-.878-.626-.535-1.423-.567-2.049-1.081a1.322,1.322,0,0,1-.532-1.193,2,2,0,0,1,.563-.937Z" transform="translate(-501.971 -272.535)" fill="#eacdb0"/>
      <path id="Path_2826" data-name="Path 2826" d="M793.6,341.719a14.5,14.5,0,0,1-5.945,2.074,55.912,55.912,0,0,1-17.294-.273,20.69,20.69,0,0,1,.5-8.1,89.305,89.305,0,0,0,14.115-1.962c2.277-.5,4.2-1.332,5.246-3.564a109.743,109.743,0,0,0,5.746-15.356,11.317,11.317,0,0,1,1.364-3.343,6.22,6.22,0,0,1,5.879-2.336,9.18,9.18,0,0,1,5.6,3.312,7.317,7.317,0,0,1,1.9,4.277,9.738,9.738,0,0,1-1.378,4.679,76.478,76.478,0,0,1-12.59,17.955,16.287,16.287,0,0,1-3.137,2.64Z" transform="translate(-522.558 -223.526)" fill="#ffaf20"/>
    </g>
  </g>
</svg>
