<svg xmlns="http://www.w3.org/2000/svg" width="338" height="238" viewBox="0 0 338 238">
  <g id="Iliustrations_buy" data-name="Iliustrations/buy" transform="translate(0.002 -0.059)">
    <g id="Shadow" transform="translate(-0.002 199.791)">
      <path id="Path_2644" data-name="Path 2644" d="M235.363,662.113a267.107,267.107,0,0,0-29.678,1.407c-3.725.427-7.372,1.367-11.1,1.747-7.458.756-14.784,2.17-22.27,2.817-6.027.524-12.079.832-18.088,1.5a61.736,61.736,0,0,1-17.464-.55c-4.139-.763-8.3-1.193-12.368-2.415a49.177,49.177,0,0,0-14.241-2.314c-6.78.051-13.353.054-19.826,2.473a19.382,19.382,0,0,0-6.78,4.028c-3.95,4.079-4.485,14.258-.539,18.488,6.641,7.123,20.822,9.915,30.132,10.049,10.206.145,20.115-.636,30.331-1.085,9.5-.427,18.966-1.034,28.479-1.012,19.423.043,38.853,0,58.243-1.334,18.2-1.255,36.48-.824,54.739-.824,18.72,0,37.318.152,55.9,2.712,8.1,1.117,16.35,1.508,24.49,2.293,7.29.7,14.295,0,21.557-.662a50.314,50.314,0,0,0,17.681-4.9c4.386-2.17,12.2-8.859,13.56-14.012,3.772-14.439-53.119-14.1-61.855-14.059-9.77.036-19.626.362-29.382,0a67.1,67.1,0,0,1-12.165-1.895c-4.011-.908-8.018-.687-12.068-1.049-16.882-1.584-33.807-1.352-50.743-1.352C246.393,662.146,240.876,662.1,235.363,662.113Z" transform="translate(-80.298 -662.109)" fill="#ffcdc3"/>
    </g>
    <g id="Object" transform="translate(29.232 0.06)">
      <path id="Path_2645" data-name="Path 2645" d="M729.322,307.09a32.055,32.055,0,0,1-4.184-4.223c-3.3-3.978-5.861-8.5-9-12.6a.8.8,0,0,1-.228-.517.723.723,0,0,1,.2-.391c1.229-1.544,5.312-3.916,7.395-3.536,1.085.2,1.566,1.367,2.293,2.354l5.138,6.968c2.249-6.87,2.961-9.065,4.426-13.549a27.183,27.183,0,0,1,2.531-6.046,1.243,1.243,0,0,1,2.137-.322,13.068,13.068,0,0,1,5.193,7.973,22.428,22.428,0,0,1-.152,7.857,81.154,81.154,0,0,1-5.6,19.526,1.639,1.639,0,0,1-.416.644,1.557,1.557,0,0,1-1.3.137A19.5,19.5,0,0,1,729.322,307.09Z" transform="translate(-515.711 -213.501)" fill="#bdbfc1"/>
      <path id="Path_2646" data-name="Path 2646" d="M711.281,286.073l.517.018a8.318,8.318,0,0,1,4.209.98,1.917,1.917,0,0,1,1.031,2.043,3.224,3.224,0,0,1-.9,1.107c-2.17,2.209,3.616,6.259.8,8.577a3.7,3.7,0,0,1-1.208.767,3.069,3.069,0,0,1-1.15.087c-.3-.018-.785.029-.991-.213a5.27,5.27,0,0,1-.362-1.446l-.723-2.914c-.242-.955-.607-2.057-1.446-2.365a3.966,3.966,0,0,1-.568-.181,1.774,1.774,0,0,1-.5-.485c-.723-.922-2.462-3.113-2.021-4.368a2.441,2.441,0,0,1,1.638-1.414,5.546,5.546,0,0,1,1.678-.192Z" transform="translate(-510.559 -220.673)" fill="#c9a98d"/>
      <path id="Path_2647" data-name="Path 2647" d="M772.749,686.912l-2.994-.17a73.2,73.2,0,0,1-.593-11.242c1.381.759,3.3.293,3.562,2.893C772.807,679.217,772.554,686.89,772.749,686.912Z" transform="translate(-549.691 -470.858)" fill="#e5d1bd"/>
      <path id="Path_2648" data-name="Path 2648" d="M756.813,701.765a1.808,1.808,0,0,0-1.258.929,5.415,5.415,0,0,1-.532.911,1.7,1.7,0,0,1-.763.438,16.285,16.285,0,0,0-3.471,1.323,4.82,4.82,0,0,1-1.4.564.921.921,0,0,0-.423.166.723.723,0,0,0-.184.521,2.13,2.13,0,0,0,1.2,1.844c.806.419,1.747.477,2.578.839a5.257,5.257,0,0,0,3.048.26,20.905,20.905,0,0,0,5.908-2.386.951.951,0,0,0,.448-.383,1.729,1.729,0,0,0,.134-.774c.036-1.512.112-3.811-1.41-3.826-.647,0-1.247.524-1.945.466C758.158,702.611,757.24,701.707,756.813,701.765Z" transform="translate(-536.692 -487.624)" fill="#3b455a"/>
      <path id="Path_2649" data-name="Path 2649" d="M734.691,494.967a23.239,23.239,0,0,0-.691,4.462,23.5,23.5,0,0,0,.568,4.838q4.017,21.334,8.035,42.7l6.689-.2a19.115,19.115,0,0,0,3.79-1.085,17.191,17.191,0,0,0,.1-2.314c-.908-17.046-3-30.012-1.446-44.972.391-3.764,2.65-6.169,4.625-9.354,6.715-10.815,8.393-20.108,11.549-27.3.2-.456-18.3-3.287-19.222-3.428-2.321-.362-4.339-.409-5.706,1.826-1.537,2.47-1.808,6.111-2.462,8.9q-1.4,6.147-2.784,12.258Q736.2,488.115,734.691,494.967Z" transform="translate(-527.363 -332.089)" fill="#3b455a"/>
      <path id="Path_2650" data-name="Path 2650" d="M834.721,690.826l-3.218.134a72.609,72.609,0,0,1-1.783-11.51c1.555.64,3.562-.033,4.1,2.6C834,682.9,834.522,690.833,834.721,690.826Z" transform="translate(-588.471 -473.38)" fill="#e5d1bd"/>
      <path id="Path_2651" data-name="Path 2651" d="M819.966,706.283a1.934,1.934,0,0,0-1.251,1.085,6.174,6.174,0,0,1-.477.994,1.886,1.886,0,0,1-.774.528,17.721,17.721,0,0,0-3.576,1.71,5.256,5.256,0,0,1-1.446.723.944.944,0,0,0-.434.213.7.7,0,0,0-.145.553,2.217,2.217,0,0,0,1.475,1.779c.9.362,1.916.311,2.842.6a5.877,5.877,0,0,0,3.287-.047,22.71,22.71,0,0,0,6.075-3.055,1.019,1.019,0,0,0,.441-.441,1.761,1.761,0,0,0,.065-.81c-.119-1.559-.268-3.934-1.9-3.793-.694.058-1.284.669-2.036.68C821.5,707.013,820.429,706.174,819.966,706.283Z" transform="translate(-577.065 -490.504)" fill="#3b455a"/>
      <path id="Path_2652" data-name="Path 2652" d="M799.184,508.735c1.884,9.933,4.672,19.786,4.806,29.9a2.127,2.127,0,0,0,.325,1.356,1.992,1.992,0,0,0,1.273.546,17.805,17.805,0,0,0,8.888-.933c.3-5.265-.973-10.486-1.559-15.719a118.275,118.275,0,0,1-.051-19.472c.843-15.849,6.487-32.33,5.923-48.19-.108-3-4.954-5.442-5.988-8.262a41.156,41.156,0,0,1-18.962-1.508c.08,3.254.658,6.172,1.013,9.351.466,4.187.253,8.541.409,12.75.315,8.6.8,17.2,1.768,25.749C797.575,499.134,798.277,503.954,799.184,508.735Z" transform="translate(-565.565 -324.631)" fill="#3b455a"/>
      <path id="Path_2653" data-name="Path 2653" d="M766.924,262.428a10.657,10.657,0,0,1,3.616,2.325,43.3,43.3,0,0,1,7.232,11.188,79.841,79.841,0,0,1,7.275,25.6c1.634,14.825-.6,29.879-3.616,44.52q-27.228-8.913-54.941-16.145c1.985.517,8.6-10.526,9.582-12.193,2.531-4.339,5.518-9.839,6.053-14.977.947-9.094-.944-18.253.34-27.329.488-3.45.318-6.552,2.8-9.177a17.357,17.357,0,0,1,10.125-5.145A24.032,24.032,0,0,1,766.924,262.428Z" transform="translate(-522.569 -204.815)" fill="#bdbfc1"/>
      <path id="Path_2654" data-name="Path 2654" d="M792.1,220.969c.08.213,3.844,0,4.256,0,1.3,0,1.935-.38,2.17-1.768a11.341,11.341,0,0,1,1.5-4.195c.64-1.056,1.62-1.786,2.3-2.8a16.087,16.087,0,0,0,1.5-2.86,22.97,22.97,0,0,0,1.36-5.091,17.873,17.873,0,0,0-.322-3.978,7.831,7.831,0,0,0-.611-2.976c-.806-1.6-2.589-2.441-4.314-2.922-4.914-1.345-14.25-.889-15.035,5.619a26.384,26.384,0,0,0-.036,4.339c.127,3.034-.683,8.628,2.654,10.327.94.477,2.108.485,2.936,1.135C791.913,216.934,791.472,219.237,792.1,220.969Z" transform="translate(-559.794 -161.039)" fill="#eacdb0"/>
      <path id="Path_2655" data-name="Path 2655" d="M813.614,183.525a11.118,11.118,0,0,1-3.254-3.077,8.581,8.581,0,0,0-3.4-2.864,22.318,22.318,0,0,0-3.978-.553,30.752,30.752,0,0,1-4.064-1.349,12.9,12.9,0,0,0-11.549,1.75c-1.891,1.414-5.211,4.921-4.365,7.593a2.17,2.17,0,0,0,1.193,1.32c.745.322,1.674.1,2.386.463.528.268.723.723,1.045,1.244a9.5,9.5,0,0,0,2.379,3.088,8.121,8.121,0,0,0,3.6,1.172,1.634,1.634,0,0,0,.835,0c.383-.148.582-.553.835-.879a2,2,0,0,1,2.083-.77,1.354,1.354,0,0,1,.8,1.888c-.427.662-1.4.676-2.2.691-.242,0-.546.065-.608.3a.582.582,0,0,0,.148.456l2.893,4.242c.589.861,1.725,3.634,3.023,2.687,2.188-1.6,2.8-4.227,4.827-5.764a20.841,20.841,0,0,0,2.6-2.325c1.533-1.62,2.531-3.652,4.357-5,.683-.51,1.486-.85,2.17-1.349a5.7,5.7,0,0,0,2.238-3.511C816.788,184.143,814.948,184.208,813.614,183.525Z" transform="translate(-558.559 -149.083)" fill="#c6651d"/>
      <path id="Path_2656" data-name="Path 2656" d="M760.356,359.627,683.5,348.233a2.947,2.947,0,0,1-2.466-3.345l7.123-48.092a2.951,2.951,0,0,1,3.33-2.488l76.857,11.383a2.947,2.947,0,0,1,2.466,3.345l-7.123,48.092A2.951,2.951,0,0,1,760.356,359.627Z" transform="translate(-493.528 -226.184)" fill="#283fff"/>
      <path id="Path_2657" data-name="Path 2657" d="M689.37,408.109,764.9,419.319a2.947,2.947,0,0,0,3.33-2.484l4.05-27.355C748.672,408.583,707.786,408.984,689.37,408.109Z" transform="translate(-498.871 -287.183)" fill="#283fff"/>
      <rect id="Rectangle_624" data-name="Rectangle 624" width="14.616" height="10.949" rx="2.66" transform="translate(196.635 86.902) rotate(8.42)" fill="#7db5db"/>
      <path id="Path_2658" data-name="Path 2658" d="M717.344,368.906,718,364.48c-4.024,2.857-10.718,3.554-14.778,3.7a1.927,1.927,0,0,0,1.309.814l10.595,1.569A1.964,1.964,0,0,0,717.344,368.906Z" transform="translate(-507.579 -271)" fill="#63a3c6"/>
      <rect id="Rectangle_625" data-name="Rectangle 625" width="16.897" height="5.402" transform="translate(194.489 101.263) rotate(8.42)" fill="#eaeaea"/>
      <rect id="Rectangle_626" data-name="Rectangle 626" width="16.897" height="5.402" transform="translate(213.095 103.996) rotate(8.42)" fill="#eaeaea"/>
      <rect id="Rectangle_627" data-name="Rectangle 627" width="16.897" height="5.402" transform="translate(231.643 106.726) rotate(8.42)" fill="#eaeaea"/>
      <rect id="Rectangle_628" data-name="Rectangle 628" width="16.897" height="5.402" transform="translate(250.285 109.459) rotate(8.42)" fill="#eaeaea"/>
      <path id="Path_2659" data-name="Path 2659" d="M857.181,340.918a5.062,5.062,0,0,1,2.752-3.793,4.943,4.943,0,0,0-2.687-1.3,5.062,5.062,0,0,0-1.483,9.991,4.976,4.976,0,0,0,2.951-.466A5.062,5.062,0,0,1,857.181,340.918Z" transform="translate(-602.561 -252.604)" fill="#ff5a3a"/>
      <path id="Path_2660" data-name="Path 2660" d="M875.044,343.159a5.062,5.062,0,0,1,2.755-3.793,4.994,4.994,0,0,0-5.641-.835,5.062,5.062,0,0,1-1.219,8.223,4.994,4.994,0,0,0,5.641.835A5.063,5.063,0,0,1,875.044,343.159Z" transform="translate(-614.786 -254.019)" fill="#7e8bff"/>
      <path id="Path_2661" data-name="Path 2661" d="M870.881,343.88a2.645,2.645,0,1,0-2.755,3.793,5.062,5.062,0,0,0,2.755-3.793Z" transform="translate(-611.972 -254.936)" fill="#f7f7f7"/>
      <path id="Path_2662" data-name="Path 2662" d="M890.709,340.367a5,5,0,0,0-2.951.47,5.062,5.062,0,0,1-1.219,8.223,4.979,4.979,0,0,0,2.687,1.3,5.062,5.062,0,0,0,1.483-9.994Z" transform="translate(-624.746 -255.499)" fill="#ffaf20"/>
      <path id="Path_2663" data-name="Path 2663" d="M886.477,346.18a2.644,2.644,0,1,0-2.752,3.793A5.062,5.062,0,0,0,886.477,346.18Z" transform="translate(-621.931 -256.413)" fill="#3b455a"/>
      <rect id="Rectangle_629" data-name="Rectangle 629" width="35.79" height="1.64" transform="translate(229.952 116.93) rotate(8.616)" fill="#ebecec"/>
      <rect id="Rectangle_630" data-name="Rectangle 630" width="27.297" height="1.638" transform="translate(238.129 120.467) rotate(8.42)" fill="#c5c6c7"/>
      <path id="Path_2664" data-name="Path 2664" d="M717.651,352.34l.058-.391-7.037-1.041.26-1.75-.387-.058-.26,1.75-7.033-1.041-.058.39,7.047,1.034L710,352.9l-7.037-1.041-.058.387,7.037,1.041h0l.21.018c.069,0,1.739.145,1.7,1.446a1,1,0,0,1-.362.665,2.131,2.131,0,0,1-1.7.3l-7.261-1.085-.058.387,7.069,1.049-.253,1.7-7.069-1.045-.058.387,7.073,1.049-.26,1.75.387.058.257-1.75,7,1.038.058-.391-6.982-1,.253-1.7a2.309,2.309,0,0,0,1.808-.412,1.371,1.371,0,0,0,.448-.759l4.958.723.058-.387-4.994-.73a1.975,1.975,0,0,0-1.848-1.627l.246-1.66Z" transform="translate(-506.903 -261.144)" fill="#ebecec"/>
      <path id="Path_2665" data-name="Path 2665" d="M843.209,436.238l.239-1.62L817.666,430.8q-2.314.524-4.636.969Z" transform="translate(-577.816 -313.583)" fill="#c5c6c7"/>
      <path id="Path_2666" data-name="Path 2666" d="M869.995,414.1l-7.557-1.1a90.244,90.244,0,0,1-9.926,3.822l-.022.166,16.713,2.473Z" transform="translate(-603.008 -302.159)" fill="#e5e5e5"/>
      <path id="Path_2667" data-name="Path 2667" d="M701.08,298.486l-1.24,8.364c.745-3.518,3.587-11,14.2-9.423L704.407,296A2.947,2.947,0,0,0,701.08,298.486Z" transform="translate(-505.418 -227.023)" fill="#7e8bff"/>
      <path id="Path_2668" data-name="Path 2668" d="M876.094,192.062c-.2.04-.394.083-.593.13a.932.932,0,0,0-.336.13.914.914,0,0,0-.221.275,14.317,14.317,0,0,0-1.446,3.616c-.137.474-.174.51.119.933s.723.918,1.085,1.356c.271.723.575,1.446.785,2.2.532,1.9-.362,6.487,2.065,7.069a3.7,3.7,0,0,0,1.421.155,3.1,3.1,0,0,0,1.085-.43c.26-.152.723-.322.792-.629a5.748,5.748,0,0,0-.311-1.464c-.21-.98-.416-1.963-.626-2.943s-.362-2.112.271-2.763a4.642,4.642,0,0,0,.427-.416,1.65,1.65,0,0,0,.235-.655A12.012,12.012,0,0,0,881.12,196c0-.81-.531-1.132-1.034-1.674s-.676-1.352-1.143-1.953a1.738,1.738,0,0,0-1.837-.5C876.763,191.936,876.427,191.993,876.094,192.062Z" transform="translate(-616.353 -159.801)" fill="#c9a98d"/>
      <path id="Path_2669" data-name="Path 2669" d="M855.079,248.919c-.051-2.108-.134-4.256-.08-6.462a66.287,66.287,0,0,0-2.191-18.441,18.285,18.285,0,0,0-7.825,1.052c.362,6.9.423,13.914-2.376,20.354-.116.257-.275.546-.553.589a.875.875,0,0,1-.7-.362c-1.833-1.963-3.359-4.281-5.619-5.738s-5.641-1.707-7.358.362a6.115,6.115,0,0,0-.926,4.91,18.266,18.266,0,0,0,3.254,7.192,35.352,35.352,0,0,0,8.678,8.733c2.311,1.627,4.831,2.987,6.888,4.925a4.52,4.52,0,0,0,1.938,1.331c1.446.318,2.694-.987,3.489-2.224C855.108,259.8,855.209,254.506,855.079,248.919Z" transform="translate(-586.938 -180.853)" fill="#bdbfc1"/>
      <path id="Path_2670" data-name="Path 2670" d="M881.516,127.3h-3.471V115.822a9.09,9.09,0,1,0-18.174,0v11.491H856.4V115.822a12.562,12.562,0,0,1,25.124,0Z" transform="translate(-605.504 -103.26)" fill="#3b455a"/>
      <path id="Path_2671" data-name="Path 2671" d="M762.729,51.47h33.061a1.345,1.345,0,0,1,1.345,1.345v21.5a1.349,1.349,0,0,1-1.349,1.349H762.725a1.345,1.345,0,0,1-1.345-1.345v-21.5A1.349,1.349,0,0,1,762.729,51.47Z" transform="translate(-515.807 -32.88)" fill="#ff9c88"/>
      <path id="Path_2672" data-name="Path 2672" d="M877.888,194.593V181.42c-10.891,9.224-26.6,12.688-35.5,13.95a1.338,1.338,0,0,0,1.085.56h33.064a1.349,1.349,0,0,0,1.349-1.338Z" transform="translate(-596.56 -153.158)" fill="#ef9384"/>
      <path id="Path_2673" data-name="Path 2673" d="M888.858,172.815a2.954,2.954,0,1,0-4.7,2.372l-.94,6.689h5.4l-.94-6.689a2.943,2.943,0,0,0,1.186-2.372Z" transform="translate(-622.453 -145.771)" fill="#3b455a"/>
      <path id="Path_2674" data-name="Path 2674" d="M844.8,158.866v4.628c.123-1.963,1.085-6.245,6.979-6.245h-5.366A1.62,1.62,0,0,0,844.8,158.866Z" transform="translate(-598.099 -137.727)" fill="#fff" opacity="0.2"/>
      <path id="Path_2675" data-name="Path 2675" d="M883.66,191.3s4-1.125,4.462-6.689l.94,6.689Z" transform="translate(-622.907 -155.194)" fill="#3e3d40"/>
      <path id="Path_2676" data-name="Path 2676" d="M344.131,127.3H340.66V115.822a9.09,9.09,0,1,0-18.179,0l0,11.491H319V115.822a12.562,12.562,0,1,1,25.124,0Z" transform="translate(-262.033 -103.26)" fill="#3b455a"/>
      <path id="Path_2677" data-name="Path 2677" d="M225.375,51.47h33.057a1.349,1.349,0,0,1,1.349,1.349v21.5a1.349,1.349,0,0,1-1.349,1.349H225.375a1.345,1.345,0,0,1-1.345-1.345v-21.5a1.349,1.349,0,0,1,1.345-1.349Z" transform="translate(-172.361 -32.88)" fill="#ff9c88"/>
      <path id="Path_2678" data-name="Path 2678" d="M340.509,194.593V181.42c-10.891,9.224-26.6,12.688-35.509,13.95a1.327,1.327,0,0,0,1.085.56h33.061a1.349,1.349,0,0,0,1.363-1.338Z" transform="translate(-253.09 -153.158)" fill="#ef9384"/>
      <path id="Path_2679" data-name="Path 2679" d="M351.5,172.815a2.954,2.954,0,1,0-4.7,2.372l-.94,6.689h5.395l-.94-6.689A2.943,2.943,0,0,0,351.5,172.815Z" transform="translate(-279.018 -145.771)" fill="#3b455a"/>
      <path id="Path_2680" data-name="Path 2680" d="M307.44,158.866v4.628c.123-1.963,1.067-6.245,6.979-6.245h-5.366a1.62,1.62,0,0,0-1.613,1.616Z" transform="translate(-254.638 -137.727)" fill="#fff" opacity="0.2"/>
      <path id="Path_2681" data-name="Path 2681" d="M346.3,191.3s4-1.135,4.455-6.689l.94,6.689Z" transform="translate(-279.471 -155.194)" fill="#3e3d40"/>
      <path id="Path_2682" data-name="Path 2682" d="M726.506,297.281a1.519,1.519,0,0,1-.669-1.5c.058-.34.235-.651.325-.983a.965.965,0,0,0-.17-.969c-.394-.362-1.179-.166-1.414-.644-.181-.362.145-.77.474-1,1.537-1.063,4.614-.723,4.784,1.587C729.948,295.169,728.22,298.355,726.506,297.281Z" transform="translate(-521.183 -224.204)" fill="#c9a98d"/>
      <path id="Path_2683" data-name="Path 2683" d="M256.593,675.2a18.623,18.623,0,0,1-3.374.362,57.934,57.934,0,0,1-1.479-11.737c2.17,1.479,3.338.025,4.147,3.616C256.148,668.564,255.942,673.5,256.593,675.2Z" transform="translate(-218.982 -463.402)" fill="#e5d1bd"/>
      <path id="Path_2684" data-name="Path 2684" d="M249.092,691.081c-1.4-.148-.94,3-.774,3.724a5.47,5.47,0,0,1,.253,1.313,3.565,3.565,0,0,1-.423,1.4l-1.3,2.806a4.224,4.224,0,0,0-.438,1.313,2.468,2.468,0,0,0,1.924,2.5c3.88.9,6.006-4.093,6.071-7.066,0-.456,0-.911-.033-1.367-.047-.944.155-3.07-.416-3.862-.669-.922-1.75.127-2.669-.058C250.434,691.616,249.66,691.139,249.092,691.081Z" transform="translate(-215.574 -480.802)" fill="#3b455a"/>
      <path id="Path_2685" data-name="Path 2685" d="M243.148,453.686c-1.085,9.557-2.7,19.045-2.585,28.743.152,11.98-1.374,24.071-.767,35.964a28.634,28.634,0,0,1-4.238.846c-1.642.2-4.278.391-5.279-1.211a10.6,10.6,0,0,1-.723-3.28c-.579-3-1.085-6.006-1.591-9.018-1.446-8.516-3.074-17.089-3.547-25.713-.5-9.072-1.085-18.156-1.765-27.181-.362-4.665-.542-9.34-.5-14.019,0-1.2.148-13.636.759-13.683a56.463,56.463,0,0,1,21.28,2.242,2.9,2.9,0,0,1,1.707,1.056,2.668,2.668,0,0,1,.25,1.768c-.5,5.836-1.685,11.484-2.307,17.328C243.611,449.56,243.383,451.6,243.148,453.686Z" transform="translate(-200.088 -310.891)" fill="#ffcf79"/>
      <path id="Path_2686" data-name="Path 2686" d="M293.44,673.916a18.3,18.3,0,0,0,3.374.362,57.935,57.935,0,0,0,1.479-11.737c-2.17,1.479-3.338.025-4.147,3.616C293.881,667.284,294.087,672.22,293.44,673.916Z" transform="translate(-245.603 -462.585)" fill="#e5d1bd"/>
      <path id="Path_2687" data-name="Path 2687" d="M296.922,689.132c.137,2.17,1.982,4.375,3.045,6.259a1.809,1.809,0,0,1,.271.723,1.757,1.757,0,0,1-.38,1.045,2.787,2.787,0,0,1-1.059,1.132,2.654,2.654,0,0,1-1.522.079q-1.28-.2-2.531-.513a1.737,1.737,0,0,1-.615-.264,1.808,1.808,0,0,1-.466-.6,6.516,6.516,0,0,1-1.251-3.229,20.065,20.065,0,0,0-.3-4.064c-.163-.64-.362-1.446.155-1.844.412-.3,1.219.029,1.689.076a6.442,6.442,0,0,1,2.368.362,1.048,1.048,0,0,1,.419.318.915.915,0,0,1,.174.517Z" transform="translate(-244.645 -478.669)" fill="#3b455a"/>
      <path id="Path_2688" data-name="Path 2688" d="M273.008,452.41c1.085,9.553,2.7,19.042,2.582,28.74-.148,11.98,1.374,24.071.767,35.964a28.725,28.725,0,0,0,4.238.846c1.642.2,4.278.391,5.279-1.211a10.476,10.476,0,0,0,.723-3.28c.579-2.994,1.085-6.006,1.595-9.018,1.425-8.516,3.07-17.089,3.544-25.713.5-9.072,1.085-18.156,1.768-27.181.362-4.661.539-9.34.5-14.019,0-1.2-.148-13.632-.756-13.683a56.481,56.481,0,0,0-21.283,2.242,2.887,2.887,0,0,0-1.7,1.056,2.647,2.647,0,0,0-.25,1.768c.5,5.836,1.681,11.484,2.307,17.328C272.545,448.284,272.773,450.316,273.008,452.41Z" transform="translate(-230.621 -310.074)" fill="#ffcf79"/>
      <path id="Path_2689" data-name="Path 2689" d="M247.152,241.63a1.522,1.522,0,0,0,.311.362,3.254,3.254,0,0,0,1.88.723,8.205,8.205,0,0,0,2.64-.362c1.168-.3,1.085-.987,1.186-2.072.058-.593.08-1.186.087-1.779,0-.329-.2-1.479,0-1.721.13-.163.723-.145.947-.293a2.773,2.773,0,0,0,.908-1.02,7.807,7.807,0,0,0,.68-2.018l.857-3.616a18.832,18.832,0,0,0,.626-3.739c.058-1.906-.416-4.56-1.931-5.858a8.573,8.573,0,0,0-5.062-1.62,10.345,10.345,0,0,0-6.617,1.775,5.5,5.5,0,0,0-1.92,2.151,8.972,8.972,0,0,0-.311,4.7q.249,2.191.5,4.386c.192,1.685.521,3.616,1.844,4.451.7.445,1.587.492,2.2,1.085.77.723.8,1.909.89,2.893A3.384,3.384,0,0,0,247.152,241.63Z" transform="translate(-212.3 -177.356)" fill="#eacdb0"/>
      <path id="Path_2690" data-name="Path 2690" d="M264.139,213.869a2.209,2.209,0,0,1,.224.416c.318.763.192,1.652.506,2.415.492,1.211,1.982,1.862,2.282,3.135.242,1.041-.412,2.09-.409,3.157,0,1.172.824,2.224.781,3.381a7.658,7.658,0,0,1-1.132,3.287c.17-.26,1.848-.278,2.264-.568a1.784,1.784,0,0,0,.853-1.414,14.112,14.112,0,0,1,.221-2.09A21.731,21.731,0,0,0,271,223.079c.289-1.28-.463-2.564-.5-3.876-.043-1.985,1.551-3.978.814-5.786-.434-1.085-1.551-1.721-2.217-2.679a14.164,14.164,0,0,1-1.085-2.408,3.008,3.008,0,0,0-1.83-1.808c-.481-.108-.984,0-1.472-.08a17.8,17.8,0,0,1-2.39-.857c-1.175-.315-3.131.973-3.739,1.989s-.217,1.808.517,2.622C260.306,211.547,263.105,212.307,264.139,213.869Z" transform="translate(-223.158 -168.97)" fill="#cbb081"/>
      <path id="Path_2691" data-name="Path 2691" d="M224.287,206.466a22.294,22.294,0,0,0-2.079,1.595c-1.153,1.229-1.269,3.084-1.211,4.769.054,1.5-.517,2.871-.257,4.422a3.826,3.826,0,0,0,1.58,2.636c1.11.723,2.784.723,3.334,1.92.6,1.3-.673,3.059.235,4.158.5.611,1.41.647,2.1,1.034a5.762,5.762,0,0,1,1.692,1.985,2.632,2.632,0,0,0,2.1,1.4,7.272,7.272,0,0,0-.723-3.58c-.362-.687-1.446-1.938-.723-2.755.434-.669,1.537-.947,1.519-1.743a1.858,1.858,0,0,0-.517-.976,4.581,4.581,0,0,1-.6-4.137,5.948,5.948,0,0,1,2.763-3.233c1.479-.832,1.208-1.19,1.562-2.679.322-1.37,1.067-1.732,2.245-2.3a2.566,2.566,0,0,0,1.728-1.848,2.971,2.971,0,0,0,.072-2.481,5.084,5.084,0,0,0-1.634-1.486c-1.291-.861-2.737-1.761-4.274-1.555-.857.116-1.638.571-2.5.673-.568.069-1.146-.022-1.721,0a4.567,4.567,0,0,0-2.748,1.02c-.763.64-.7,1.251-1.085,2.112A2.983,2.983,0,0,1,224.287,206.466Z" transform="translate(-199.147 -166.442)" fill="#cbb081"/>
      <path id="Path_2692" data-name="Path 2692" d="M211.714,188.317c.094-.937-.08-2.144-.987-2.4-.5-.141-1.031.08-1.54,0-1.085-.152-1.54-1.446-2.17-2.343a.817.817,0,0,0-.362-.329,1.313,1.313,0,0,0-.694.061c-1.085.2-1.945-.81-2.98-1.128a2.531,2.531,0,0,0-3.1,1.786c-.123.539-.058,1.085-.17,1.642-.456,2.17-3.54,3.294-3.482,5.522.043,1.508,1.6,2.853,1.117,4.281-.311.911-1.414,1.591-1.226,2.531a1.331,1.331,0,0,0,1.421.937,2.665,2.665,0,0,0,1.605-.861c.7-.691,1.2-1.555,1.866-2.282a3.354,3.354,0,0,1,2.549-1.28c.984.061,1.851.723,2.777.521.745-.17,1.258-.875,1.985-1.11a6.433,6.433,0,0,1,2.123,0c.712,0,1.562-.427,1.537-1.139a1.887,1.887,0,0,1-.022-.513c.123-.47.908-.492,1.031-.962-.409-.546-.918-.307-1.229-1.038A4.184,4.184,0,0,1,211.714,188.317Z" transform="translate(-183.461 -153.585)" fill="#cbb081"/>
      <path id="Path_2693" data-name="Path 2693" d="M324.641,215.688l-.553.123a.89.89,0,0,0-.318.119.85.85,0,0,0-.21.257,13.7,13.7,0,0,0-1.341,3.4c-.13.445-.163.477.112.875s.665.861,1.009,1.273c.257.687.542,1.363.741,2.068.5,1.786-.362,6.089,1.938,6.639a3.511,3.511,0,0,0,1.334.145,2.892,2.892,0,0,0,1.005-.4c.246-.141.673-.3.745-.589a5.087,5.087,0,0,0-.293-1.378l-.586-2.763c-.192-.9-.34-1.982.253-2.593a3.714,3.714,0,0,0,.4-.391,1.648,1.648,0,0,0,.224-.615,11.672,11.672,0,0,0,.257-2.466c0-.759-.5-1.063-.973-1.569s-.633-1.269-1.085-1.833a1.639,1.639,0,0,0-1.725-.466C325.27,215.569,324.97,215.623,324.641,215.688Z" transform="translate(-264.02 -175.33)" fill="#eacdb0"/>
      <path id="Path_2694" data-name="Path 2694" d="M304.88,269.1c-.047-1.982-.123-4-.072-6.068a62.172,62.172,0,0,0-2.057-17.32,17.1,17.1,0,0,0-7.348.987c.325,6.48.394,13.064-2.231,19.107-.108.246-.26.513-.521.553A.817.817,0,0,1,292,266c-1.721-1.844-3.153-4.025-5.276-5.391s-5.294-1.6-6.91.336a5.7,5.7,0,0,0-.868,4.61,17.2,17.2,0,0,0,3.048,6.751,33.183,33.183,0,0,0,8.147,8.2,56.369,56.369,0,0,1,6.465,4.625,4.234,4.234,0,0,0,1.808,1.248c1.349.3,2.531-.922,3.272-2.086C304.916,279.3,305,274.342,304.88,269.1Z" transform="translate(-236.35 -194.793)" fill="#7e8bff"/>
      <path id="Path_2695" data-name="Path 2695" d="M221.788,285.84l-.34.148a19.58,19.58,0,0,0-4.961,3.667c-2.285,2.094-3.417,3.023-4.169,5.963a70.344,70.344,0,0,0-1.421,8.414c-.723,5.684-1.027,11.412-1.287,17.132-.141,3.168-.636,33.3-3.4,33.531l54.525-4.473c-.792-4.8-2.893-9.271-4.78-13.741a185.376,185.376,0,0,1-11.1-36.08c-.8-4-1.5-10.682-4.82-13.538-3.616-3.106-11.354-2.69-15.679-1.768a15.1,15.1,0,0,0-2.571.745Z" transform="translate(-189.915 -219.871)" fill="#7e8bff"/>
      <rect id="Rectangle_631" data-name="Rectangle 631" width="91.256" height="45.04" transform="translate(0 127.251) rotate(-8.07)" fill="#283fff"/>
      <path id="Path_2696" data-name="Path 2696" d="M259.2,470.881l-86.526,12.294-5.594-41.3.315-.043,86.244-12.164Zm-85.984,11.571,85.268-12.1-5.373-39.967L167.8,442.42Z" transform="translate(-164.934 -313.195)" fill="#fff"/>
      <path id="Path_2697" data-name="Path 2697" d="M372.45,432.3s9.893.683,12.038,12.421l2.7,20.734a5.693,5.693,0,0,1-3.377,5.616l-3.667,1.323,9.806-1.146-5.478-40.585Z" transform="translate(-296.189 -313.733)" fill="#fff"/>
      <path id="Path_2698" data-name="Path 2698" d="M179.469,459.85s-9.311,3.406-8.111,15.281l3.16,20.665a5.7,5.7,0,0,0,4.806,4.455l3.891.253-9.738,1.624-6.028-40.5Z" transform="translate(-165.171 -332.503)" fill="#fff"/>
      <path id="Path_2699" data-name="Path 2699" d="M220.384,501.277a4.323,4.323,0,1,1-4.925-3.959A4.463,4.463,0,0,1,220.384,501.277Z" transform="translate(-193.48 -356.296)" fill="#fff"/>
      <rect id="Rectangle_632" data-name="Rectangle 632" width="1.244" height="3.576" transform="translate(16.626 155.092) rotate(-8.07)" fill="#fff"/>
      <rect id="Rectangle_633" data-name="Rectangle 633" width="1.244" height="3.576" transform="translate(18.634 154.809) rotate(-8.07)" fill="#fff"/>
      <rect id="Rectangle_634" data-name="Rectangle 634" width="1.244" height="3.576" transform="translate(20.632 154.53) rotate(-8.07)" fill="#fff"/>
      <rect id="Rectangle_635" data-name="Rectangle 635" width="1.244" height="3.576" transform="translate(22.634 154.247) rotate(-8.07)" fill="#fff"/>
      <rect id="Rectangle_636" data-name="Rectangle 636" width="1.244" height="3.576" transform="translate(24.635 153.965) rotate(-8.07)" fill="#fff"/>
      <rect id="Rectangle_637" data-name="Rectangle 637" width="1.244" height="3.576" transform="translate(26.633 153.686) rotate(-8.07)" fill="#fff"/>
      <rect id="Rectangle_638" data-name="Rectangle 638" width="1.244" height="3.576" transform="translate(28.638 153.403) rotate(-8.07)" fill="#fff"/>
      <rect id="Rectangle_639" data-name="Rectangle 639" width="1.244" height="3.576" transform="translate(30.667 153.106) rotate(-8.08)" fill="#fff"/>
      <rect id="Rectangle_640" data-name="Rectangle 640" width="1.244" height="1.117" transform="translate(66.821 131.75) rotate(-8.07)" fill="#fff"/>
      <rect id="Rectangle_641" data-name="Rectangle 641" width="1.244" height="1.117" transform="translate(68.819 131.471) rotate(-8.07)" fill="#fff"/>
      <rect id="Rectangle_642" data-name="Rectangle 642" width="1.244" height="1.117" transform="translate(70.817 131.188) rotate(-8.07)" fill="#fff"/>
      <rect id="Rectangle_643" data-name="Rectangle 643" width="1.244" height="1.117" transform="translate(72.74 130.935) rotate(-8.049)" fill="#fff"/>
      <rect id="Rectangle_644" data-name="Rectangle 644" width="1.244" height="1.117" transform="translate(74.82 130.623) rotate(-8.07)" fill="#fff"/>
      <rect id="Rectangle_645" data-name="Rectangle 645" width="1.244" height="1.117" transform="translate(76.814 130.344) rotate(-8.07)" fill="#fff"/>
      <rect id="Rectangle_646" data-name="Rectangle 646" width="1.244" height="1.117" transform="translate(78.808 130.065) rotate(-8.07)" fill="#fff"/>
      <rect id="Rectangle_647" data-name="Rectangle 647" width="1.244" height="1.117" transform="translate(80.809 129.783) rotate(-8.07)" fill="#fff"/>
      <rect id="Rectangle_648" data-name="Rectangle 648" width="28.935" height="2.227" transform="translate(36.622 162.873) rotate(-8.07)" fill="#fff"/>
      <path id="Path_2700" data-name="Path 2700" d="M272.9,487.732c-3.724.528-7.518-1.139-10.681-4.7a28.441,28.441,0,0,1-4.093-28.87c2.05-4.289,5.229-6.943,8.953-7.471s7.514,1.135,10.678,4.7a28.431,28.431,0,0,1,4.1,28.87C279.787,484.55,276.616,487.2,272.9,487.732Zm-5.688-40.086c-7.087,1.005-11.611,10.6-10.078,21.392s8.541,18.756,15.632,17.751,11.607-10.606,10.078-21.4S274.294,446.64,267.207,447.645Z" transform="translate(-221.623 -323.973)" fill="#fff"/>
      <ellipse id="Ellipse_18" data-name="Ellipse 18" cx="13.462" cy="20.242" rx="13.462" ry="20.242" transform="translate(32.131 125.158) rotate(-8.07)" fill="#283fff"/>
      <path id="Path_2701" data-name="Path 2701" d="M199.738,443.623a1.9,1.9,0,0,0,.213-.235c.607-.785.192-1.681.517-2.5.145-.362,1.182-.922.7-1.363-.177-.163-.723-.759-1.316-1.327-.293-.615-.607-1.215-.839-1.855-.582-1.62.094-5.724-2.253-6.006a3.923,3.923,0,0,0-1.363,0,3.345,3.345,0,0,0-1.005.481c-.246.155-.673.362-.723.626a4.532,4.532,0,0,0,.362,1.258c.235.839.474,1.681.723,2.531a2.549,2.549,0,0,1-.148,2.452,3.751,3.751,0,0,0-.391.4,1.446,1.446,0,0,0-.2.6,10.077,10.077,0,0,0-.159,2.332c.09,1.389,1.971,2.484,2.98,3.175a2,2,0,0,0,.821.387,2.169,2.169,0,0,0,1.385-.441,4.511,4.511,0,0,0,.7-.514Z" transform="translate(-181.906 -313.297)" fill="#e5d1bd"/>
      <path id="Path_2702" data-name="Path 2702" d="M187.908,329.186a12.3,12.3,0,0,0-1.273,3.027,10.9,10.9,0,0,0-.181,2.614,52.5,52.5,0,0,0,2.82,15.979,19.446,19.446,0,0,0,7.431-1.663,84.2,84.2,0,0,1-.278-13.379,10.267,10.267,0,0,1,.419-2.7,17.878,17.878,0,0,1,2.123-3.3c3.081-4.95,5.72-7.894,9.076-12.37,1.844-2.459,5.268-6.671,7.022-9.2,1.66-2.39-8.9-11.228-11.748-9.192C196.044,304.2,192.1,321.259,187.908,329.186Z" transform="translate(-177.294 -228.956)" fill="#7e8bff"/>
      <path id="Path_2703" data-name="Path 2703" d="M589.355,701.165a2.622,2.622,0,0,0-.745-1.215c-.192-.163-.409-.293-.593-.466-.868-.806-.77-1.58-2.05-1.407-1.446.2-2.893.47-4.339.7a.255.255,0,0,0-.253.293c-.061.5-.119,1.005-.181,1.508-.163,1.36-1.378,1.754-2.376,2.293l-.792.419c-1.128.6-4.556,1.935-2.867,3.7.7.723,1.913.723,2.842.828a10.573,10.573,0,0,0,2.69-.25,27.481,27.481,0,0,0,8.042-2.752c.922-.492.864-1.884.781-2.871A3.618,3.618,0,0,0,589.355,701.165Z" transform="translate(-425.443 -485.256)" fill="#3b455a"/>
      <path id="Path_2704" data-name="Path 2704" d="M507.106,699.426a1.718,1.718,0,0,0-.239-.6c-.145-.221-.362-.4-.488-.629-.362-.586-.224-1.414-.662-1.938-.615-.723-1.66-.4-2.455-.362-1.219.08-2.462,0-3.685.029a.29.29,0,0,0-.166.033.336.336,0,0,0-.123.221l-.391,1.446c-.362,1.32-1.609,1.529-2.672,1.909l-.842.3a8.182,8.182,0,0,0-3.008,1.3c-1.663,1.627,1.251,2.893,2.343,3.175a11.434,11.434,0,0,0,2.7.163,27.4,27.4,0,0,0,8.346-1.508,1.868,1.868,0,0,0,.756-.4,1.707,1.707,0,0,0,.362-.723A5.424,5.424,0,0,0,507.106,699.426Z" transform="translate(-372.51 -483.81)" fill="#3b455a"/>
      <path id="Path_2705" data-name="Path 2705" d="M436.963,354.8l-2,18.5-2.824,34.135-2.8,33.813-8.942-.477-3.638-36.9-1.07-31.3L419.1,352.6Z" transform="translate(-294.846 -227.401)" fill="#8c9193"/>
      <path id="Path_2706" data-name="Path 2706" d="M479.988,359.29l2.9,11.35-3.218,32.345,3.779,43.037-8.494.716-11.021-41.164-8.693-45.04Z" transform="translate(-320.13 -231.672)" fill="#8c9193"/>
      <path id="Path_2707" data-name="Path 2707" d="M529.048,332.9c-.072-2.112-.2-3.876-.213-4.509a163.226,163.226,0,0,0-1.483-17.237c-.7-5.207-1.591-10.428-2.553-15.675-1.511-8.23-2.893-15.476-5.916-23.3a29.2,29.2,0,0,0-4.035-7.923,14.771,14.771,0,0,0-6.827-4.455c-1.2-.4-2.531-.741-3.742-1.012-1.356-.307-2.039.3-3.338.861-.875.362-1.9.474-2.8.792-5.377,1.884-8.447,5.681-10.266,11.068l-4.393,13.017c-1.2,3.562-2.4,7.12-3.446,10.732a184.344,184.344,0,0,0-5.525,28.96c-.6,4.9-1.085,9.806-1.551,14.717-.3,3.135,1.3,1.808,3.182.857,3.254-1.652,6.473-3.4,10.125-3.978a30.524,30.524,0,0,1,5.363-.278,97.49,97.49,0,0,1,32.073,5.525,5.626,5.626,0,0,1,1.725.875c.662.553,1.558,1.808,2.531,1.157.6-.409.741-1.808.85-2.437A40.606,40.606,0,0,0,529.048,332.9Z" transform="translate(-360.437 -203.397)" fill="#ff5a3a"/>
      <path id="Path_2708" data-name="Path 2708" d="M526.118,195.943a13.317,13.317,0,0,0-1.276,6,1.914,1.914,0,0,1-.419,1.53c-.419.347,0,1.106-.362.662a10.683,10.683,0,0,1-1.746-2.567,22.105,22.105,0,0,1-.2-4.119,5.994,5.994,0,0,1,.951-3.4,6.571,6.571,0,0,1,1.591-1.37,8.465,8.465,0,0,1,2.683-1.4c1.7-.412,2.777.155,1.331,1.446a10.551,10.551,0,0,0-2.549,3.211Z" transform="translate(-391.814 -159.372)" fill="#3b455a"/>
      <path id="Path_2709" data-name="Path 2709" d="M540.781,218.91l-7.029,1.041a44.19,44.19,0,0,1-.947-6.245c-2.068-.253-4.516-.8-5.326-2.947a7.19,7.19,0,0,1-.362-2.17q-.264-4.538-.528-9.08a8.972,8.972,0,0,1,.188-3.113,6.24,6.24,0,0,1,3.562-3.558,13.221,13.221,0,0,1,12.186.119,6.689,6.689,0,0,1,2.564,2.361c.94,1.62.937,3.677.9,5.6l-.1,5.334c-.04,2.043-.221,4.4-1.721,5.561-.8.615-1.862.777-2.531,1.551C540.448,214.766,541.171,217.041,540.781,218.91Z" transform="translate(-394.671 -159.536)" fill="#c98b6b"/>
      <path id="Path_2710" data-name="Path 2710" d="M526.336,235.878a7.428,7.428,0,0,0,3.012,4.6c1.768,1.11,3.92,1.085,5.952,1.023l3.334-.094c2.81-.08,5.587-.6,6.87-3.677a9.285,9.285,0,0,0,.55-4.607,2.959,2.959,0,0,0-.362-1.226,1.016,1.016,0,0,0-1-.55c-.5.1-.767.658-1.067,1.085a2.449,2.449,0,0,1-2.893,1.085,3.9,3.9,0,0,1-.839-.55l-.325-.253a7.076,7.076,0,0,0-3.714-1.24c-1.128-.09-2.8-.423-3.583.589l-1.367,1.772a2.7,2.7,0,0,1-.629.651,1.768,1.768,0,0,1-.861.257,1.85,1.85,0,0,1-1.913-1.02,3.883,3.883,0,0,1-.163-1.085,1.7,1.7,0,0,0-.336-.994c-.882-.991-1.041.665-1.045,1.229A11.8,11.8,0,0,0,526.336,235.878Zm7.677.123a3.083,3.083,0,0,0,2.824.166c.5-.184.756.669.26.853a3.837,3.837,0,0,1-3.461-.228c-.477-.282-.1-1.078.358-.792Z" transform="translate(-394.299 -185.511)" fill="#3b455a"/>
      <path id="Path_2711" data-name="Path 2711" d="M520.484,181.913a16.605,16.605,0,0,1-.546-2.213,4.3,4.3,0,0,0,2.169.076c-.022-.438-.04-.871-.061-1.305,0-.362,4.788-.868,5.178-.922,3.649-.5,6.982-.965,10.4.861a10.078,10.078,0,0,1,5.446,7.333,15.767,15.767,0,0,1-1.906,10.074c-.033-.846.362-2.864.108-3.656a7.23,7.23,0,0,0-.886-2.256,9.4,9.4,0,0,0-3.442-3.319,17.939,17.939,0,0,0-7.261-2.072,19.488,19.488,0,0,0-7.326.362c-1.085.362-1.237.64-1.949-.438A21.79,21.79,0,0,1,519.323,182Z" transform="translate(-390.059 -150.4)" fill="#3b455a"/>
      <rect id="Rectangle_649" data-name="Rectangle 649" width="85.495" height="115.164" transform="translate(99.801 98.405)" fill="#b5b6ba"/>
      <path id="Path_2712" data-name="Path 2712" d="M446.688,278.5,363.25,404.324h83.438Z" transform="translate(-261.394 -180.095)" fill="#2b2a2a" opacity="0.1"/>
      <rect id="Rectangle_650" data-name="Rectangle 650" width="91.827" height="22.679" transform="translate(96.803 99.558)" fill="#f6f3f1"/>
      <rect id="Rectangle_651" data-name="Rectangle 651" width="44.639" height="1.674" transform="translate(105.929 110.061)" fill="#1f1f1f"/>
      <rect id="Rectangle_652" data-name="Rectangle 652" width="4.314" height="3.931" transform="translate(164.203 108.929)" fill="#ff5a3a"/>
      <rect id="Rectangle_653" data-name="Rectangle 653" width="4.314" height="3.931" transform="translate(173.407 108.929)" fill="#283fff"/>
      <rect id="Rectangle_654" data-name="Rectangle 654" width="91.827" height="22.679" transform="translate(96.803 125.055)" fill="#ededed"/>
      <rect id="Rectangle_655" data-name="Rectangle 655" width="44.639" height="1.674" transform="translate(105.929 135.585)" fill="#1f1f1f"/>
      <rect id="Rectangle_656" data-name="Rectangle 656" width="4.314" height="3.931" transform="translate(164.203 134.454)" fill="#ff5a3a"/>
      <rect id="Rectangle_657" data-name="Rectangle 657" width="4.314" height="3.931" transform="translate(173.407 134.454)" fill="#283fff"/>
      <rect id="Rectangle_658" data-name="Rectangle 658" width="91.827" height="22.679" transform="translate(96.803 150.556)" fill="#f6f3f1"/>
      <rect id="Rectangle_659" data-name="Rectangle 659" width="44.639" height="1.674" transform="translate(105.929 161.109)" fill="#1f1f1f"/>
      <rect id="Rectangle_660" data-name="Rectangle 660" width="4.314" height="3.931" transform="translate(164.203 159.976)" fill="#ff5a3a"/>
      <rect id="Rectangle_661" data-name="Rectangle 661" width="4.314" height="3.931" transform="translate(173.407 159.976)" fill="#283fff"/>
      <rect id="Rectangle_662" data-name="Rectangle 662" width="91.827" height="22.679" transform="translate(96.803 175.765)" fill="#f6f3f1"/>
      <rect id="Rectangle_663" data-name="Rectangle 663" width="44.639" height="1.674" transform="translate(105.929 186.265)" fill="#1f1f1f"/>
      <rect id="Rectangle_664" data-name="Rectangle 664" width="4.314" height="3.931" transform="translate(164.203 185.137)" fill="#ff5a3a"/>
      <rect id="Rectangle_665" data-name="Rectangle 665" width="4.314" height="3.931" transform="translate(173.407 185.137)" fill="#283fff"/>
      <rect id="Rectangle_666" data-name="Rectangle 666" width="91.827" height="22.679" transform="translate(96.803 201.55)" fill="#f6f3f1"/>
      <rect id="Rectangle_667" data-name="Rectangle 667" width="44.639" height="1.674" transform="translate(105.929 212.054)" fill="#1f1f1f"/>
      <rect id="Rectangle_668" data-name="Rectangle 668" width="4.314" height="3.931" transform="translate(164.203 210.923)" fill="#ff5a3a"/>
      <rect id="Rectangle_669" data-name="Rectangle 669" width="4.314" height="3.931" transform="translate(173.407 210.923)" fill="#283fff"/>
      <path id="Path_2713" data-name="Path 2713" d="M529.936,379.573a1.447,1.447,0,0,0,.68-.036,1.972,1.972,0,0,0,.55-.416,3.991,3.991,0,0,1,3.923-.553,8.389,8.389,0,0,1,3.135,1.942c.81.853.832,2.5.955,3.667a1.888,1.888,0,0,1-.058.911,2,2,0,0,1-.34.492c-.2.235-.4.474-.6.723-1.085,1.276-3.117.821-4.625.843-.662,0-1.475-.072-1.739-.68-.217-.488,0-1.182-.416-1.5a1.085,1.085,0,0,0-.723-.141L522.9,385c-.043-1.446-.835-5.341.5-5.847a17.987,17.987,0,0,1,2.893.239A35.95,35.95,0,0,1,529.936,379.573Z" transform="translate(-392.166 -279.888)" fill="#c98b6b"/>
      <path id="Path_2714" data-name="Path 2714" d="M461.421,303.432c-1.79,3.272-3.938,6.928-4.592,10.653-.387,2.22,1.056,4.339,2.857,5.5,2.264,1.446,4.7,1.063,7.275.955,1.569-.065,18.185-.958,18.181-1.692v-9.485q-6.292-1.237-12.678-1.848c3.178-4.751,21.208-32.927,12.819-36.123C477.291,268.35,464.556,297.7,461.421,303.432Z" transform="translate(-350.085 -211.236)" fill="#ff5a3a"/>
    </g>
  </g>
</svg>
