<svg xmlns="http://www.w3.org/2000/svg" width="138.654" height="93" viewBox="0 0 138.654 93">
  <g id="Garage_icon" data-name="Garage icon" transform="translate(0 0)">
    <g id="garage" transform="translate(0.98 25.48)">
      <g id="Object" transform="translate(0 0)">
        <path id="Path_2906" data-name="Path 2906" d="M942.741,528.837l-.4-.547A4.8,4.8,0,0,0,942.741,528.837Z" transform="translate(-805.067 -497.616)" fill="#dbdbdb"/>
        <path id="Path_2909" data-name="Path 2909" d="M292.9,398.98l-.018,13.9L276,412.856c.03-.32.044-.643.044-.968a11.049,11.049,0,1,0-22.1-.028c0,.327.013.648.042.966l-86.781-.114.012-9.771a17.026,17.026,0,0,1,9.529-15.278l16.589-5.219h.823l8.241-18.253a14.2,14.2,0,0,1,12.873-8.571l49.5.064c5.209,0,6.9,6.624,8.78,10.492q3.2,6.592,6.409,13.188.607,1.243,1.215,2.5h.214l7.082,6.751A14.286,14.286,0,0,1,292.9,398.98Z" transform="translate(-167.21 -355.62)" fill="#283fff"/>
        <path id="Path_2910" data-name="Path 2910" d="M579.18,402.3l33.136.043-7.5-18.543a2.379,2.379,0,0,0-2.189-1.524l-23.419-.03Z" transform="translate(-506.292 -377.519)" fill="#d7e8f4"/>
        <path id="Path_2911" data-name="Path 2911" d="M387.086,382.085,368.1,382.06a10.392,10.392,0,0,0-9.415,6.251L352.45,402.1l34.613.044Z" transform="translate(-319.678 -377.363)" fill="#d7e8f4"/>
        <g id="Group_220" data-name="Group 220" transform="translate(38.849 4.74)" opacity="0.2">
          <path id="Path_2912" data-name="Path 2912" d="M677.494,388.9l1.32.711-2.052-5.075a2.384,2.384,0,0,0-2.189-1.524L666.46,383C670.125,384.995,673.82,386.933,677.494,388.9Z" transform="translate(-616.854 -382.876)" fill="#f4f4f2"/>
          <path id="Path_2913" data-name="Path 2913" d="M611.348,392.753c-6.079-3.3-12.464-7.042-18.486-10.453l-7.612.112c5.212,4.482,11.8,8.465,17.617,12.053,3.5,2.157,7.07,4.2,10.728,6.068,1.2.613,2.455,1.169,3.713,1.732l-3.247-8.028Q612.707,393.49,611.348,392.753Z" transform="translate(-550.071 -382.3)" fill="#f4f4f2"/>
          <path id="Path_2914" data-name="Path 2914" d="M409.69,403.189c-2.556-1.656-5.205-3.183-7.87-4.658-2.7-1.492-5.434-2.99-8.264-4.223-.933-.409-1.876-.787-2.816-1.169a10.815,10.815,0,0,0-3.461,4.283l-.06.133c2.86,2.006,5.742,3.985,8.584,6a121.338,121.338,0,0,0,13.384,7.683l6.466.009v-3.635C413.67,406.14,411.771,404.54,409.69,403.189Z" transform="translate(-387.22 -391.214)" fill="#f4f4f2"/>
        </g>
        <path id="Path_2915" data-name="Path 2915" d="M345.726,620.311a8.938,8.938,0,0,0,.178-1.739c.009-5.836-5.566-10.575-12.449-10.584a13.979,13.979,0,0,0-7.214,1.942,23.663,23.663,0,0,1,11.03,5.807,19.154,19.154,0,0,1,3.693,4.539Z" transform="translate(-298.091 -563.156)" opacity="0.1"/>
        <path id="Path_2916" data-name="Path 2916" d="M715.4,620.782a9.384,9.384,0,0,0,.167-1.739c0-5.837-5.436-10.575-12.156-10.584a13.394,13.394,0,0,0-7.042,1.942,22.938,22.938,0,0,1,10.769,5.807,19.1,19.1,0,0,1,3.6,4.539Z" transform="translate(-602.704 -563.542)" opacity="0.1"/>
        <circle id="Ellipse_20" data-name="Ellipse 20" cx="11.087" cy="11.087" r="11.087" transform="matrix(0.044, -0.999, 0.999, 0.044, 21.221, 66.502)" fill="#3b455a"/>
        <circle id="Ellipse_22" data-name="Ellipse 22" cx="11.087" cy="11.087" r="11.087" transform="matrix(0.044, -0.999, 0.999, 0.044, 86.262, 66.502)" fill="#3b455a"/>
        <circle id="Ellipse_21" data-name="Ellipse 21" cx="6.292" cy="6.292" r="6.292" transform="matrix(0.665, -0.747, 0.747, 0.665, 23.9, 56.43)" fill="#f4f4f2"/>
        <circle id="Ellipse_23" data-name="Ellipse 23" cx="6.292" cy="6.292" r="6.292" transform="matrix(0.665, -0.747, 0.747, 0.665, 88.951, 56.43)" fill="#f4f4f2"/>
        <path id="Path_2917" data-name="Path 2917" d="M338.746,688.736a5.126,5.126,0,0,0,3.265-1.366,3.626,3.626,0,0,1-2.436,2.292,5.755,5.755,0,0,1-1.167.178,5.89,5.89,0,0,1-1.243-.021,3.7,3.7,0,0,1-2.665-1.855c.178.32,1.41.545,1.716.6A10.028,10.028,0,0,0,338.746,688.736Z" transform="translate(-304.879 -628.436)" opacity="0.1"/>
        <path id="Path_2919" data-name="Path 2919" d="M338.746,688.736a5.126,5.126,0,0,0,3.265-1.366,3.626,3.626,0,0,1-2.436,2.292,5.755,5.755,0,0,1-1.167.178,5.89,5.89,0,0,1-1.243-.021,3.7,3.7,0,0,1-2.665-1.855c.178.32,1.41.545,1.716.6A10.028,10.028,0,0,0,338.746,688.736Z" transform="translate(-239.809 -628.436)" opacity="0.1"/>
        <rect id="Rectangle_707" data-name="Rectangle 707" width="6.028" height="2.592" rx="1.296" transform="translate(58.465 30.428) rotate(0.07)" fill="#305399"/>
      </g>
    </g>
    <g id="Sign" transform="translate(12.241)">
      <circle id="Ellipse_24" data-name="Ellipse 24" cx="10.659" cy="10.659" r="10.659" transform="translate(0 0)" fill="#283fff"/>
      <circle id="Ellipse_25" data-name="Ellipse 25" cx="10.659" cy="10.659" r="10.659" transform="translate(1.066 0.533)" fill="#283fff" opacity="0.8"/>
      <path id="Path_2937" data-name="Path 2937" d="M-13.378-35.853v3.7h-2.164v-10.5h4.1a4.741,4.741,0,0,1,2.081.433,3.19,3.19,0,0,1,1.382,1.23A3.43,3.43,0,0,1-7.5-39.179a3.016,3.016,0,0,1-1.057,2.435,4.4,4.4,0,0,1-2.926.891Zm0-1.753h1.934a1.9,1.9,0,0,0,1.309-.4,1.469,1.469,0,0,0,.451-1.154,1.733,1.733,0,0,0-.455-1.248,1.7,1.7,0,0,0-1.255-.491h-1.984Z" transform="translate(22.238 48.121)" fill="#fff"/>
    </g>
    <g id="person" transform="translate(0 9.771)">
      <g id="Group_223" data-name="Group 223" transform="translate(16.166 16.91)">
        <g id="Group_222" data-name="Group 222" transform="translate(11.11 18.307)">
          <g id="Group_221" data-name="Group 221">
            <path id="Path_2920" data-name="Path 2920" d="M301.363,469.655l-.054-.442c0-.052-1.763-.312-1.935-.395a11.613,11.613,0,0,1-2.491-2.269c-.228-.222-.468-.447-.713-.675q-.694,1.147-1.417,2.276l.023.015c.959.582,2.187.924,3.076,1.579a22.518,22.518,0,0,1,2.181,2.44l1.647-.547.344-1.454-1.3-.236.194-.244Z" transform="translate(-294.752 -465.874)" fill="#ebceb1"/>
          </g>
        </g>
        <path id="Path_2921" data-name="Path 2921" d="M232.532,367.048l4.325,12.484,9.373,5.926,1.216-2.066-7.418-7.5c-.923-.933-.746-5.675-.915-6.965-.47-3.577-.923-6.66-5.508-6.025C231.488,363.195,232.368,365.457,232.532,367.048Z" transform="translate(-232.212 -362.818)" fill="#ffaf20"/>
      </g>
      <g id="Group_228" data-name="Group 228" transform="translate(0 42.176)">
        <g id="Group_227" data-name="Group 227" transform="translate(0 20.334)">
          <g id="Group_225" data-name="Group 225" transform="translate(0.763)">
            <g id="Group_224" data-name="Group 224">
              <path id="Path_2922" data-name="Path 2922" d="M158.417,625.75l-4.31,5.548c-1.813,2.541-4.092,4.751-5.906,7.292a8.045,8.045,0,0,1-1.3,1.758c-.559.449-1.076.211-1.318-.415-.323-.838.441-1.642.826-2.359,2.563-4.78,4.639-9.725,7.043-14.6.031-.064.072-.135.141-.15a.234.234,0,0,1,.163.048C154.208,623.148,158.324,625.869,158.417,625.75Z" transform="translate(-145.506 -622.824)" fill="#ebceb1"/>
            </g>
          </g>
          <g id="Group_226" data-name="Group 226" transform="translate(0 15.807)">
            <path id="Path_2923" data-name="Path 2923" d="M142.312,711.8l-1.1.6.426,2.93,1.5,1.383,1.2-.392-.543-3.587Z" transform="translate(-141.209 -711.801)" fill="#3b455a"/>
          </g>
        </g>
        <path id="Path_2924" data-name="Path 2924" d="M151.855,509.325l.416,5.528,1.416,14.477L147.9,543.1l2.749,1.175,12.044-14.926,1.042-20.993S151.769,509.753,151.855,509.325Z" transform="translate(-146.71 -508.36)" fill="#9d9796"/>
      </g>
      <g id="Group_233" data-name="Group 233" transform="translate(14.019 39.422)">
        <g id="Group_232" data-name="Group 232" transform="translate(5.592 23.281)">
          <g id="Group_230" data-name="Group 230">
            <g id="Group_229" data-name="Group 229">
              <path id="Path_2925" data-name="Path 2925" d="M251.6,623.908l.45,7.011c.046,1.949.314,3.881.525,5.816.2,1.8-.079,3.672.856,5.3.293.511.881.849,1.286.223.312-.482.12-1.282.177-1.827.427-4.1,1.394-8.119,1.776-12.222C257.073,623.913,255.427,624.1,251.6,623.908Z" transform="translate(-251.602 -623.908)" fill="#ebceb1"/>
            </g>
          </g>
          <g id="Group_231" data-name="Group 231" transform="translate(0.814 16.631)">
            <path id="Path_2926" data-name="Path 2926" d="M256.578,717.854l-.4,1.192,2.313,1.848,2.038-.013.606-1.1-2.849-2.248Z" transform="translate(-256.183 -717.529)" fill="#3b455a"/>
          </g>
        </g>
        <path id="Path_2927" data-name="Path 2927" d="M220.451,495.637l5.944,35.793,3.99.227.993-20.7-2.229-18.1-9.024.431Z" transform="translate(-220.125 -492.857)" fill="#9d9796"/>
      </g>
      <path id="Path_2928" data-name="Path 2928" d="M179.8,357.4a43.323,43.323,0,0,0-.789-7.164c-.607-3.024-1.4-6.115-3.288-8.557s-5.114-4.085-8.085-3.258a7.8,7.8,0,0,0-4.322,3.457,18.458,18.458,0,0,0-2.068,5.246c-1.364,5.182-1.473,10.383-2.021,15.688-.239,2.313-.853,4.78-.4,7.1-.012-.062,4.081-.245,4.577-.26,2.466-.072,4.876.173,7.331.3,1.983.1,3.54-.415,5.5.459a10.263,10.263,0,0,0,1.983.858.6.6,0,0,0,.471-.045.678.678,0,0,0,.211-.484A78.324,78.324,0,0,0,179.8,357.4Z" transform="translate(-155.562 -325.638)" fill="#ffaf20"/>
      <g id="Group_235" data-name="Group 235" transform="translate(10.008 2.164)">
        <g id="Group_234" data-name="Group 234">
          <path id="Path_2929" data-name="Path 2929" d="M200.144,290.033c0,.352-.069.718.242.992a1.065,1.065,0,0,0,.548.216,3.4,3.4,0,0,0,1.527-.105,1.369,1.369,0,0,0,.557-.292.7.7,0,0,0,.2-.564c.011-.266.065-.536.1-.805.077-.589.113-1.183.131-1.777.873-.148,1.9-.428,2.2-1.342a3,3,0,0,0,.1-.908q.018-1.9.036-3.8a3.669,3.669,0,0,0-.143-1.3,2.636,2.636,0,0,0-1.585-1.41,5.7,5.7,0,0,0-5.172.305,2.823,2.823,0,0,0-1.038,1.04,4.432,4.432,0,0,0-.267,2.358l.152,2.224a2.938,2.938,0,0,0,.846,2.286c.351.24.805.285,1.108.595.528.541.274,1.347.429,2A1.284,1.284,0,0,1,200.144,290.033Z" transform="translate(-197.543 -278.467)" fill="#ebceb1"/>
        </g>
      </g>
      <g id="Group_236" data-name="Group 236" transform="translate(9.999 8.009)">
        <path id="Path_2930" data-name="Path 2930" d="M206.02,312c-.014-.235-.115-.924-.469-.492a.709.709,0,0,0-.122.424,1.6,1.6,0,0,1-.047.447.789.789,0,0,1-.791.466.77.77,0,0,1-.37-.088,1.16,1.16,0,0,1-.281-.26l-.616-.71c-.353-.407-1.056-.233-1.533-.171a3.057,3.057,0,0,0-1.55.6c-.045.036-.09.075-.134.113a1.639,1.639,0,0,1-.344.247,1.058,1.058,0,0,1-1.247-.4c-.136-.178-.263-.406-.475-.436a.435.435,0,0,0-.413.25,1.245,1.245,0,0,0-.12.52,3.819,3.819,0,0,0,.328,1.91c.613,1.26,1.8,1.417,3,1.391l1.417-.031a4.484,4.484,0,0,0,2.505-.553,3.1,3.1,0,0,0,1.184-1.982A4.886,4.886,0,0,0,206.02,312Zm-3.164,1.778a1.654,1.654,0,0,1-1.463.167c-.215-.065-.123-.427.092-.361a1.33,1.33,0,0,0,1.2-.129C202.872,313.33,203.046,313.654,202.856,313.781Z" transform="translate(-197.496 -311.373)" fill="#3b455a"/>
      </g>
      <g id="Group_237" data-name="Group 237" transform="translate(9.165 0)">
        <path id="Path_2931" data-name="Path 2931" d="M202.351,268.063a6.757,6.757,0,0,0,.186-.935,1.855,1.855,0,0,1-.916.077q0-.273,0-.547a10.6,10.6,0,0,0-2.217-.276,6.9,6.9,0,0,0-4.4.578,4.245,4.245,0,0,0-2.168,3.167,6.493,6.493,0,0,0,1.017,4.165,9.057,9.057,0,0,1-.121-1.523,3,3,0,0,1,.33-.96,3.958,3.958,0,0,1,1.393-1.458,7.7,7.7,0,0,1,3.04-1.017,8.315,8.315,0,0,1,3.118,0c.462.125.538.241.818-.225a7.934,7.934,0,0,0,.4-1.042Z" transform="translate(-192.798 -266.287)" fill="#3b455a"/>
      </g>
      <line id="Line_9" data-name="Line 9" y1="1.184" x2="9.527" transform="translate(7.525 47.593)" opacity="0.13"/>
      <g id="Group_241" data-name="Group 241" transform="translate(0.45 13.735)">
        <g id="Group_240" data-name="Group 240" transform="translate(1.327 21.108)">
          <g id="Group_239" data-name="Group 239">
            <path id="Path_2934" data-name="Path 2934" d="M154.416,470l.3-.331c.037-.036-.922-1.535-.973-1.719a11.606,11.606,0,0,1,.075-3.369c.018-.318.03-.646.041-.98-.881.153-1.763.3-2.647.426,0,.009,0,.018,0,.028.191,1.105.74,2.256.83,3.357a22.524,22.524,0,0,1-.408,3.247l1.495.883,1.322-.7-.673-1.133.312-.014Z" transform="translate(-151.21 -463.603)" fill="#ebceb1"/>
          </g>
        </g>
        <path id="Path_2935" data-name="Path 2935" d="M150.316,347.441l-6.575,11.46,1.686,10.96,2.356-.44.786-10.521,8.057-9.118a2.607,2.607,0,0,0-.212-3.666l-.742-.666a2.607,2.607,0,0,0-3.647.16Z" transform="translate(-143.741 -344.783)" fill="#ffaf20"/>
      </g>
      <path id="Path_2936" data-name="Path 2936" d="M217.213,374.443a4.779,4.779,0,0,0-.133,1.639,4.591,4.591,0,0,0,1.867,2.543,4.2,4.2,0,0,0,1.947-3.148,16.368,16.368,0,0,0-.107-3.828c-.449-5.111.182-10.6-2.361-15.058l.915-.3c.158-.883-1.066-1.4-1.925-1.15a1.851,1.851,0,0,0-1.272,1.278c-.125,1.19.645.459,1.044,1,.867,1.18.7,3.986.79,5.451A46.912,46.912,0,0,1,217.213,374.443Z" transform="translate(-202.821 -339.52)" fill="#ff5a3a"/>
    </g>
  </g>
</svg>
