<?xml version="1.0" encoding="utf-8"?>
<!-- Generator: Adobe Illustrator 23.0.6, SVG Export Plug-In . SVG Version: 6.00 Build 0)  -->
<svg version="1.1" id="Layer_1" xmlns="http://www.w3.org/2000/svg" xmlns:xlink="http://www.w3.org/1999/xlink" x="0px" y="0px"
	 viewBox="0 0 338 238" style="enable-background:new 0 0 338 238;" xml:space="preserve">
<style type="text/css">
	.st0{fill:#FFCDC3;}
	.st1{opacity:9.000000e-02;}
	.st2{fill:#BABABA;}
	.st3{opacity:0.1;}
	.st4{fill:#272525;}
	.st5{fill:#767777;}
	.st6{fill:#DDDDDD;}
	.st7{opacity:0.12;}
	.st8{fill:#FFAF20;}
	.st9{fill:#F5E6A7;}
	.st10{fill:#202630;}
	.st11{fill:#EACDB0;}
	.st12{fill:#FF5A3A;}
	.st13{opacity:0.2;enable-background:new    ;}
	.st14{opacity:0.13;}
	.st15{fill:#4B5EFF;}
	.st16{fill:#F6F3F1;}
	.st17{fill:#353A85;}
	.st18{fill:#FFFFFF;}
</style>
<g id="Shadow-2">
	<path id="Path_2644" class="st0" d="M155.1,199.7c-9.9-0.1-19.8,0.4-29.7,1.4c-3.7,0.4-7.4,1.4-11.1,1.7
		c-7.5,0.8-14.8,2.2-22.3,2.8c-6,0.5-12.1,0.8-18.1,1.5c-5.8,0.6-11.7,0.5-17.5-0.5c-4.1-0.8-8.3-1.2-12.4-2.4
		c-4.6-1.5-9.4-2.2-14.2-2.3c-6.8,0.1-13.4,0.1-19.8,2.5c-2.5,0.9-4.8,2.2-6.8,4c-3.9,4.1-4.5,14.3-0.5,18.5
		c6.6,7.1,20.8,9.9,30.1,10c10.2,0.1,20.1-0.6,30.3-1.1c9.5-0.4,19-1,28.5-1c19.4,0,38.9,0,58.2-1.3c18.2-1.3,36.5-0.8,54.7-0.8
		c18.7,0,37.3,0.2,55.9,2.7c8.1,1.1,16.4,1.5,24.5,2.3c7.3,0.7,14.3,0,21.6-0.7c6.1-0.5,12.1-2.2,17.7-4.9c4.4-2.2,12.2-8.9,13.6-14
		c3.8-14.4-53.1-14.1-61.9-14.1c-9.8,0-19.6,0.4-29.4,0c-4.1-0.3-8.2-0.9-12.2-1.9c-4-0.9-8-0.7-12.1-1c-16.9-1.6-33.8-1.4-50.7-1.4
		C166.1,199.8,160.6,199.7,155.1,199.7z"/>
</g>
<g id="Group_127" transform="translate(0 166.065)" class="st1">
	<path id="Path_2379" d="M79.2,40c0,0-5.9,0.9-2.2,5s10,6.1,15.8,6.8s6.1,14,18.5,13.8s26.6-8.9,14.4-22.2S86.8,36.9,79.2,40z"/>
</g>
<g id="Group_128" transform="translate(112.788 161.549)" class="st1">
	<path id="Path_2380" d="M78.5,54.8c0.1,0.1,0.2,0.2,0.3,0.3c2.2,2.6,5,4.7,8.2,5.9c3.6,1.4,7.2,0.5,10.7,1.7c3,1,4.9,4,7.9,5.2
		c7.7,3.4,16.6,1.1,24.2-1.6c2.7-0.8,5.3-2.1,7.6-3.7c2.1-1.5,3.9-3.3,6-4.7c2.1-1.3,4.6-1.7,6.8-2.9c1.9-1,3.5-2.6,4.4-4.6
		c0.9-2,0.6-4.4-0.8-6.1c-1-1-2.3-1.7-3.6-2.1c-11.6-4-24.4-4.8-36.6-5.8c-6.6-0.5-13.5-1.4-20.2-1.1c-5.5,0.2-10.8,2.3-15,5.8
		C74.3,44.7,75.7,51.2,78.5,54.8z"/>
</g>
<path id="Path_2381" class="st2" d="M205,194.4c-6.7-0.1-13,4-14.2,10.1c-1.5,7.2,4.6,14.3,13.7,14.5s15.4-6.6,14.2-13.9
	C217.8,198.9,211.7,194.5,205,194.4z"/>
<g id="Group_129" transform="translate(113.465 158.058)" class="st3">
	<path id="Path_2382" class="st4" d="M91.5,35.5c-7.2-0.2-14,4.3-15.5,10.9c-1.7,7.9,4.8,15.8,15,16S108,55,106.5,47
		C105.4,40.4,98.7,35.7,91.5,35.5z M91.1,59.3c-8.2-0.2-13.6-6.4-12.4-12.9c1-5.6,6.7-9.4,12.9-9.3s11.7,4.2,12.5,9.8
		C104.9,53.5,99.2,59.5,91.1,59.3L91.1,59.3z"/>
</g>
<path id="Path_2383" class="st5" d="M205,192.6c-7.8-0.2-14.6,4.5-16.3,11.7c-1.1,7.4,3.7,16.2,15.2,17.1c11.4,0.2,18-8,17-16.3
	C220.1,197.8,212.8,192.8,205,192.6z M204.5,218.9c-9.1-0.2-15.2-7.3-13.7-14.5c1.2-6.1,7.5-10.2,14.2-10.1s12.8,4.6,13.8,10.6
	C219.9,212.3,213.7,219.1,204.5,218.9L204.5,218.9z"/>
<path id="Path_2384" class="st2" d="M205,192.4c-6.7-0.1-13,4-14.2,10.1c-1.5,7.2,4.6,14.3,13.7,14.5s15.4-6.6,14.2-13.9
	C217.8,197,211.7,192.6,205,192.4z"/>
<g id="Group_130" transform="translate(113.531 156.107)" class="st3">
	<path id="Path_2385" class="st4" d="M91.5,35.5c-7.2-0.2-14,4.3-15.5,10.9c-1.7,7.9,4.8,15.8,15,16S108,55,106.5,47
		C105.4,40.4,98.7,35.7,91.5,35.5z M91.1,59.3c-8.2-0.2-13.6-6.4-12.4-12.9c1-5.6,6.7-9.4,12.9-9.3s11.7,4.2,12.5,9.8
		C104.9,53.5,99.2,59.5,91.1,59.3L91.1,59.3z"/>
</g>
<path id="Path_2386" class="st6" d="M205.1,190.7c-7.8-0.2-14.6,4.5-16.3,11.7c-1.1,7.4,3.7,16.2,15.2,17.1c11.4,0.2,18-8,17-16.3
	C220.1,195.9,212.9,190.8,205.1,190.7z M204.6,217c-9.1-0.2-15.2-7.3-13.7-14.5c1.2-6.1,7.5-10.2,14.2-10.1s12.8,4.5,13.8,10.6
	C220,210.3,213.7,217.2,204.6,217L204.6,217z"/>
<path id="Path_2387" class="st6" d="M200,206.5c-0.2-0.1-0.2-0.4-0.2-0.6c0-0.5,0.3-0.9,0.8-1c0,0,0.1,0,0.1,0
	c0.9,0.1,1.8,0.4,2.5,0.9c0.7,0.3,1.4,0.5,2.2,0.5c0.7,0.1,1.4-0.1,2.1-0.5c0.5-0.3,0.8-0.8,0.7-1.4c0-0.5-0.2-1-0.6-1.3
	c-0.6-0.3-1.3-0.4-2.1-0.4l-0.6,0c-1.3,0.1-2.5-0.3-3.6-0.9c-0.8-0.5-1.2-1.4-1-2.4c0.1-0.9,0.5-1.7,1.3-2.2c1-0.5,2.1-0.8,3.2-0.7
	c0.6,0,1.1,0.1,1.7,0.3c1.2,0.3,3.2,1.2,2.8,2.1c-0.5,1.1-2.6-0.6-3.4-0.9c-0.5-0.2-1-0.3-1.5-0.3c-0.6,0-1.2,0.1-1.7,0.4
	c-0.4,0.2-0.7,0.7-0.7,1.1c-0.1,0.4,0.2,0.9,0.6,1c0.9,0.3,1.9,0.4,2.9,0.4c1.2,0,2.4,0.3,3.5,0.9c0.8,0.6,1.2,1.5,1.2,2.5
	c0.1,1.1-0.4,2.1-1.2,2.7c-1,0.8-2.3,1.1-3.5,1c-0.5,0-1.1-0.1-1.6-0.2C202.6,207.7,201.2,207.2,200,206.5z"/>
<path id="Path_2388" class="st6" d="M204.9,211.4L204.9,211.4c-0.6,0-1-0.5-1-1.1c0,0,0,0,0,0l0.5-14.7c0-0.4,0.4-0.7,0.8-0.7h0
	c0.4,0,0.8,0.3,0.8,0.7l-0.2,14.7C205.9,210.9,205.5,211.4,204.9,211.4C205,211.4,204.9,211.4,204.9,211.4z"/>
<path id="Path_2389" class="st2" d="M205,190.2c-6.7-0.1-13,4-14.2,10.1c-1.5,7.2,4.6,14.3,13.7,14.5s15.4-6.6,14.2-13.9
	C217.8,194.7,211.7,190.3,205,190.2z"/>
<g id="Group_131" transform="translate(113.502 153.828)" class="st3">
	<path id="Path_2390" class="st4" d="M91.5,35.5c-7.2-0.2-14,4.3-15.5,10.8c-1.7,7.9,4.8,15.8,15,16S108,55,106.5,47
		C105.4,40.4,98.7,35.7,91.5,35.5z M91.1,59.3c-8.2-0.2-13.6-6.4-12.4-12.9c1-5.6,6.7-9.4,12.9-9.3s11.7,4.2,12.5,9.8
		C104.9,53.5,99.2,59.5,91.1,59.3L91.1,59.3z"/>
</g>
<path id="Path_2391" class="st5" d="M205,188.4c-7.8-0.2-14.6,4.5-16.3,11.7c-1.1,7.4,3.7,16.2,15.2,17.1c11.4,0.2,18-8,17-16.3
	C220.1,193.6,212.9,188.6,205,188.4z M204.6,214.7c-9.1-0.2-15.2-7.3-13.7-14.5c1.2-6.1,7.5-10.2,14.2-10.1s12.8,4.5,13.8,10.7
	C220,208.1,213.7,214.9,204.6,214.7L204.6,214.7z"/>
<path id="Path_2392" class="st2" d="M205,188.2c-6.7-0.1-13,4-14.2,10.1c-1.5,7.2,4.6,14.3,13.7,14.5s15.4-6.6,14.2-13.9
	C217.8,192.7,211.7,188.3,205,188.2z"/>
<g id="Group_132" transform="translate(113.502 151.877)" class="st3">
	<path id="Path_2393" class="st4" d="M91.5,35.5c-7.2-0.2-14,4.3-15.5,10.9c-1.7,7.9,4.8,15.8,15,16S108,55,106.5,47
		C105.4,40.4,98.7,35.7,91.5,35.5z M91.1,59.3c-8.2-0.2-13.6-6.4-12.4-12.9c1-5.6,6.7-9.4,12.9-9.3s11.7,4.2,12.5,9.8
		C104.9,53.5,99.2,59.5,91.1,59.3z"/>
</g>
<path id="Path_2394" class="st6" d="M205,186.4c-7.8-0.2-14.6,4.5-16.3,11.7c-1.1,7.4,3.7,16.2,15.2,17.1c11.4,0.2,18-8,17-16.3
	C220.1,191.6,212.9,186.6,205,186.4z M204.6,212.8c-9.1-0.2-15.2-7.3-13.7-14.5c1.2-6.1,7.5-10.2,14.2-10.1s12.8,4.5,13.8,10.7
	C220,206.1,213.7,212.9,204.6,212.8L204.6,212.8z"/>
<path id="Path_2395" class="st6" d="M199.8,202.2c-0.2-0.1-0.2-0.4-0.2-0.6c0-0.5,0.3-0.9,0.8-1c0,0,0.1,0,0.1,0
	c0.9,0.1,1.8,0.4,2.5,0.9c0.7,0.3,1.4,0.5,2.2,0.5c0.7,0.1,1.4-0.1,2.1-0.5c0.5-0.3,0.8-0.8,0.7-1.4c0-0.5-0.2-1-0.6-1.3
	c-0.6-0.3-1.3-0.4-2.1-0.4l-0.6,0c-1.3,0.1-2.5-0.3-3.6-0.9c-0.8-0.5-1.2-1.4-1-2.4c0.1-0.9,0.6-1.7,1.3-2.2c1-0.5,2.1-0.8,3.2-0.7
	c0.6,0,1.1,0.1,1.7,0.3c1.2,0.3,3.2,1.2,2.8,2.1c-0.5,1.1-2.6-0.6-3.4-0.9c-0.5-0.2-1-0.3-1.5-0.3c-0.6,0-1.2,0.1-1.7,0.4
	c-0.4,0.2-0.7,0.7-0.7,1.1c-0.1,0.4,0.2,0.9,0.6,1c0.9,0.3,1.9,0.4,2.9,0.4c1.2,0,2.4,0.3,3.5,0.9c0.8,0.6,1.2,1.5,1.2,2.5
	c0.1,1.1-0.4,2.1-1.2,2.8c-1,0.8-2.3,1.1-3.5,1c-0.5,0-1.1-0.1-1.6-0.2C202.4,203.4,201,203,199.8,202.2z"/>
<path id="Path_2396" class="st6" d="M204.8,207.2L204.8,207.2c-0.6,0-1-0.5-1-1.1c0,0,0,0,0,0l0.5-14.7c0-0.4,0.4-0.7,0.8-0.7h0
	c0.4,0,0.8,0.3,0.8,0.7l-0.2,14.7C205.8,206.7,205.3,207.2,204.8,207.2C204.8,207.2,204.8,207.2,204.8,207.2L204.8,207.2z"/>
<path id="Path_2397" class="st2" d="M205,185.9c-6.7-0.1-13,4-14.2,10.1c-1.5,7.2,4.6,14.3,13.7,14.5s15.4-6.6,14.2-13.9
	C217.8,190.5,211.7,186.1,205,185.9z"/>
<g id="Group_133" transform="translate(113.465 149.596)" class="st3">
	<path id="Path_2398" class="st4" d="M91.5,35.5c-7.2-0.2-14,4.3-15.5,10.9c-1.7,7.9,4.8,15.8,15,16S108,55,106.5,47
		C105.4,40.4,98.7,35.7,91.5,35.5z M91.1,59.3c-8.2-0.2-13.6-6.4-12.4-12.9c1-5.6,6.7-9.4,12.9-9.3s11.7,4.2,12.5,9.8
		C104.9,53.5,99.2,59.5,91.1,59.3L91.1,59.3z"/>
</g>
<path id="Path_2399" class="st5" d="M205,184.2c-7.8-0.2-14.6,4.5-16.3,11.7c-1.1,7.4,3.7,16.2,15.2,17.1c11.4,0.2,18-8,17-16.3
	C220.1,189.3,212.8,184.3,205,184.2z M204.5,210.5c-9.1-0.2-15.2-7.3-13.7-14.5c1.2-6.1,7.5-10.2,14.2-10.1s12.8,4.5,13.8,10.7
	C219.9,203.8,213.7,210.7,204.5,210.5L204.5,210.5z"/>
<path id="Path_2400" class="st2" d="M205,184c-6.7-0.1-13,4-14.2,10.1c-1.5,7.2,4.6,14.3,13.7,14.5s15.4-6.6,14.2-13.9
	C217.8,188.5,211.7,184.1,205,184z"/>
<g id="Group_134" transform="translate(113.531 147.645)" class="st3">
	<path id="Path_2401" class="st4" d="M91.5,35.5c-7.2-0.2-14,4.3-15.5,10.9c-1.7,7.9,4.8,15.8,15,16S108,55,106.5,47
		C105.4,40.4,98.7,35.7,91.5,35.5z M91.1,59.3c-8.2-0.2-13.6-6.4-12.4-12.9c1-5.6,6.7-9.4,12.9-9.3s11.7,4.2,12.5,9.8
		C104.9,53.5,99.2,59.5,91.1,59.3L91.1,59.3z"/>
</g>
<path id="Path_2402" class="st6" d="M205.1,182.2c-7.8-0.2-14.6,4.5-16.3,11.7c-1.1,7.4,3.7,16.2,15.2,17.1c11.4,0.2,18-8,17-16.3
	C220.1,187.4,212.9,182.4,205.1,182.2z M204.6,208.5c-9.1-0.2-15.2-7.3-13.7-14.5c1.2-6.1,7.5-10.2,14.2-10.1s12.8,4.5,13.8,10.7
	C220,201.9,213.7,208.7,204.6,208.5L204.6,208.5z"/>
<path id="Path_2403" class="st6" d="M200,198c-0.2-0.1-0.2-0.4-0.2-0.6c0-0.5,0.3-0.9,0.8-1c0,0,0.1,0,0.1,0
	c0.9,0.1,1.8,0.4,2.5,0.9c0.7,0.3,1.4,0.5,2.2,0.5c0.7,0.1,1.4-0.1,2.1-0.5c0.5-0.3,0.8-0.8,0.7-1.4c0-0.5-0.2-1-0.6-1.3
	c-0.6-0.3-1.3-0.4-2.1-0.4l-0.6,0c-1.3,0.1-2.5-0.3-3.6-0.9c-0.8-0.5-1.2-1.4-1-2.4c0-0.9,0.5-1.7,1.3-2.2c1-0.5,2.1-0.8,3.2-0.7
	c0.6,0,1.1,0.1,1.7,0.3c1.2,0.3,3.2,1.2,2.8,2.1c-0.5,1.1-2.6-0.6-3.4-0.9c-0.5-0.2-1-0.3-1.5-0.3c-0.6,0-1.2,0.1-1.7,0.4
	c-0.4,0.2-0.7,0.7-0.7,1.1c-0.1,0.4,0.2,0.9,0.6,1c0.9,0.3,1.9,0.4,2.9,0.4c1.2,0,2.4,0.3,3.5,0.9c0.8,0.6,1.2,1.5,1.2,2.5
	c0.1,1.1-0.4,2.1-1.2,2.7c-1,0.8-2.3,1.1-3.5,1c-0.5,0-1.1-0.1-1.6-0.2C202.6,199.2,201.2,198.7,200,198z"/>
<path id="Path_2404" class="st6" d="M204.9,203L204.9,203c-0.6,0-1-0.5-1-1.1c0,0,0,0,0,0l0.5-14.7c0-0.4,0.4-0.7,0.8-0.7h0
	c0.4,0,0.8,0.3,0.8,0.7l-0.2,14.7C205.9,202.5,205.5,202.9,204.9,203C205,203,204.9,203,204.9,203z"/>
<path id="Path_2405" class="st2" d="M205,177.2c-6.7-0.1-13,4-14.2,10.1c-1.5,7.2,4.6,14.3,13.7,14.5s15.4-6.6,14.2-13.9
	C217.8,181.7,211.7,177.3,205,177.2z"/>
<g id="Group_135" transform="translate(113.467 140.869)" class="st3">
	<path id="Path_2406" class="st4" d="M91.5,35.5c-7.2-0.2-14,4.3-15.5,10.9c-1.7,7.9,4.8,15.8,15,16S108,55,106.6,47
		C105.4,40.4,98.7,35.7,91.5,35.5z M91.1,59.3c-8.2-0.2-13.6-6.4-12.4-12.9c1-5.6,6.7-9.4,12.9-9.3s11.7,4.2,12.5,9.8
		C104.9,53.5,99.2,59.5,91.1,59.3L91.1,59.3z"/>
</g>
<path id="Path_2407" class="st5" d="M205,175.4c-7.8-0.2-14.6,4.5-16.3,11.7c-1.1,7.4,3.7,16.2,15.2,17.1c11.4,0.2,18-8,17-16.3
	C220.1,180.6,212.8,175.6,205,175.4z M204.5,201.7c-9.1-0.2-15.2-7.3-13.7-14.5c1.2-6.1,7.5-10.2,14.2-10.1s12.8,4.5,13.8,10.7
	C219.9,195.1,213.7,201.9,204.5,201.7L204.5,201.7z"/>
<path id="Path_2408" class="st2" d="M205,175.2c-6.7-0.1-13,4-14.2,10.1c-1.5,7.2,4.6,14.3,13.7,14.5s15.4-6.6,14.2-13.9
	C217.8,179.8,211.7,175.4,205,175.2z"/>
<g id="Group_136" transform="translate(113.531 138.918)" class="st3">
	<path id="Path_2409" class="st4" d="M91.5,35.5c-7.2-0.2-14,4.3-15.5,10.9c-1.7,7.9,4.8,15.8,15,16S108,55,106.5,47
		C105.4,40.4,98.7,35.7,91.5,35.5z M91.1,59.3c-8.2-0.2-13.6-6.4-12.4-12.9c1-5.6,6.7-9.4,12.9-9.3s11.7,4.2,12.5,9.8
		C104.9,53.5,99.2,59.5,91.1,59.3L91.1,59.3z"/>
</g>
<path id="Path_2410" class="st6" d="M205.1,173.5c-7.8-0.2-14.6,4.5-16.3,11.7c-1.1,7.4,3.7,16.2,15.2,17.1c11.4,0.2,18-8,17-16.3
	C220.1,178.7,212.9,173.6,205.1,173.5z M204.6,199.8c-9.1-0.2-15.2-7.3-13.7-14.5c1.2-6.1,7.5-10.2,14.2-10.1s12.8,4.5,13.8,10.7
	C220,193.2,213.7,200,204.6,199.8L204.6,199.8z"/>
<path id="Path_2411" class="st6" d="M200,189.3c-0.2-0.1-0.2-0.4-0.2-0.6c0-0.5,0.3-0.9,0.8-1c0,0,0.1,0,0.1,0
	c0.9,0.1,1.8,0.4,2.5,0.9c0.7,0.3,1.4,0.5,2.2,0.5c0.7,0.1,1.4-0.1,2.1-0.5c0.5-0.3,0.8-0.8,0.7-1.4c0-0.5-0.2-1-0.6-1.3
	c-0.6-0.3-1.3-0.4-2.1-0.4l-0.6,0c-1.3,0.1-2.5-0.3-3.6-0.9c-0.8-0.5-1.2-1.4-1-2.4c0.1-0.9,0.5-1.7,1.3-2.2c1-0.5,2.1-0.8,3.2-0.7
	c0.6,0,1.1,0.1,1.7,0.3c1.2,0.3,3.2,1.2,2.8,2.1c-0.5,1.1-2.6-0.6-3.4-0.9c-0.5-0.2-1-0.3-1.5-0.3c-0.6,0-1.2,0.1-1.7,0.4
	c-0.4,0.2-0.7,0.7-0.7,1.1c-0.1,0.4,0.2,0.9,0.6,1c0.9,0.3,1.9,0.4,2.9,0.4c1.2,0,2.4,0.3,3.5,0.9c0.8,0.6,1.2,1.5,1.2,2.5
	c0.1,1.1-0.4,2.1-1.2,2.7c-1,0.8-2.3,1.1-3.5,1c-0.5,0-1.1-0.1-1.6-0.2C202.6,190.5,201.2,190,200,189.3z"/>
<path id="Path_2412" class="st6" d="M204.9,194.2L204.9,194.2c-0.6,0-1-0.5-1-1.1c0,0,0,0,0,0l0.5-14.7c0-0.4,0.4-0.7,0.8-0.7h0
	c0.4,0,0.8,0.3,0.8,0.7l-0.2,14.7C205.9,193.7,205.5,194.2,204.9,194.2C204.9,194.2,204.9,194.2,204.9,194.2L204.9,194.2z"/>
<path id="Path_2413" class="st2" d="M205,181.9c-6.7-0.1-13,4-14.2,10.1c-1.5,7.2,4.6,14.3,13.7,14.5s15.4-6.6,14.2-13.9
	C217.8,186.5,211.7,182.1,205,181.9z"/>
<g id="Group_137" transform="translate(113.467 145.601)" class="st3">
	<path id="Path_2414" class="st4" d="M91.5,35.5c-7.2-0.2-14,4.3-15.5,10.8c-1.7,7.9,4.8,15.8,15,16S108,55,106.6,47
		C105.4,40.4,98.7,35.7,91.5,35.5z M91.1,59.3c-8.2-0.2-13.6-6.4-12.4-12.9c1-5.6,6.7-9.4,12.9-9.3s11.7,4.2,12.5,9.8
		C104.9,53.5,99.2,59.5,91.1,59.3L91.1,59.3z"/>
</g>
<path id="Path_2415" class="st5" d="M205,180.1c-7.8-0.2-14.6,4.5-16.3,11.7c-1.1,7.4,3.7,16.2,15.2,17.1c11.4,0.2,18-8,17-16.3
	C220.1,185.3,212.8,180.3,205,180.1z M204.5,206.5c-9.1-0.2-15.2-7.3-13.7-14.5c1.2-6.1,7.5-10.2,14.2-10.1s12.8,4.5,13.8,10.7
	C219.9,199.8,213.7,206.6,204.5,206.5L204.5,206.5z"/>
<path id="Path_2416" class="st2" d="M205,180c-6.7-0.1-13,4-14.2,10.1c-1.5,7.2,4.6,14.3,13.7,14.5s15.4-6.6,14.2-13.9
	C217.8,184.5,211.7,180.1,205,180z"/>
<g id="Group_138" transform="translate(113.531 143.65)" class="st3">
	<path id="Path_2417" class="st4" d="M91.5,35.5c-7.2-0.2-14,4.3-15.5,10.9c-1.7,7.9,4.8,15.8,15,16S108,55,106.5,47
		C105.4,40.4,98.7,35.7,91.5,35.5z M91.1,59.3c-8.2-0.2-13.6-6.4-12.4-12.9c1-5.6,6.7-9.4,12.9-9.3s11.7,4.2,12.5,9.8
		C104.9,53.5,99.2,59.5,91.1,59.3L91.1,59.3z"/>
</g>
<path id="Path_2418" class="st6" d="M205.1,178.2c-7.8-0.2-14.6,4.5-16.3,11.7c-1.1,7.4,3.7,16.2,15.2,17.1c11.4,0.2,18-8,17-16.3
	C220.1,183.4,212.9,178.4,205.1,178.2z M204.6,204.5c-9.1-0.2-15.2-7.3-13.7-14.5c1.2-6.1,7.5-10.2,14.2-10.1s12.8,4.5,13.8,10.7
	C220,197.9,213.7,204.7,204.6,204.5L204.6,204.5z"/>
<path id="Path_2419" class="st6" d="M200,194c-0.2-0.1-0.2-0.4-0.2-0.6c0-0.5,0.3-0.9,0.8-1c0,0,0.1,0,0.1,0
	c0.9,0.1,1.8,0.4,2.5,0.9c0.7,0.3,1.4,0.5,2.2,0.5c0.7,0.1,1.4-0.1,2.1-0.5c0.5-0.3,0.8-0.8,0.7-1.4c0-0.5-0.2-1-0.6-1.3
	c-0.6-0.3-1.3-0.4-2.1-0.4l-0.6,0c-1.3,0.1-2.5-0.3-3.6-0.9c-0.8-0.5-1.2-1.4-1-2.4c0-0.9,0.5-1.7,1.3-2.2c1-0.5,2.1-0.8,3.2-0.7
	c0.6,0,1.1,0.1,1.7,0.3c1.2,0.3,3.2,1.2,2.8,2.1c-0.5,1.1-2.6-0.6-3.4-0.9c-0.5-0.2-1-0.3-1.5-0.3c-0.6,0-1.2,0.1-1.7,0.4
	c-0.4,0.2-0.7,0.7-0.7,1.1c-0.1,0.4,0.2,0.9,0.6,1c0.9,0.3,1.9,0.4,2.9,0.4c1.2,0,2.4,0.3,3.5,0.9c0.8,0.6,1.2,1.5,1.2,2.5
	c0.1,1.1-0.4,2.1-1.2,2.7c-1,0.8-2.3,1.1-3.5,1c-0.5,0-1.1-0.1-1.6-0.2C202.6,195.2,201.2,194.7,200,194z"/>
<path id="Path_2420" class="st6" d="M204.9,198.9L204.9,198.9c-0.6,0-1-0.5-1-1.1c0,0,0,0,0,0l0.5-14.7c0-0.4,0.4-0.7,0.8-0.7h0
	c0.4,0,0.8,0.3,0.8,0.7l-0.2,14.7C205.9,198.5,205.5,198.9,204.9,198.9z"/>
<path id="Path_2421" class="st2" d="M205,177.2c-6.7-0.1-13,4-14.2,10.1c-1.5,7.2,4.6,14.3,13.7,14.5s15.4-6.6,14.2-13.9
	C217.8,181.7,211.7,177.3,205,177.2z"/>
<g id="Group_139" transform="translate(113.502 140.869)" class="st3">
	<path id="Path_2422" class="st4" d="M91.5,35.5c-7.2-0.2-14,4.3-15.5,10.9c-1.7,7.9,4.8,15.8,15,16S108,55,106.5,47
		C105.4,40.4,98.7,35.7,91.5,35.5z M91.1,59.3c-8.2-0.2-13.6-6.4-12.4-12.9c1-5.6,6.7-9.4,12.9-9.3s11.7,4.2,12.5,9.8
		C104.9,53.5,99.2,59.5,91.1,59.3L91.1,59.3z"/>
</g>
<path id="Path_2423" class="st5" d="M205,175.4c-7.8-0.2-14.6,4.5-16.3,11.7c-1.1,7.4,3.7,16.2,15.2,17.1c11.4,0.2,18-8,17-16.3
	C220.1,180.6,212.9,175.6,205,175.4z M204.6,201.7c-9.1-0.2-15.2-7.3-13.7-14.5c1.2-6.1,7.5-10.2,14.2-10.1s12.8,4.5,13.8,10.7
	C220,195.1,213.7,201.9,204.6,201.7L204.6,201.7z"/>
<path id="Path_2424" class="st2" d="M205,175.2c-6.7-0.1-13,4-14.2,10.1c-1.5,7.2,4.6,14.3,13.7,14.5s15.4-6.6,14.2-13.9
	C217.8,179.8,211.7,175.4,205,175.2z"/>
<g id="Group_140" transform="translate(113.502 138.918)" class="st3">
	<path id="Path_2425" class="st4" d="M91.5,35.5c-7.2-0.2-14,4.3-15.5,10.9c-1.7,7.9,4.8,15.8,15,16S108,55,106.5,47
		C105.4,40.4,98.7,35.7,91.5,35.5z M91.1,59.3c-8.2-0.2-13.6-6.4-12.4-12.9c1-5.6,6.7-9.4,12.9-9.3s11.7,4.2,12.5,9.8
		C104.9,53.5,99.2,59.5,91.1,59.3L91.1,59.3z"/>
</g>
<path id="Path_2426" class="st6" d="M205,173.5c-7.8-0.2-14.6,4.5-16.3,11.7c-1.1,7.4,3.7,16.2,15.2,17.1c11.4,0.2,18-8,17-16.3
	C220.1,178.7,212.9,173.6,205,173.5z M204.6,199.8c-9.1-0.2-15.2-7.3-13.7-14.5c1.2-6.1,7.5-10.2,14.2-10.1s12.8,4.5,13.8,10.7
	C220,193.2,213.7,200,204.6,199.8L204.6,199.8z"/>
<path id="Path_2427" class="st6" d="M199.8,189.3c-0.2-0.1-0.2-0.4-0.2-0.6c0-0.5,0.3-0.9,0.8-1c0,0,0.1,0,0.1,0
	c0.9,0.1,1.8,0.4,2.5,0.9c0.7,0.3,1.4,0.5,2.2,0.5c0.7,0.1,1.4-0.1,2.1-0.5c0.5-0.3,0.8-0.8,0.7-1.4c0-0.5-0.2-1-0.6-1.3
	c-0.6-0.3-1.3-0.4-2.1-0.4l-0.6,0c-1.3,0.1-2.5-0.3-3.6-0.9c-0.8-0.5-1.2-1.4-1-2.4c0.1-0.9,0.6-1.7,1.3-2.2c1-0.5,2.1-0.8,3.2-0.7
	c0.6,0,1.1,0.1,1.7,0.3c1.2,0.3,3.2,1.2,2.8,2.1c-0.5,1.1-2.6-0.6-3.4-0.9c-0.5-0.2-1-0.3-1.5-0.3c-0.6,0-1.2,0.1-1.7,0.4
	c-0.4,0.2-0.7,0.7-0.7,1.1c-0.1,0.4,0.2,0.9,0.6,1c0.9,0.3,1.9,0.4,2.9,0.4c1.2,0,2.4,0.3,3.5,0.9c0.8,0.6,1.2,1.5,1.2,2.5
	c0.1,1.1-0.4,2.1-1.2,2.7c-1,0.8-2.3,1.1-3.5,1c-0.5,0-1.1-0.1-1.6-0.2C202.4,190.5,201,190,199.8,189.3z"/>
<path id="Path_2428" class="st6" d="M204.8,194.2L204.8,194.2c-0.6,0-1-0.5-1-1.1c0,0,0,0,0,0l0.5-14.7c0-0.4,0.4-0.7,0.8-0.7h0
	c0.4,0,0.8,0.3,0.8,0.7l-0.2,14.7C205.8,193.7,205.3,194.2,204.8,194.2C204.8,194.2,204.8,194.2,204.8,194.2L204.8,194.2z"/>
<path id="Path_2429" class="st2" d="M205,173c-6.7-0.1-13,4-14.2,10.1c-1.5,7.2,4.6,14.3,13.7,14.5s15.4-6.6,14.2-13.9
	C217.8,177.5,211.7,173.1,205,173z"/>
<g id="Group_141" transform="translate(113.502 136.64)" class="st3">
	<path id="Path_2430" class="st4" d="M91.5,35.5c-7.2-0.2-14,4.3-15.5,10.8c-1.7,7.9,4.8,15.8,15,16S108,55,106.5,47
		C105.4,40.4,98.7,35.7,91.5,35.5z M91.1,59.3c-8.2-0.2-13.6-6.4-12.4-12.9c1-5.6,6.7-9.4,12.9-9.3s11.7,4.2,12.5,9.8
		C104.9,53.5,99.2,59.5,91.1,59.3z"/>
</g>
<path id="Path_2431" class="st5" d="M205,171.2c-7.8-0.2-14.6,4.5-16.3,11.7c-1.1,7.4,3.7,16.2,15.2,17.1c11.4,0.2,18-8,17-16.3
	C220.1,176.4,212.9,171.4,205,171.2z M204.6,197.5c-9.1-0.2-15.2-7.3-13.7-14.5c1.2-6.1,7.5-10.2,14.2-10.1s12.8,4.5,13.8,10.7
	C220,190.9,213.7,197.7,204.6,197.5L204.6,197.5z"/>
<path id="Path_2432" class="st2" d="M205,171c-6.7-0.1-13,4-14.2,10.1c-1.5,7.2,4.6,14.3,13.7,14.5s15.4-6.6,14.2-13.9
	C217.8,175.5,211.7,171.1,205,171z"/>
<g id="Group_142" transform="translate(113.502 134.688)" class="st3">
	<path id="Path_2433" class="st4" d="M91.5,35.5c-7.2-0.2-14,4.3-15.5,10.9c-1.7,7.9,4.8,15.8,15,16S108,55,106.5,47
		C105.4,40.4,98.7,35.7,91.5,35.5z M91.1,59.3c-8.2-0.2-13.6-6.4-12.4-12.9c1-5.6,6.7-9.4,12.9-9.3s11.7,4.2,12.5,9.8
		C104.9,53.5,99.2,59.5,91.1,59.3L91.1,59.3z"/>
</g>
<path id="Path_2434" class="st6" d="M205,169.2c-7.8-0.2-14.6,4.5-16.3,11.7c-1.1,7.4,3.7,16.2,15.2,17.1c11.4,0.2,18-8,17-16.3
	C220.1,174.4,212.9,169.4,205,169.2z M204.6,195.6c-9.1-0.2-15.2-7.3-13.7-14.5c1.2-6.1,7.5-10.2,14.2-10.1s12.8,4.5,13.8,10.7
	C220,188.9,213.7,195.7,204.6,195.6L204.6,195.6z"/>
<path id="Path_2435" class="st6" d="M199.8,185c-0.2-0.1-0.2-0.4-0.2-0.6c0-0.5,0.3-0.9,0.8-1c0,0,0.1,0,0.1,0
	c0.9,0.1,1.8,0.4,2.5,0.9c0.7,0.3,1.4,0.5,2.2,0.5c0.7,0.1,1.4-0.1,2.1-0.5c0.5-0.3,0.8-0.8,0.7-1.4c0-0.5-0.2-1-0.6-1.3
	c-0.6-0.3-1.3-0.4-2.1-0.4l-0.6,0c-1.3,0.1-2.5-0.3-3.6-0.9c-0.8-0.5-1.2-1.4-1-2.4c0.1-0.9,0.6-1.7,1.3-2.2c1-0.5,2.1-0.8,3.2-0.7
	c0.6,0,1.1,0.1,1.7,0.3c1.2,0.3,3.2,1.2,2.8,2.1c-0.5,1.1-2.6-0.6-3.4-0.9c-0.5-0.2-1-0.3-1.5-0.3c-0.6,0-1.2,0.1-1.7,0.4
	c-0.4,0.2-0.7,0.7-0.7,1.1c-0.1,0.4,0.2,0.9,0.6,1c0.9,0.3,1.9,0.4,2.9,0.4c1.2,0,2.4,0.3,3.5,0.9c0.8,0.6,1.2,1.5,1.2,2.5
	c0.1,1.1-0.4,2.1-1.2,2.7c-1,0.8-2.3,1.1-3.5,1c-0.5,0-1.1-0.1-1.6-0.2C202.4,186.2,201,185.7,199.8,185z"/>
<path id="Path_2436" class="st6" d="M204.8,190L204.8,190c-0.6,0-1-0.5-1-1.1c0,0,0,0,0,0l0.5-14.7c0-0.4,0.4-0.7,0.8-0.7h0
	c0.4,0,0.8,0.3,0.8,0.7l-0.2,14.7C205.8,189.5,205.3,190,204.8,190C204.8,190,204.8,190,204.8,190L204.8,190z"/>
<path id="Path_2437" class="st2" d="M205,168.7c-6.7-0.1-13,4-14.2,10.1c-1.5,7.2,4.6,14.3,13.7,14.5s15.4-6.6,14.2-13.9
	C217.8,173.3,211.7,168.9,205,168.7z"/>
<g id="Group_143" transform="translate(113.465 132.389)" class="st3">
	<path id="Path_2438" class="st4" d="M91.5,35.5c-7.2-0.2-14,4.3-15.5,10.9c-1.7,7.9,4.8,15.8,15,16S108,55,106.5,47
		C105.4,40.4,98.7,35.7,91.5,35.5z M91.1,59.3c-8.2-0.2-13.6-6.4-12.4-12.9c1-5.6,6.7-9.4,12.9-9.3s11.7,4.2,12.5,9.8
		C104.9,53.5,99.2,59.5,91.1,59.3L91.1,59.3z"/>
</g>
<path id="Path_2439" class="st5" d="M205,167c-7.8-0.2-14.6,4.5-16.3,11.7c-1.1,7.4,3.7,16.2,15.2,17.1c11.4,0.2,18-8,17-16.3
	C220.1,172.1,212.8,167.1,205,167z M204.5,193.3c-9.1-0.2-15.2-7.3-13.7-14.5c1.2-6.1,7.5-10.2,14.2-10.1s12.8,4.5,13.8,10.7
	C219.9,186.6,213.7,193.4,204.5,193.3L204.5,193.3z"/>
<path id="Path_2440" class="st2" d="M205,166.8c-6.7-0.1-13,4-14.2,10.1c-1.5,7.2,4.6,14.3,13.7,14.5s15.4-6.6,14.2-13.9
	C217.8,171.3,211.7,166.9,205,166.8z"/>
<g id="Group_144" transform="translate(113.531 130.436)" class="st3">
	<path id="Path_2441" class="st4" d="M91.5,35.5c-7.2-0.2-14,4.3-15.5,10.9c-1.7,7.9,4.8,15.8,15,16S108,55,106.5,47
		C105.4,40.4,98.7,35.7,91.5,35.5z M91.1,59.3c-8.2-0.2-13.6-6.4-12.4-12.9c1-5.6,6.7-9.4,12.9-9.3s11.7,4.2,12.5,9.8
		C104.9,53.5,99.2,59.5,91.1,59.3L91.1,59.3z"/>
</g>
<path id="Path_2442" class="st6" d="M205.1,165c-7.8-0.2-14.6,4.5-16.3,11.7c-1.1,7.4,3.7,16.2,15.2,17.1c11.4,0.2,18-8,17-16.3
	C220.1,170.2,212.9,165.2,205.1,165z M204.6,191.3c-9.1-0.2-15.2-7.3-13.7-14.5c1.2-6.1,7.5-10.2,14.2-10.1s12.8,4.5,13.8,10.7
	C220,184.7,213.7,191.5,204.6,191.3L204.6,191.3z"/>
<path id="Path_2443" class="st6" d="M200,180.8c-0.2-0.1-0.2-0.4-0.2-0.6c0-0.5,0.3-0.9,0.8-1c0,0,0.1,0,0.1,0
	c0.9,0.1,1.8,0.4,2.5,0.9c0.7,0.3,1.4,0.5,2.2,0.5c0.7,0.1,1.4-0.1,2.1-0.5c0.5-0.3,0.8-0.8,0.7-1.4c0-0.5-0.2-1-0.6-1.3
	c-0.6-0.3-1.3-0.4-2.1-0.4l-0.6,0c-1.3,0.1-2.5-0.3-3.6-0.9c-0.8-0.5-1.2-1.4-1-2.4c0-0.9,0.5-1.7,1.3-2.2c1-0.5,2.1-0.8,3.2-0.7
	c0.6,0,1.1,0.1,1.7,0.3c1.2,0.3,3.2,1.2,2.8,2.1c-0.5,1.1-2.6-0.6-3.4-0.9c-0.5-0.2-1-0.3-1.5-0.3c-0.6,0-1.2,0.1-1.7,0.4
	c-0.4,0.2-0.7,0.7-0.7,1.1c-0.1,0.4,0.2,0.9,0.6,1c0.9,0.3,1.9,0.4,2.9,0.4c1.2,0,2.4,0.3,3.5,0.9c0.8,0.6,1.2,1.5,1.2,2.5
	c0.1,1.1-0.4,2.1-1.2,2.7c-1,0.8-2.3,1.1-3.5,1c-0.5,0-1.1-0.1-1.6-0.2C202.6,182,201.2,181.5,200,180.8z"/>
<path id="Path_2444" class="st6" d="M204.9,185.7L204.9,185.7c-0.6,0-1-0.5-1-1.1c0,0,0,0,0,0l0.5-14.7c0-0.4,0.4-0.7,0.8-0.7h0
	c0.4,0,0.8,0.3,0.8,0.7l-0.2,14.7C205.9,185.3,205.5,185.7,204.9,185.7C204.9,185.7,204.9,185.7,204.9,185.7z"/>
<path id="Path_2445" class="st2" d="M205,164.5c-6.7-0.1-13,4-14.2,10.1c-1.5,7.2,4.6,14.3,13.7,14.5s15.4-6.6,14.2-13.9
	C217.8,169,211.7,164.6,205,164.5z"/>
<g id="Group_145" transform="translate(113.502 128.157)" class="st3">
	<path id="Path_2446" class="st4" d="M91.5,35.5c-7.2-0.2-14,4.3-15.5,10.9c-1.7,7.9,4.8,15.8,15,16S108,55,106.5,47
		C105.4,40.4,98.7,35.7,91.5,35.5z M91.1,59.3c-8.2-0.2-13.6-6.4-12.4-12.9c1-5.6,6.7-9.4,12.9-9.3s11.7,4.2,12.5,9.8
		C104.9,53.5,99.2,59.5,91.1,59.3z"/>
</g>
<path id="Path_2447" class="st5" d="M205,162.7c-7.8-0.2-14.6,4.5-16.3,11.7c-1.1,7.4,3.7,16.2,15.2,17.1c11.4,0.2,18-8,17-16.3
	C220.1,167.9,212.9,162.9,205,162.7z M204.6,189c-9.1-0.2-15.2-7.3-13.7-14.5c1.2-6.1,7.5-10.2,14.2-10.1s12.8,4.5,13.8,10.7
	C220,182.4,213.7,189.2,204.6,189L204.6,189z"/>
<path id="Path_2448" class="st2" d="M205,162.5c-6.7-0.1-13,4-14.2,10.1c-1.5,7.2,4.6,14.3,13.7,14.5s15.4-6.6,14.2-13.9
	C217.8,167.1,211.7,162.7,205,162.5z"/>
<g id="Group_146" transform="translate(113.502 126.205)" class="st3">
	<path id="Path_2449" class="st4" d="M91.5,35.5c-7.2-0.2-14,4.3-15.5,10.9c-1.7,7.9,4.8,15.8,15,16S108,55,106.5,47
		C105.4,40.4,98.7,35.7,91.5,35.5z M91.1,59.3c-8.2-0.2-13.6-6.4-12.4-12.9c1-5.6,6.7-9.4,12.9-9.3s11.7,4.2,12.5,9.8
		C104.9,53.5,99.2,59.5,91.1,59.3z"/>
</g>
<path id="Path_2450" class="st6" d="M205,160.8c-7.8-0.2-14.6,4.5-16.3,11.7c-1.1,7.4,3.7,16.2,15.2,17.1c11.4,0.2,18-8,17-16.3
	C220.1,166,212.9,160.9,205,160.8z M204.6,187.1c-9.1-0.2-15.2-7.3-13.7-14.5c1.2-6.1,7.5-10.2,14.2-10.1s12.8,4.5,13.8,10.7
	C220,180.4,213.7,187.3,204.6,187.1L204.6,187.1z"/>
<path id="Path_2451" class="st6" d="M199.8,176.6c-0.2-0.1-0.2-0.4-0.2-0.6c0-0.5,0.3-0.9,0.8-1c0,0,0.1,0,0.1,0
	c0.9,0.1,1.8,0.4,2.5,0.9c0.7,0.3,1.4,0.5,2.2,0.5c0.7,0.1,1.4-0.1,2.1-0.5c0.5-0.3,0.8-0.8,0.7-1.4c0-0.5-0.2-1-0.6-1.3
	c-0.6-0.3-1.3-0.4-2.1-0.4l-0.6,0c-1.3,0.1-2.5-0.3-3.6-0.9c-0.8-0.5-1.2-1.4-1-2.4c0.1-0.9,0.6-1.7,1.3-2.2c1-0.5,2.1-0.8,3.2-0.7
	c0.6,0,1.1,0.1,1.7,0.3c1.2,0.3,3.2,1.2,2.8,2.1c-0.5,1.1-2.6-0.6-3.4-0.9c-0.5-0.2-1-0.3-1.5-0.3c-0.6,0-1.2,0.1-1.7,0.4
	c-0.4,0.2-0.7,0.7-0.7,1.1c-0.1,0.4,0.2,0.9,0.6,1c0.9,0.3,1.9,0.4,2.9,0.4c1.2,0,2.4,0.3,3.5,0.9c0.8,0.6,1.2,1.5,1.2,2.5
	c0.1,1.1-0.4,2.1-1.2,2.7c-1,0.8-2.3,1.1-3.5,1c-0.5,0-1.1-0.1-1.6-0.2C202.4,177.8,201,177.3,199.8,176.6z"/>
<path id="Path_2452" class="st6" d="M204.8,181.5L204.8,181.5c-0.6,0-1-0.5-1-1.1c0,0,0,0,0,0l0.5-14.7c0-0.4,0.4-0.7,0.8-0.7h0
	c0.4,0,0.8,0.3,0.8,0.7l-0.2,14.7C205.8,181,205.3,181.5,204.8,181.5C204.8,181.5,204.8,181.5,204.8,181.5L204.8,181.5z"/>
<path id="Path_2453" class="st2" d="M205,160.2c-6.7-0.1-13,4-14.2,10.1c-1.5,7.2,4.6,14.3,13.7,14.5s15.4-6.6,14.2-13.9
	C217.8,164.8,211.7,160.4,205,160.2z"/>
<g id="Group_147" transform="translate(113.465 123.923)" class="st3">
	<path id="Path_2454" class="st4" d="M91.5,35.5c-7.2-0.2-14,4.3-15.5,10.9c-1.7,7.9,4.8,15.8,15,16S108,55,106.5,47
		C105.4,40.4,98.7,35.7,91.5,35.5z M91.1,59.3c-8.2-0.2-13.6-6.4-12.4-12.9c1-5.6,6.7-9.4,12.9-9.3s11.7,4.2,12.5,9.8
		C104.9,53.5,99.2,59.5,91.1,59.3L91.1,59.3z"/>
</g>
<path id="Path_2455" class="st5" d="M205,158.5c-7.8-0.2-14.6,4.5-16.3,11.7c-1.1,7.4,3.7,16.2,15.2,17.1c11.4,0.2,18-8,17-16.3
	C220.1,163.7,212.8,158.7,205,158.5z M204.5,184.8c-9.1-0.2-15.2-7.3-13.7-14.5c1.2-6.1,7.5-10.2,14.2-10.1s12.8,4.5,13.8,10.7
	C219.9,178.2,213.7,185,204.5,184.8L204.5,184.8z"/>
<path id="Path_2456" class="st2" d="M205,158.3c-6.7-0.1-13,4-14.2,10.1c-1.5,7.2,4.6,14.3,13.7,14.5s15.4-6.6,14.2-13.9
	C217.8,162.8,211.7,158.4,205,158.3z"/>
<g id="Group_148" transform="translate(113.531 121.973)" class="st3">
	<path id="Path_2457" class="st4" d="M91.5,35.5c-7.2-0.2-14,4.3-15.5,10.8c-1.7,7.9,4.8,15.8,15,16S108,55,106.5,47
		C105.4,40.4,98.7,35.7,91.5,35.5z M91.1,59.3c-8.2-0.2-13.6-6.4-12.4-12.9c1-5.6,6.7-9.4,12.9-9.3s11.7,4.2,12.5,9.8
		C104.9,53.5,99.2,59.5,91.1,59.3L91.1,59.3z"/>
</g>
<path id="Path_2458" class="st6" d="M205.1,156.5c-7.8-0.2-14.6,4.5-16.3,11.7c-1.1,7.4,3.7,16.2,15.2,17.1c11.4,0.2,18-8,17-16.3
	C220.1,161.7,212.9,156.7,205.1,156.5z M204.6,182.8c-9.1-0.2-15.2-7.3-13.7-14.5c1.2-6.1,7.5-10.2,14.2-10.1s12.8,4.5,13.8,10.7
	C220,176.2,213.7,183,204.6,182.8L204.6,182.8z"/>
<path id="Path_2459" class="st6" d="M200,172.3c-0.2-0.1-0.2-0.4-0.2-0.6c0-0.5,0.3-0.9,0.8-1c0,0,0.1,0,0.1,0
	c0.9,0.1,1.8,0.4,2.5,0.9c0.7,0.3,1.4,0.5,2.2,0.5c0.7,0.1,1.4-0.1,2.1-0.5c0.5-0.3,0.8-0.8,0.7-1.4c0-0.5-0.2-1-0.6-1.3
	c-0.6-0.3-1.3-0.4-2.1-0.4l-0.6,0c-1.3,0.1-2.5-0.3-3.6-0.9c-0.8-0.5-1.2-1.4-1-2.4c0-0.9,0.5-1.7,1.3-2.2c1-0.5,2.1-0.8,3.2-0.7
	c0.6,0,1.1,0.1,1.7,0.3c1.2,0.3,3.2,1.2,2.8,2.1c-0.5,1.1-2.6-0.6-3.4-0.9c-0.5-0.2-1-0.3-1.5-0.3c-0.6,0-1.2,0.1-1.7,0.4
	c-0.4,0.2-0.7,0.7-0.7,1.1c-0.1,0.4,0.2,0.9,0.6,1c0.9,0.3,1.9,0.4,2.9,0.4c1.2,0,2.4,0.3,3.5,0.9c0.8,0.6,1.2,1.5,1.2,2.5
	c0.1,1.1-0.4,2.1-1.2,2.7c-1,0.8-2.3,1.1-3.5,1c-0.5,0-1.1-0.1-1.6-0.2C202.6,173.5,201.2,173.1,200,172.3z"/>
<path id="Path_2460" class="st6" d="M204.9,177.3L204.9,177.3c-0.6,0-1-0.5-1-1.1c0,0,0,0,0,0l0.5-14.7c0-0.4,0.4-0.7,0.8-0.7h0
	c0.4,0,0.8,0.3,0.8,0.7l-0.2,14.7C205.9,176.8,205.5,177.3,204.9,177.3C204.9,177.3,204.9,177.3,204.9,177.3L204.9,177.3z"/>
<path id="Path_2461" class="st2" d="M205,156c-6.7-0.1-13,4-14.2,10.1c-1.5,7.2,4.6,14.3,13.7,14.5s15.4-6.6,14.2-13.9
	C217.8,160.6,211.7,156.2,205,156z"/>
<g id="Group_149" transform="translate(113.465 119.691)" class="st3">
	<path id="Path_2462" class="st4" d="M91.5,35.5c-7.2-0.2-14,4.3-15.5,10.9c-1.7,7.9,4.8,15.8,15,16S108,55,106.5,47
		C105.4,40.4,98.7,35.7,91.5,35.5z M91.1,59.3c-8.2-0.2-13.6-6.4-12.4-12.9c1-5.6,6.7-9.4,12.9-9.3s11.7,4.2,12.5,9.8
		C104.9,53.5,99.2,59.5,91.1,59.3L91.1,59.3z"/>
</g>
<path id="Path_2463" class="st5" d="M205,154.2c-7.8-0.2-14.6,4.5-16.3,11.7c-1.1,7.4,3.7,16.2,15.2,17.1c11.4,0.2,18-8,17-16.3
	C220.1,159.4,212.8,154.4,205,154.2z M204.5,180.6c-9.1-0.2-15.2-7.3-13.7-14.5c1.2-6.1,7.5-10.2,14.2-10.1s12.8,4.5,13.8,10.7
	C219.9,173.9,213.7,180.7,204.5,180.6L204.5,180.6z"/>
<path id="Path_2464" class="st2" d="M205,154.1c-6.7-0.1-13,4-14.2,10.1c-1.5,7.2,4.6,14.3,13.7,14.5s15.4-6.6,14.2-13.9
	C217.8,158.6,211.7,154.2,205,154.1z"/>
<g id="Group_150" transform="translate(113.531 117.739)" class="st3">
	<path id="Path_2465" class="st4" d="M91.5,35.5c-7.2-0.2-14,4.3-15.5,10.9c-1.7,7.9,4.8,15.8,15,16S108,55,106.5,47
		C105.4,40.4,98.7,35.7,91.5,35.5z M91.1,59.3c-8.2-0.2-13.6-6.4-12.4-12.9c1-5.6,6.7-9.4,12.9-9.3s11.7,4.2,12.5,9.8
		C104.9,53.5,99.2,59.5,91.1,59.3L91.1,59.3z"/>
</g>
<path id="Path_2466" class="st6" d="M205.1,152.3c-7.8-0.2-14.6,4.5-16.3,11.7c-1.1,7.4,3.7,16.2,15.2,17.1c11.4,0.2,18-8,17-16.3
	C220.1,157.5,212.9,152.5,205.1,152.3z M204.6,178.6c-9.1-0.2-15.2-7.3-13.7-14.5c1.2-6.1,7.5-10.2,14.2-10.1s12.8,4.5,13.8,10.7
	C220,172,213.7,178.8,204.6,178.6L204.6,178.6z"/>
<path id="Path_2467" class="st6" d="M200,168.1c-0.2-0.1-0.2-0.4-0.2-0.6c0-0.5,0.3-0.9,0.8-1c0,0,0.1,0,0.1,0
	c0.9,0.1,1.8,0.4,2.5,0.9c0.7,0.3,1.4,0.5,2.2,0.5c0.7,0.1,1.4-0.1,2.1-0.5c0.5-0.3,0.8-0.8,0.7-1.4c0-0.5-0.2-1-0.6-1.3
	c-0.6-0.3-1.3-0.4-2.1-0.4l-0.6,0c-1.3,0.1-2.5-0.3-3.6-0.9c-0.8-0.5-1.2-1.4-1-2.4c0-0.9,0.5-1.7,1.3-2.2c1-0.5,2.1-0.8,3.2-0.7
	c0.6,0,1.1,0.1,1.7,0.3c1.2,0.3,3.2,1.2,2.8,2.1c-0.5,1.1-2.6-0.6-3.4-0.9c-0.5-0.2-1-0.3-1.5-0.3c-0.6,0-1.2,0.1-1.7,0.4
	c-0.4,0.2-0.7,0.7-0.7,1.1c-0.1,0.4,0.2,0.9,0.6,1c0.9,0.3,1.9,0.4,2.9,0.4c1.2,0,2.4,0.3,3.5,0.9c0.8,0.6,1.2,1.5,1.2,2.5
	c0.1,1.1-0.4,2.1-1.2,2.7c-1,0.8-2.3,1.1-3.5,1c-0.5,0-1.1-0.1-1.6-0.2C202.6,169.3,201.2,168.8,200,168.1z"/>
<path id="Path_2468" class="st6" d="M204.9,173L204.9,173c-0.6,0-1-0.5-1-1.1c0,0,0,0,0,0l0.5-14.7c0-0.4,0.4-0.7,0.8-0.7h0
	c0.4,0,0.8,0.3,0.8,0.7l-0.2,14.7C205.9,172.6,205.5,173,204.9,173C204.9,173,204.9,173,204.9,173z"/>
<path id="Path_2469" class="st2" d="M205,151.8c-6.7-0.1-13,4-14.2,10.1c-1.5,7.2,4.6,14.3,13.7,14.5s15.4-6.6,14.2-13.9
	C217.8,156.3,211.7,151.9,205,151.8z"/>
<g id="Group_151" transform="translate(113.502 115.46)" class="st3">
	<path id="Path_2470" class="st4" d="M91.5,35.5c-7.2-0.2-14,4.3-15.5,10.8c-1.7,7.9,4.8,15.8,15,16S108,55,106.5,47
		C105.4,40.4,98.7,35.7,91.5,35.5z M91.1,59.3c-8.2-0.2-13.6-6.4-12.4-12.9c1-5.6,6.7-9.4,12.9-9.3s11.7,4.2,12.5,9.8
		C104.9,53.5,99.2,59.5,91.1,59.3z"/>
</g>
<path id="Path_2471" class="st5" d="M205,150c-7.8-0.2-14.6,4.5-16.3,11.7c-1.1,7.4,3.7,16.2,15.2,17.1c11.4,0.2,18-8,17-16.3
	C220.1,155.2,212.9,150.2,205,150z M204.6,176.3c-9.1-0.2-15.2-7.3-13.7-14.5c1.2-6.1,7.5-10.2,14.2-10.1s12.8,4.5,13.8,10.7
	C220,169.7,213.7,176.5,204.6,176.3L204.6,176.3z"/>
<path id="Path_2472" class="st2" d="M205,149.8c-6.7-0.1-13,4-14.2,10.1c-1.5,7.2,4.6,14.3,13.7,14.5s15.4-6.6,14.2-13.9
	C217.8,154.4,211.7,150,205,149.8z"/>
<g id="Group_152" transform="translate(113.502 113.507)" class="st3">
	<path id="Path_2473" class="st4" d="M91.5,35.5c-7.2-0.2-14,4.3-15.5,10.9c-1.7,7.9,4.8,15.8,15,16S108,55,106.5,47
		C105.4,40.4,98.7,35.7,91.5,35.5z M91.1,59.3c-8.2-0.2-13.6-6.4-12.4-12.9c1-5.6,6.7-9.4,12.9-9.3s11.7,4.2,12.5,9.8
		C104.9,53.5,99.2,59.5,91.1,59.3L91.1,59.3z"/>
</g>
<path id="Path_2474" class="st6" d="M205,148.1c-7.8-0.2-14.6,4.5-16.3,11.7c-1.1,7.4,3.7,16.2,15.2,17.1c11.4,0.2,18-8,17-16.3
	C220.1,153.3,212.9,148.2,205,148.1z M204.6,174.4c-9.1-0.2-15.2-7.3-13.7-14.5c1.2-6.1,7.5-10.2,14.2-10.1s12.8,4.5,13.8,10.7
	C220,167.7,213.7,174.6,204.6,174.4L204.6,174.4z"/>
<path id="Path_2475" class="st6" d="M199.8,163.9c-0.2-0.1-0.2-0.4-0.2-0.6c0-0.5,0.3-0.9,0.8-1c0,0,0.1,0,0.1,0
	c0.9,0.1,1.8,0.4,2.5,0.9c0.7,0.3,1.4,0.5,2.2,0.5c0.7,0.1,1.4-0.1,2.1-0.5c0.5-0.3,0.8-0.8,0.7-1.4c0-0.5-0.2-1-0.6-1.3
	c-0.6-0.3-1.3-0.4-2.1-0.4l-0.6,0c-1.3,0.1-2.5-0.3-3.6-0.9c-0.8-0.5-1.2-1.4-1-2.4c0.1-0.9,0.6-1.7,1.3-2.2c1-0.5,2.1-0.8,3.2-0.7
	c0.6,0,1.1,0.1,1.7,0.3c1.2,0.3,3.2,1.2,2.8,2.1c-0.5,1.1-2.6-0.6-3.4-0.9c-0.5-0.2-1-0.3-1.5-0.3c-0.6,0-1.2,0.1-1.7,0.4
	c-0.4,0.2-0.7,0.7-0.7,1.1c-0.1,0.4,0.2,0.9,0.6,1c0.9,0.3,1.9,0.4,2.9,0.4c1.2,0,2.4,0.3,3.5,0.9c0.8,0.6,1.2,1.5,1.2,2.5
	c0.1,1.1-0.4,2.1-1.2,2.7c-1,0.8-2.3,1.1-3.5,1c-0.5,0-1.1-0.1-1.6-0.2C202.4,165.1,201,164.6,199.8,163.9z"/>
<path id="Path_2476" class="st6" d="M204.8,168.8L204.8,168.8c-0.6,0-1-0.5-1-1.1c0,0,0,0,0,0l0.5-14.7c0-0.4,0.4-0.7,0.8-0.7h0
	c0.4,0,0.8,0.3,0.8,0.7l-0.2,14.7C205.8,168.3,205.3,168.8,204.8,168.8C204.8,168.8,204.8,168.8,204.8,168.8L204.8,168.8z"/>
<path id="Path_2477" class="st2" d="M205,147.5c-6.7-0.1-13,4-14.2,10.1c-1.5,7.2,4.6,14.3,13.7,14.5s15.4-6.6,14.2-13.9
	C217.8,152.1,211.7,147.7,205,147.5z"/>
<g id="Group_153" transform="translate(113.465 111.226)" class="st3">
	<path id="Path_2478" class="st4" d="M91.5,35.5c-7.2-0.2-14,4.3-15.5,10.9c-1.7,7.9,4.8,15.8,15,16S108,55,106.5,47
		C105.4,40.4,98.7,35.7,91.5,35.5z M91.1,59.3c-8.2-0.2-13.6-6.4-12.4-12.9c1-5.6,6.7-9.4,12.9-9.3s11.7,4.2,12.5,9.8
		C104.9,53.5,99.2,59.5,91.1,59.3L91.1,59.3z"/>
</g>
<path id="Path_2479" class="st5" d="M205,145.8c-7.8-0.2-14.6,4.5-16.3,11.7c-1.1,7.4,3.7,16.2,15.2,17.1c11.4,0.2,18-8,17-16.3
	C220.1,151,212.8,146,205,145.8z M204.5,172.1c-9.1-0.2-15.2-7.3-13.7-14.5c1.2-6.1,7.5-10.2,14.2-10.1s12.8,4.5,13.8,10.7
	C219.9,165.5,213.7,172.3,204.5,172.1L204.5,172.1z"/>
<path id="Path_2480" class="st2" d="M205,145.6c-6.7-0.1-13,4-14.2,10.1c-1.5,7.2,4.6,14.3,13.7,14.5s15.4-6.6,14.2-13.9
	C217.8,150.1,211.7,145.7,205,145.6z"/>
<g id="Group_154" transform="translate(113.531 109.276)" class="st3">
	<path id="Path_2481" class="st4" d="M91.5,35.5c-7.2-0.2-14,4.3-15.5,10.8c-1.7,7.9,4.8,15.8,15,16S108,55,106.5,47
		C105.4,40.4,98.7,35.7,91.5,35.5z M91.1,59.3c-8.2-0.2-13.6-6.4-12.4-12.9c1-5.6,6.7-9.4,12.9-9.3s11.7,4.2,12.5,9.8
		C104.9,53.5,99.2,59.5,91.1,59.3z"/>
</g>
<path id="Path_2482" class="st6" d="M205.1,143.8c-7.8-0.2-14.6,4.5-16.3,11.7c-1.1,7.4,3.7,16.2,15.2,17.1c11.4,0.2,18-8,17-16.3
	C220.1,149,212.9,144,205.1,143.8z M204.6,170.1c-9.1-0.2-15.2-7.3-13.7-14.5c1.2-6.1,7.5-10.2,14.2-10.1s12.8,4.5,13.8,10.7
	C220,163.5,213.7,170.3,204.6,170.1L204.6,170.1z"/>
<path id="Path_2485" class="st2" d="M251.8,184.8c-6.7-0.1-13,4-14.2,10.1c-1.5,7.2,4.6,14.3,13.7,14.5s15.4-6.6,14.2-13.9
	C264.5,189.3,258.4,184.9,251.8,184.8z"/>
<g id="Group_155" transform="translate(160.247 148.448)" class="st3">
	<path id="Path_2486" class="st4" d="M91.5,35.5c-7.2-0.2-14,4.3-15.5,10.9c-1.7,7.9,4.8,15.8,15,16S108,55,106.5,47
		C105.4,40.4,98.7,35.7,91.5,35.5z M91.1,59.3c-8.2-0.2-13.6-6.4-12.4-12.9c1-5.6,6.7-9.4,12.9-9.3s11.7,4.2,12.5,9.8
		C104.9,53.5,99.2,59.5,91.1,59.3L91.1,59.3z"/>
</g>
<path id="Path_2487" class="st5" d="M251.8,183c-7.8-0.2-14.6,4.5-16.3,11.7c-1.1,7.4,3.7,16.2,15.2,17.1c11.4,0.2,18-8,17-16.3
	C266.9,188.2,259.6,183.2,251.8,183z M251.3,209.3c-9.1-0.2-15.2-7.3-13.7-14.5c1.2-6.1,7.5-10.2,14.2-10.1s12.8,4.5,13.8,10.7
	C266.7,202.7,260.4,209.5,251.3,209.3L251.3,209.3z"/>
<path id="Path_2488" class="st2" d="M251.8,182.8c-6.7-0.1-13,4-14.2,10.1c-1.5,7.2,4.6,14.3,13.7,14.5s15.4-6.6,14.2-13.9
	C264.6,187.4,258.5,183,251.8,182.8z"/>
<g id="Group_156" transform="translate(160.315 146.496)" class="st3">
	<path id="Path_2489" class="st4" d="M91.5,35.5c-7.2-0.2-14,4.3-15.5,10.9c-1.7,7.9,4.8,15.8,15,16S108,55,106.5,47
		C105.4,40.4,98.7,35.7,91.5,35.5z M91.1,59.3c-8.2-0.2-13.6-6.4-12.4-12.9c1-5.6,6.7-9.4,12.9-9.3s11.7,4.2,12.5,9.8
		C104.9,53.5,99.2,59.5,91.1,59.3L91.1,59.3z"/>
</g>
<path id="Path_2490" class="st6" d="M251.8,181.1c-7.8-0.2-14.6,4.5-16.3,11.7c-1.1,7.4,3.7,16.2,15.2,17.1c11.4,0.2,18-8,17-16.3
	C266.9,186.3,259.7,181.2,251.8,181.1z M251.4,207.4c-9.1-0.2-15.2-7.3-13.7-14.5c1.2-6.1,7.5-10.2,14.2-10.1s12.8,4.5,13.8,10.7
	C266.8,200.7,260.5,207.6,251.4,207.4L251.4,207.4z"/>
<path id="Path_2491" class="st6" d="M246.8,196.9c-0.2-0.1-0.2-0.4-0.2-0.6c0-0.5,0.3-0.9,0.8-1c0,0,0.1,0,0.1,0
	c0.9,0.1,1.8,0.4,2.5,0.9c0.7,0.3,1.4,0.5,2.2,0.5c0.7,0.1,1.4-0.1,2.1-0.5c0.5-0.3,0.8-0.8,0.7-1.4c0-0.5-0.2-1-0.6-1.3
	c-0.6-0.3-1.3-0.4-2.1-0.4l-0.6,0c-1.3,0.1-2.5-0.3-3.6-0.9c-0.8-0.5-1.2-1.4-1-2.4c0-0.9,0.5-1.7,1.3-2.2c1-0.5,2.1-0.8,3.2-0.7
	c0.6,0,1.1,0.1,1.7,0.3c1.2,0.3,3.2,1.2,2.8,2.1c-0.5,1.1-2.6-0.6-3.4-0.9c-0.5-0.2-1-0.3-1.5-0.3c-0.6,0-1.2,0.1-1.7,0.4
	c-0.4,0.2-0.7,0.7-0.7,1.1c0,0.4,0.2,0.8,0.6,1c0.9,0.3,1.9,0.4,2.9,0.4c1.2,0,2.4,0.3,3.5,0.9c0.8,0.6,1.2,1.5,1.2,2.5
	c0.1,1.1-0.4,2.1-1.2,2.7c-1,0.8-2.3,1.1-3.5,1c-0.5,0-1.1-0.1-1.6-0.2C249.3,198.1,248,197.6,246.8,196.9z"/>
<path id="Path_2492" class="st6" d="M251.7,201.8L251.7,201.8c-0.6,0-1-0.5-1-1.1c0,0,0,0,0,0l0.5-14.7c0-0.4,0.4-0.7,0.8-0.7h0
	c0.4,0,0.8,0.3,0.8,0.7l-0.2,14.7C252.7,201.3,252.3,201.8,251.7,201.8C251.7,201.8,251.7,201.8,251.7,201.8z"/>
<path id="Path_2493" class="st2" d="M251.8,180.1c-6.7-0.1-13,4-14.2,10.1c-1.5,7.2,4.6,14.3,13.7,14.5s15.4-6.6,14.2-13.9
	C264.6,184.7,258.5,180.3,251.8,180.1z"/>
<g id="Group_157" transform="translate(160.276 143.808)" class="st3">
	<path id="Path_2494" class="st4" d="M91.5,35.5c-7.2-0.2-14,4.3-15.5,10.8c-1.7,7.9,4.8,15.8,15,16S108,55,106.5,47
		C105.4,40.4,98.7,35.7,91.5,35.5z M91.1,59.3c-8.2-0.2-13.6-6.4-12.4-12.9c1-5.6,6.7-9.4,12.9-9.3s11.7,4.2,12.5,9.8
		C104.9,53.5,99.2,59.5,91.1,59.3z"/>
</g>
<path id="Path_2495" class="st5" d="M251.8,178.4c-7.8-0.2-14.6,4.5-16.3,11.7c-1.1,7.4,3.7,16.2,15.2,17.1c11.4,0.2,18-8,17-16.3
	C266.9,183.6,259.6,178.5,251.8,178.4z M251.3,204.7c-9.1-0.2-15.2-7.3-13.7-14.5c1.2-6.1,7.5-10.2,14.2-10.1s12.8,4.5,13.8,10.7
	C266.7,198,260.5,204.9,251.3,204.7L251.3,204.7z"/>
<path id="Path_2496" class="st2" d="M251.8,178.2c-6.7-0.1-13,4-14.2,10.1c-1.5,7.2,4.6,14.3,13.7,14.5s15.4-6.6,14.2-13.9
	C264.6,182.7,258.5,178.3,251.8,178.2z"/>
<g id="Group_158" transform="translate(160.276 141.857)" class="st3">
	<path id="Path_2497" class="st4" d="M91.5,35.5c-7.2-0.2-14,4.3-15.5,10.9c-1.7,7.9,4.8,15.8,15,16S108,55,106.5,47
		C105.4,40.4,98.7,35.7,91.5,35.5z M91.1,59.3c-8.2-0.2-13.6-6.4-12.4-12.9c1-5.6,6.7-9.4,12.9-9.3s11.7,4.2,12.5,9.8
		C104.9,53.5,99.2,59.5,91.1,59.3L91.1,59.3z"/>
</g>
<path id="Path_2498" class="st6" d="M251.8,176.4c-7.8-0.2-14.6,4.5-16.3,11.7c-1.1,7.4,3.7,16.2,15.2,17.1c11.4,0.2,18-8,17-16.3
	C266.9,181.6,259.6,176.6,251.8,176.4z M251.3,202.7c-9.1-0.2-15.2-7.3-13.7-14.5c1.2-6.1,7.5-10.2,14.2-10.1s12.8,4.5,13.8,10.7
	C266.7,196.1,260.5,202.9,251.3,202.7L251.3,202.7z"/>
<path id="Path_2499" class="st6" d="M246.6,192.2c-0.2-0.1-0.2-0.4-0.2-0.6c0-0.5,0.3-0.9,0.8-1c0,0,0.1,0,0.1,0
	c0.9,0.1,1.8,0.4,2.5,0.9c0.7,0.3,1.4,0.5,2.2,0.5c0.7,0.1,1.4-0.1,2.1-0.5c0.5-0.3,0.8-0.8,0.7-1.4c0-0.5-0.2-1-0.6-1.3
	c-0.6-0.3-1.3-0.4-2.1-0.4l-0.6,0c-1.3,0.1-2.5-0.3-3.6-0.9c-0.8-0.5-1.2-1.4-1-2.4c0.1-0.9,0.6-1.7,1.3-2.2c1-0.5,2.1-0.8,3.2-0.7
	c0.6,0,1.1,0.1,1.7,0.3c1.2,0.3,3.2,1.2,2.8,2.1c-0.5,1.1-2.6-0.6-3.4-0.9c-0.5-0.2-1-0.3-1.5-0.3c-0.6,0-1.2,0.1-1.7,0.4
	c-0.4,0.2-0.7,0.7-0.7,1.1c-0.1,0.4,0.2,0.9,0.6,1c0.9,0.3,1.9,0.4,2.9,0.4c1.2,0,2.4,0.3,3.5,0.9c0.8,0.6,1.2,1.5,1.2,2.5
	c0.1,1.1-0.4,2.1-1.2,2.7c-1,0.8-2.3,1.1-3.5,1c-0.5,0-1.1-0.1-1.6-0.2C249.2,193.4,247.8,192.9,246.6,192.2z"/>
<path id="Path_2500" class="st6" d="M251.5,197.2L251.5,197.2c-0.6,0-1-0.5-1-1.1c0,0,0,0,0,0l0.5-14.7c0-0.4,0.4-0.7,0.8-0.7h0
	c0.4,0,0.8,0.3,0.8,0.7l-0.2,14.7C252.5,196.7,252.1,197.2,251.5,197.2C251.5,197.2,251.5,197.2,251.5,197.2z"/>
<path id="Path_2501" class="st2" d="M251.8,175.5c-6.7-0.1-13,4-14.2,10.1c-1.5,7.2,4.6,14.3,13.7,14.5s15.4-6.6,14.2-13.9
	C264.5,180,258.4,175.6,251.8,175.5z"/>
<g id="Group_159" transform="translate(160.247 139.167)" class="st3">
	<path id="Path_2502" class="st4" d="M91.5,35.5c-7.2-0.2-14,4.3-15.5,10.9c-1.7,7.9,4.8,15.8,15,16S108,55,106.5,47
		C105.4,40.4,98.7,35.7,91.5,35.5z M91.1,59.3c-8.2-0.2-13.6-6.4-12.4-12.9c1-5.6,6.7-9.4,12.9-9.3s11.7,4.2,12.5,9.8
		C104.9,53.5,99.2,59.5,91.1,59.3L91.1,59.3z"/>
</g>
<path id="Path_2503" class="st5" d="M251.8,173.7c-7.8-0.2-14.6,4.5-16.3,11.7c-1.1,7.4,3.7,16.2,15.2,17.1c11.4,0.2,18-8,17-16.3
	C266.9,178.9,259.6,173.9,251.8,173.7z M251.3,200c-9.1-0.2-15.2-7.3-13.7-14.5c1.2-6.1,7.5-10.2,14.2-10.1s12.8,4.5,13.8,10.7
	C266.7,193.4,260.4,200.2,251.3,200L251.3,200z"/>
<path id="Path_2504" class="st2" d="M251.8,173.5c-6.7-0.1-13,4-14.2,10.1c-1.5,7.2,4.6,14.3,13.7,14.5s15.4-6.6,14.2-13.9
	C264.6,178.1,258.5,173.7,251.8,173.5z"/>
<g id="Group_160" transform="translate(160.315 137.215)" class="st3">
	<path id="Path_2505" class="st4" d="M91.5,35.5c-7.2-0.2-14,4.3-15.5,10.9c-1.7,7.9,4.8,15.8,15,16S108,55,106.5,47
		C105.4,40.4,98.7,35.7,91.5,35.5z M91.1,59.3c-8.2-0.2-13.6-6.4-12.4-12.9c1-5.6,6.7-9.4,12.9-9.3s11.7,4.2,12.5,9.8
		C104.9,53.5,99.2,59.5,91.1,59.3L91.1,59.3z"/>
</g>
<path id="Path_2506" class="st6" d="M251.8,171.8c-7.8-0.2-14.6,4.5-16.3,11.7c-1.1,7.4,3.7,16.2,15.2,17.1c11.4,0.2,18-8,17-16.3
	C266.9,177,259.7,171.9,251.8,171.8z M251.4,198.1c-9.1-0.2-15.2-7.3-13.7-14.5c1.2-6.1,7.5-10.2,14.2-10.1s12.8,4.5,13.8,10.7
	C266.8,191.4,260.5,198.3,251.4,198.1L251.4,198.1z"/>
<path id="Path_2507" class="st6" d="M246.8,187.6c-0.2-0.1-0.2-0.4-0.2-0.6c0-0.5,0.3-0.9,0.8-1c0,0,0.1,0,0.1,0
	c0.9,0.1,1.8,0.4,2.5,0.9c0.7,0.3,1.4,0.5,2.2,0.5c0.7,0.1,1.4-0.1,2.1-0.5c0.5-0.3,0.8-0.8,0.7-1.4c0-0.5-0.2-1-0.6-1.3
	c-0.6-0.3-1.3-0.4-2.1-0.4l-0.6,0c-1.3,0.1-2.5-0.3-3.6-0.9c-0.8-0.5-1.2-1.4-1-2.4c0-0.9,0.5-1.7,1.3-2.2c1-0.5,2.1-0.8,3.2-0.7
	c0.6,0,1.1,0.1,1.7,0.3c1.2,0.3,3.2,1.2,2.8,2.1c-0.5,1.1-2.6-0.6-3.4-0.9c-0.5-0.2-1-0.3-1.5-0.3c-0.6,0-1.2,0.1-1.7,0.4
	c-0.4,0.2-0.7,0.7-0.7,1.1c0,0.4,0.2,0.8,0.6,1c0.9,0.3,1.9,0.4,2.9,0.4c1.2,0,2.4,0.3,3.5,0.9c0.8,0.6,1.2,1.5,1.2,2.5
	c0.1,1.1-0.4,2.1-1.2,2.7c-1,0.8-2.3,1.1-3.5,1c-0.5,0-1.1-0.1-1.6-0.2C249.3,188.8,248,188.3,246.8,187.6z"/>
<path id="Path_2508" class="st6" d="M251.7,192.5L251.7,192.5c-0.6,0-1-0.5-1-1.1c0,0,0,0,0,0l0.5-14.7c0-0.4,0.4-0.7,0.8-0.7h0
	c0.4,0,0.8,0.3,0.8,0.7l-0.2,14.7C252.7,192,252.3,192.5,251.7,192.5C251.7,192.5,251.7,192.5,251.7,192.5z"/>
<path id="Path_2509" class="st2" d="M251.8,170.8c-6.7-0.1-13,4-14.2,10.1c-1.5,7.2,4.6,14.3,13.7,14.5s15.4-6.6,14.2-13.9
	C264.6,175.4,258.5,171,251.8,170.8z"/>
<g id="Group_161" transform="translate(160.276 134.525)" class="st3">
	<path id="Path_2510" class="st4" d="M91.5,35.5c-7.2-0.2-14,4.3-15.5,10.9c-1.7,7.9,4.8,15.8,15,16S108,55,106.5,47
		C105.4,40.4,98.7,35.7,91.5,35.5z M91.1,59.3c-8.2-0.2-13.6-6.4-12.4-12.9c1-5.6,6.7-9.4,12.9-9.3s11.7,4.2,12.5,9.8
		C104.9,53.5,99.2,59.5,91.1,59.3z"/>
</g>
<path id="Path_2511" class="st5" d="M251.8,169.1c-7.8-0.2-14.6,4.5-16.3,11.7c-1.1,7.4,3.7,16.2,15.2,17.1c11.4,0.2,18-8,17-16.3
	C266.9,174.3,259.6,169.3,251.8,169.1z M251.3,195.4c-9.1-0.2-15.2-7.3-13.7-14.5c1.2-6.1,7.5-10.2,14.2-10.1s12.8,4.5,13.8,10.7
	C266.7,188.8,260.5,195.6,251.3,195.4L251.3,195.4z"/>
<path id="Path_2512" class="st2" d="M251.8,168.9c-6.7-0.1-13,4-14.2,10.1c-1.5,7.2,4.6,14.3,13.7,14.5s15.4-6.6,14.2-13.9
	C264.6,173.4,258.5,169,251.8,168.9z"/>
<g id="Group_162" transform="translate(160.276 132.557)" class="st3">
	<path id="Path_2513" class="st4" d="M91.5,35.5c-7.2-0.2-14,4.3-15.5,10.8c-1.7,7.9,4.8,15.8,15,16S108,55,106.5,47
		C105.4,40.4,98.7,35.7,91.5,35.5z M91.1,59.3c-8.2-0.2-13.6-6.4-12.4-12.9c1-5.6,6.7-9.4,12.9-9.3s11.7,4.2,12.5,9.8
		C104.9,53.5,99.2,59.5,91.1,59.3L91.1,59.3z"/>
</g>
<path id="Path_2514" class="st6" d="M251.8,167.1c-7.8-0.2-14.6,4.5-16.3,11.7c-1.1,7.4,3.7,16.2,15.2,17.1c11.4,0.2,18-8,17-16.3
	C266.9,172.3,259.6,167.3,251.8,167.1z M251.3,193.4c-9.1-0.2-15.2-7.3-13.7-14.5c1.2-6.1,7.5-10.2,14.2-10.1s12.8,4.5,13.8,10.7
	C266.7,186.8,260.5,193.6,251.3,193.4L251.3,193.4z"/>
<path id="Path_2515" class="st6" d="M246.6,182.9c-0.2-0.1-0.2-0.4-0.2-0.6c0-0.5,0.3-0.9,0.8-1c0,0,0.1,0,0.1,0
	c0.9,0.1,1.8,0.4,2.5,0.9c0.7,0.3,1.4,0.5,2.2,0.5c0.7,0.1,1.4-0.1,2.1-0.5c0.5-0.3,0.8-0.8,0.7-1.4c0-0.5-0.2-1-0.6-1.3
	c-0.6-0.3-1.3-0.4-2.1-0.4l-0.6,0c-1.3,0.1-2.5-0.3-3.6-0.9c-0.8-0.5-1.2-1.4-1-2.4c0.1-0.9,0.6-1.7,1.3-2.2c1-0.5,2.1-0.8,3.2-0.7
	c0.6,0,1.1,0.1,1.7,0.3c1.2,0.3,3.2,1.2,2.8,2.1c-0.5,1.1-2.6-0.6-3.4-0.9c-0.5-0.2-1-0.3-1.5-0.3c-0.6,0-1.2,0.1-1.7,0.4
	c-0.4,0.2-0.7,0.7-0.7,1.1c-0.1,0.4,0.2,0.9,0.6,1c0.9,0.3,1.9,0.4,2.9,0.4c1.2,0,2.4,0.3,3.5,0.9c0.8,0.6,1.2,1.5,1.2,2.5
	c0.1,1.1-0.4,2.1-1.2,2.7c-1,0.8-2.3,1.1-3.5,1c-0.5,0-1.1-0.1-1.6-0.2C249.2,184.1,247.8,183.6,246.6,182.9z"/>
<path id="Path_2516" class="st6" d="M251.5,187.9L251.5,187.9c-0.6,0-1-0.5-1-1.1c0,0,0,0,0,0l0.5-14.7c0-0.4,0.4-0.7,0.8-0.7h0
	c0.4,0,0.8,0.3,0.8,0.7l-0.2,14.7C252.5,187.4,252.1,187.8,251.5,187.9C251.5,187.9,251.5,187.9,251.5,187.9z"/>
<path id="Path_2517" class="st2" d="M254.2,165.2c-6.7-0.1-13,4-14.2,10.1c-1.5,7.2,4.6,14.3,13.7,14.5s15.4-6.6,14.2-13.9
	C267,169.8,260.9,165.4,254.2,165.2z"/>
<g id="Group_163" transform="translate(162.668 128.926)" class="st3">
	<path id="Path_2518" class="st4" d="M91.5,35.5c-7.2-0.2-14,4.3-15.5,10.9c-1.7,7.9,4.8,15.8,15,16S108,55,106.5,47
		C105.4,40.4,98.7,35.7,91.5,35.5z M91.1,59.3c-8.2-0.2-13.6-6.4-12.4-12.9c1-5.6,6.7-9.4,12.9-9.3s11.7,4.2,12.5,9.8
		C104.9,53.5,99.2,59.5,91.1,59.3L91.1,59.3z"/>
</g>
<path id="Path_2519" class="st5" d="M254.2,163.5c-7.8-0.2-14.6,4.5-16.3,11.7c-1.1,7.4,3.7,16.2,15.2,17.1c11.4,0.2,18-8,17-16.3
	C269.3,168.7,262,163.7,254.2,163.5z M253.7,189.8c-9.1-0.2-15.2-7.3-13.7-14.5c1.2-6.1,7.5-10.2,14.2-10.1s12.8,4.5,13.8,10.7
	C269.1,183.2,262.9,190,253.7,189.8L253.7,189.8z"/>
<path id="Path_2520" class="st2" d="M254.2,163.3c-6.7-0.1-13,4-14.2,10.1c-1.5,7.2,4.6,14.3,13.7,14.5s15.4-6.6,14.2-13.9
	C267,167.8,260.9,163.4,254.2,163.3z"/>
<g id="Group_164" transform="translate(162.726 126.973)" class="st3">
	<path id="Path_2521" class="st4" d="M91.5,35.5c-7.2-0.2-14,4.3-15.5,10.9c-1.7,7.9,4.8,15.8,15,16S108,55,106.5,47
		C105.4,40.4,98.7,35.7,91.5,35.5z M91.1,59.3c-8.2-0.2-13.6-6.4-12.4-12.9c1-5.6,6.7-9.4,12.9-9.3s11.7,4.2,12.5,9.8
		C104.9,53.5,99.2,59.5,91.1,59.3L91.1,59.3z"/>
</g>
<path id="Path_2522" class="st6" d="M254.3,161.5c-7.8-0.2-14.6,4.5-16.3,11.7c-1.1,7.4,3.7,16.2,15.2,17.1c11.4,0.2,18-8,17-16.3
	C269.3,166.7,262.1,161.7,254.3,161.5z M253.8,187.8c-9.1-0.2-15.2-7.3-13.7-14.5c1.2-6.1,7.5-10.2,14.2-10.1S267,167.8,268,174
	C269.2,181.2,262.9,188,253.8,187.8L253.8,187.8z"/>
<path id="Path_2523" class="st6" d="M249.2,177.3c-0.2-0.1-0.2-0.4-0.2-0.6c0-0.5,0.3-0.9,0.8-1c0,0,0.1,0,0.1,0
	c0.9,0.1,1.8,0.4,2.5,0.9c0.7,0.3,1.4,0.5,2.2,0.5c0.7,0.1,1.4-0.1,2.1-0.5c0.5-0.3,0.8-0.8,0.7-1.4c0-0.5-0.2-1-0.6-1.3
	c-0.6-0.3-1.3-0.4-2.1-0.4l-0.6,0c-1.3,0.1-2.5-0.3-3.6-0.9c-0.8-0.5-1.2-1.4-1-2.4c0.1-0.9,0.5-1.7,1.3-2.2c1-0.5,2.1-0.8,3.2-0.7
	c0.6,0,1.1,0.1,1.7,0.3c1.2,0.3,3.2,1.2,2.8,2.1c-0.5,1.1-2.6-0.6-3.4-0.9c-0.5-0.2-1-0.3-1.5-0.3c-0.6,0-1.2,0.1-1.7,0.4
	c-0.4,0.2-0.7,0.7-0.7,1.1c-0.1,0.4,0.2,0.9,0.6,1c0.9,0.3,1.9,0.4,2.9,0.4c1.2,0,2.4,0.3,3.5,0.9c0.8,0.6,1.2,1.5,1.2,2.5
	c0.1,1.1-0.4,2.1-1.2,2.8c-1,0.8-2.3,1.1-3.5,1c-0.5,0-1.1-0.1-1.6-0.2C251.7,178.5,250.4,178,249.2,177.3z"/>
<path id="Path_2524" class="st6" d="M254.1,182.3L254.1,182.3c-0.6,0-1-0.5-1-1.1c0,0,0,0,0,0l0.5-14.7c0-0.4,0.4-0.7,0.8-0.7h0
	c0.4,0,0.8,0.3,0.8,0.7l-0.2,14.7C255.1,181.8,254.7,182.3,254.1,182.3C254.1,182.3,254.1,182.3,254.1,182.3z"/>
<path id="Path_2525" class="st2" d="M251.8,161.5c-6.7-0.1-13,4-14.2,10.1c-1.5,7.2,4.6,14.3,13.7,14.5s15.4-6.6,14.2-13.9
	C264.6,166.1,258.5,161.7,251.8,161.5z"/>
<g id="Group_165" transform="translate(160.276 125.221)" class="st3">
	<path id="Path_2526" class="st4" d="M91.5,35.5c-7.2-0.2-14,4.3-15.5,10.9c-1.7,7.9,4.8,15.8,15,16S108,55,106.5,47
		C105.4,40.4,98.7,35.7,91.5,35.5z M91.1,59.3c-8.2-0.2-13.6-6.4-12.4-12.9c1-5.6,6.7-9.4,12.9-9.3s11.7,4.2,12.5,9.8
		C104.9,53.5,99.2,59.5,91.1,59.3L91.1,59.3z"/>
</g>
<path id="Path_2527" class="st5" d="M251.8,159.8c-7.8-0.2-14.6,4.5-16.3,11.7c-1.1,7.4,3.7,16.2,15.2,17.1c11.4,0.2,18-8,17-16.3
	C266.9,165,259.6,159.9,251.8,159.8z M251.3,186.1c-9.1-0.2-15.2-7.3-13.7-14.5c1.2-6.1,7.5-10.2,14.2-10.1s12.8,4.5,13.8,10.7
	C266.7,179.5,260.5,186.3,251.3,186.1L251.3,186.1z"/>
<path id="Path_2528" class="st2" d="M251.8,159.6c-6.7-0.1-13,4-14.2,10.1c-1.5,7.2,4.6,14.3,13.7,14.5s15.4-6.6,14.2-13.9
	C264.6,164.1,258.5,159.7,251.8,159.6z"/>
<g id="Group_166" transform="translate(160.276 123.271)" class="st3">
	<path id="Path_2529" class="st4" d="M91.5,35.5c-7.2-0.2-14,4.3-15.5,10.8c-1.7,7.9,4.8,15.8,15,16S108,55,106.5,47
		C105.4,40.4,98.7,35.7,91.5,35.5z M91.1,59.3c-8.2-0.2-13.6-6.4-12.4-12.9c1-5.6,6.7-9.4,12.9-9.3s11.7,4.2,12.5,9.8
		C104.9,53.5,99.2,59.5,91.1,59.3z"/>
</g>
<path id="Path_2530" class="st6" d="M251.8,157.8c-7.8-0.2-14.6,4.5-16.3,11.7c-1.1,7.4,3.7,16.2,15.2,17.1c11.4,0.2,18-8,17-16.3
	C266.9,163,259.6,158,251.8,157.8z M251.3,184.1c-9.1-0.2-15.2-7.3-13.7-14.5c1.2-6.1,7.5-10.2,14.2-10.1s12.8,4.5,13.8,10.7
	C266.7,177.5,260.5,184.3,251.3,184.1L251.3,184.1z"/>
<path id="Path_2533" class="st2" d="M229.9,203.2c-6.7-0.1-13,4-14.2,10.1c-1.5,7.2,4.6,14.3,13.7,14.5s15.4-6.6,14.2-13.9
	C242.6,207.8,236.5,203.4,229.9,203.2z"/>
<g id="Group_167" transform="translate(138.353 166.9)" class="st3">
	<path id="Path_2534" class="st4" d="M91.5,35.5c-7.2-0.2-14,4.3-15.5,10.9c-1.7,7.9,4.8,15.8,15,16S108,55,106.5,47
		C105.4,40.4,98.7,35.7,91.5,35.5z M91.1,59.3c-8.2-0.2-13.6-6.4-12.4-12.9c1-5.6,6.7-9.4,12.9-9.3s11.7,4.2,12.5,9.8
		C104.9,53.5,99.2,59.5,91.1,59.3L91.1,59.3z"/>
</g>
<path id="Path_2535" class="st5" d="M229.9,201.5c-7.8-0.2-14.6,4.5-16.3,11.7c-1.1,7.4,3.7,16.2,15.2,17.1c11.4,0.2,18-8,17-16.3
	C245,206.6,237.7,201.6,229.9,201.5z M229.4,227.8c-9.1-0.2-15.2-7.3-13.7-14.5c1.2-6.1,7.5-10.2,14.2-10.1s12.8,4.5,13.8,10.7
	C244.8,221.1,238.6,228,229.4,227.8L229.4,227.8z"/>
<path id="Path_2536" class="st2" d="M229.9,201.3c-6.7-0.1-13,4-14.2,10.1c-1.5,7.2,4.6,14.3,13.7,14.5s15.4-6.6,14.2-13.9
	C242.7,205.8,236.6,201.4,229.9,201.3z"/>
<g id="Group_168" transform="translate(138.413 164.949)" class="st3">
	<path id="Path_2537" class="st4" d="M91.5,35.5c-7.2-0.2-14,4.3-15.5,10.9c-1.7,7.9,4.8,15.8,15,16S108,55,106.5,47
		C105.4,40.4,98.7,35.7,91.5,35.5z M91.1,59.3c-8.2-0.2-13.6-6.4-12.4-12.9c1-5.6,6.7-9.4,12.9-9.3s11.7,4.2,12.5,9.8
		C104.9,53.5,99.2,59.5,91.1,59.3z"/>
</g>
<path id="Path_2538" class="st6" d="M230,199.5c-7.8-0.2-14.6,4.5-16.3,11.7c-1.1,7.4,3.7,16.2,15.2,17.1c11.4,0.2,18-8,17-16.3
	C245,204.7,237.8,199.7,230,199.5z M229.5,225.8c-9.1-0.2-15.2-7.3-13.7-14.5c1.2-6.1,7.5-10.2,14.2-10.1s12.8,4.5,13.8,10.7
	C244.9,219.2,238.6,226,229.5,225.8L229.5,225.8z"/>
<path id="Path_2539" class="st6" d="M224.9,215.3c-0.2-0.1-0.2-0.4-0.2-0.6c0-0.5,0.3-0.9,0.8-1c0,0,0.1,0,0.1,0
	c0.9,0.1,1.8,0.4,2.5,0.9c0.7,0.3,1.4,0.5,2.2,0.5c0.7,0.1,1.4-0.1,2.1-0.5c0.5-0.3,0.8-0.8,0.7-1.4c0-0.5-0.2-1-0.6-1.3
	c-0.6-0.3-1.3-0.4-2.1-0.4l-0.6,0c-1.3,0.1-2.5-0.3-3.6-0.9c-0.8-0.5-1.2-1.4-1-2.4c0.1-0.9,0.5-1.7,1.3-2.2c1-0.5,2.1-0.8,3.2-0.7
	c0.6,0,1.1,0.1,1.7,0.3c1.2,0.3,3.2,1.2,2.8,2.1c-0.5,1.1-2.6-0.6-3.4-0.9c-0.5-0.2-1-0.3-1.5-0.3c-0.6,0-1.2,0.1-1.7,0.4
	c-0.4,0.2-0.7,0.7-0.7,1.1c-0.1,0.4,0.2,0.9,0.6,1c0.9,0.3,1.9,0.4,2.9,0.4c1.2,0,2.4,0.3,3.5,0.9c0.8,0.6,1.2,1.5,1.2,2.5
	c0.1,1.1-0.4,2.1-1.2,2.7c-1,0.8-2.3,1.1-3.5,1c-0.5,0-1.1-0.1-1.6-0.2C227.4,216.5,226.1,216,224.9,215.3z"/>
<path id="Path_2540" class="st6" d="M229.8,220.3L229.8,220.3c-0.6,0-1-0.5-1-1.1c0,0,0,0,0,0l0.5-14.7c0-0.4,0.4-0.7,0.8-0.7h0
	c0.4,0,0.8,0.3,0.8,0.7l-0.2,14.7C230.8,219.8,230.4,220.2,229.8,220.3C229.8,220.3,229.8,220.3,229.8,220.3L229.8,220.3z"/>
<path id="Path_2541" class="st2" d="M229.9,199.5c-6.7-0.1-13,4-14.2,10.1c-1.5,7.2,4.6,14.3,13.7,14.5s15.4-6.6,14.2-13.9
	C242.7,204.1,236.6,199.7,229.9,199.5z"/>
<g id="Group_169" transform="translate(138.384 163.185)" class="st3">
	<path id="Path_2542" class="st4" d="M91.5,35.5c-7.2-0.2-14,4.3-15.5,10.9c-1.7,7.9,4.8,15.8,15,16S108,55,106.5,47
		C105.4,40.4,98.7,35.7,91.5,35.5z M91.1,59.3c-8.2-0.2-13.6-6.4-12.4-12.9c1-5.6,6.7-9.4,12.9-9.3s11.7,4.2,12.5,9.8
		C104.9,53.5,99.2,59.5,91.1,59.3L91.1,59.3z"/>
</g>
<path id="Path_2543" class="st5" d="M229.9,197.7c-7.8-0.2-14.6,4.5-16.3,11.7c-1.1,7.4,3.7,16.2,15.2,17.1c11.4,0.2,18-8,17-16.3
	C245,202.9,237.8,197.9,229.9,197.7z M229.5,224.1c-9.1-0.2-15.2-7.3-13.7-14.5c1.2-6.1,7.5-10.2,14.2-10.1s12.8,4.5,13.8,10.7
	C244.9,217.4,238.6,224.2,229.5,224.1L229.5,224.1z"/>
<path id="Path_2544" class="st2" d="M229.9,197.6c-6.7-0.1-13,4-14.2,10.1c-1.4,7.2,4.6,14.3,13.7,14.5s15.4-6.6,14.2-13.9
	C242.7,202.1,236.6,197.7,229.9,197.6z"/>
<g id="Group_170" transform="translate(138.384 161.234)" class="st3">
	<path id="Path_2545" class="st4" d="M91.5,35.5c-7.2-0.2-14,4.3-15.5,10.9c-1.7,7.9,4.8,15.8,15,16S108,55,106.5,47
		C105.4,40.4,98.7,35.7,91.5,35.5z M91.1,59.3c-8.2-0.2-13.6-6.4-12.4-12.9c1-5.6,6.7-9.4,12.9-9.3s11.7,4.2,12.5,9.8
		C104.9,53.5,99.2,59.5,91.1,59.3L91.1,59.3z"/>
</g>
<path id="Path_2546" class="st6" d="M229.9,195.8c-7.8-0.2-14.6,4.5-16.3,11.7c-1.1,7.4,3.7,16.2,15.2,17.1c11.4,0.2,18-8,17-16.3
	C245,201,237.8,196,229.9,195.8z M229.5,222.1c-9.1-0.2-15.2-7.3-13.7-14.5c1.2-6.1,7.5-10.2,14.2-10.1s12.8,4.5,13.8,10.7
	C244.9,215.5,238.6,222.3,229.5,222.1L229.5,222.1z"/>
<path id="Path_2547" class="st6" d="M224.7,211.6c-0.2-0.1-0.2-0.4-0.2-0.6c0-0.5,0.3-0.9,0.8-1c0,0,0.1,0,0.1,0
	c0.9,0.1,1.8,0.4,2.5,0.9c0.7,0.3,1.4,0.5,2.2,0.5c0.7,0.1,1.4-0.1,2.1-0.5c0.5-0.3,0.8-0.8,0.7-1.4c0-0.5-0.2-1-0.6-1.3
	c-0.6-0.3-1.3-0.4-2.1-0.4l-0.6,0c-1.3,0.1-2.5-0.3-3.6-0.9c-0.8-0.5-1.2-1.4-1-2.4c0.1-0.9,0.5-1.7,1.3-2.2c1-0.5,2.1-0.8,3.2-0.7
	c0.6,0,1.1,0.1,1.7,0.3c1.2,0.3,3.2,1.2,2.8,2.1c-0.5,1.1-2.6-0.6-3.4-0.9c-0.5-0.2-1-0.3-1.5-0.3c-0.6,0-1.2,0.1-1.7,0.4
	c-0.4,0.2-0.7,0.7-0.7,1.1c-0.1,0.4,0.2,0.9,0.6,1c0.9,0.3,1.9,0.4,2.9,0.4c1.2,0,2.4,0.3,3.5,0.9c0.8,0.6,1.2,1.5,1.2,2.5
	c0.1,1.1-0.4,2.1-1.2,2.7c-1,0.8-2.3,1.1-3.5,1c-0.5,0-1.1-0.1-1.6-0.2C227.3,212.8,225.9,212.3,224.7,211.6z"/>
<path id="Path_2548" class="st6" d="M229.6,216.5L229.6,216.5c-0.6,0-1-0.5-0.9-1.1c0,0,0,0,0,0l0.5-14.7c0-0.4,0.4-0.7,0.8-0.7h0
	c0.4,0,0.8,0.3,0.8,0.7l-0.2,14.7C230.6,216.1,230.2,216.5,229.6,216.5C229.6,216.5,229.6,216.5,229.6,216.5z"/>
<path id="Path_2549" class="st2" d="M230.1,195.1c-6.7-0.1-13,4-14.2,10.1c-1.5,7.2,4.6,14.3,13.7,14.5s15.4-6.6,14.2-13.9
	C242.8,199.7,236.7,195.3,230.1,195.1z"/>
<g id="Group_171" transform="translate(138.548 158.821)" class="st3">
	<path id="Path_2550" class="st4" d="M91.5,35.5c-7.2-0.2-14,4.3-15.5,10.9c-1.7,7.9,4.8,15.8,15,16S108,55,106.5,47
		C105.4,40.4,98.7,35.7,91.5,35.5z M91.1,59.3c-8.2-0.2-13.6-6.4-12.4-12.9c1-5.6,6.7-9.4,12.9-9.3s11.7,4.2,12.5,9.8
		C104.9,53.5,99.2,59.5,91.1,59.3z"/>
</g>
<path id="Path_2551" class="st5" d="M230.1,193.4c-7.8-0.2-14.6,4.5-16.3,11.7c-1.1,7.4,3.7,16.2,15.2,17.1c11.4,0.2,18-8,17-16.3
	C245.2,198.6,237.9,193.5,230.1,193.4z M229.6,219.7c-9.1-0.2-15.2-7.3-13.7-14.5c1.2-6.1,7.5-10.2,14.2-10.1s12.8,4.5,13.8,10.7
	C245,213.1,238.7,219.9,229.6,219.7L229.6,219.7z"/>
<path id="Path_2552" class="st2" d="M230.1,193.2c-6.7-0.1-13,4-14.2,10.1c-1.5,7.2,4.6,14.3,13.7,14.5s15.4-6.6,14.2-13.9
	C242.9,197.7,236.8,193.3,230.1,193.2z"/>
<g id="Group_172" transform="translate(138.606 156.87)" class="st3">
	<path id="Path_2553" class="st4" d="M91.5,35.5c-7.2-0.2-14,4.3-15.5,10.9c-1.7,7.9,4.8,15.8,15,16S108,55,106.5,47
		C105.4,40.4,98.7,35.7,91.5,35.5z M91.1,59.3c-8.2-0.2-13.6-6.4-12.4-12.9c1-5.6,6.7-9.4,12.9-9.3s11.7,4.2,12.5,9.8
		C104.9,53.5,99.2,59.5,91.1,59.3z"/>
</g>
<path id="Path_2554" class="st6" d="M230.2,191.4c-7.8-0.2-14.6,4.5-16.3,11.7c-1.1,7.4,3.7,16.2,15.2,17.1c11.4,0.2,18-8,17-16.3
	C245.2,196.6,238,191.6,230.2,191.4z M229.7,217.7c-9.1-0.2-15.2-7.3-13.7-14.5c1.2-6.1,7.5-10.2,14.2-10.1s12.8,4.5,13.8,10.7
	C245.1,211.1,238.8,217.9,229.7,217.7L229.7,217.7z"/>
<path id="Path_2555" class="st6" d="M225.1,207.2c-0.2-0.1-0.2-0.4-0.2-0.6c0-0.5,0.3-0.9,0.8-1c0,0,0.1,0,0.1,0
	c0.9,0.1,1.8,0.4,2.5,0.9c0.7,0.3,1.4,0.5,2.2,0.5c0.7,0.1,1.4-0.1,2.1-0.5c0.5-0.3,0.8-0.8,0.7-1.4c0-0.5-0.2-1-0.6-1.3
	c-0.6-0.3-1.3-0.4-2.1-0.4l-0.6,0c-1.3,0.1-2.5-0.3-3.6-0.9c-0.8-0.5-1.2-1.4-1-2.4c0.1-0.9,0.5-1.7,1.3-2.2c1-0.5,2.1-0.8,3.2-0.7
	c0.6,0,1.1,0.1,1.7,0.3c1.2,0.3,3.2,1.2,2.8,2.1c-0.5,1.1-2.6-0.6-3.4-0.9c-0.5-0.2-1-0.3-1.5-0.3c-0.6,0-1.2,0.1-1.7,0.4
	c-0.4,0.2-0.7,0.7-0.7,1.1c-0.1,0.4,0.2,0.9,0.6,1c0.9,0.3,1.9,0.4,2.9,0.4c1.2,0,2.4,0.3,3.5,0.9c0.8,0.6,1.2,1.5,1.2,2.5
	c0.1,1.1-0.4,2.1-1.2,2.7c-1,0.8-2.3,1.1-3.5,1c-0.5,0-1.1-0.1-1.6-0.2C227.6,208.4,226.3,208,225.1,207.2z"/>
<path id="Path_2556" class="st6" d="M230,212.2L230,212.2c-0.6,0-1-0.5-1-1.1c0,0,0,0,0,0l0.5-14.7c0-0.4,0.4-0.7,0.8-0.7h0
	c0.4,0,0.8,0.3,0.8,0.7l-0.2,14.7C231,211.7,230.6,212.2,230,212.2C230,212.2,230,212.2,230,212.2L230,212.2z"/>
<path id="Path_2557" class="st2" d="M230.1,190.7c-6.7-0.1-13,4-14.2,10.1c-1.5,7.2,4.6,14.3,13.7,14.5s15.4-6.6,14.2-13.9
	C242.9,195.3,236.8,190.9,230.1,190.7z"/>
<g id="Group_173" transform="translate(138.577 154.419)" class="st3">
	<path id="Path_2558" class="st4" d="M91.5,35.5c-7.2-0.2-14,4.3-15.5,10.9c-1.7,7.9,4.8,15.8,15,16S108,55,106.5,47
		C105.4,40.4,98.7,35.7,91.5,35.5z M91.1,59.3c-8.2-0.2-13.6-6.4-12.4-12.9c1-5.6,6.7-9.4,12.9-9.3s11.7,4.2,12.5,9.8
		C104.9,53.5,99.2,59.5,91.1,59.3L91.1,59.3z"/>
</g>
<path id="Path_2559" class="st5" d="M230.1,189c-7.8-0.2-14.6,4.5-16.3,11.7c-1.1,7.4,3.7,16.2,15.2,17.1c11.4,0.2,18-8,17-16.3
	C245.2,194.2,237.9,189.1,230.1,189z M229.6,215.3c-9.1-0.2-15.2-7.3-13.7-14.5c1.2-6.1,7.5-10.2,14.2-10.1s12.8,4.5,13.8,10.7
	C245,208.7,238.8,215.5,229.6,215.3L229.6,215.3z"/>
<path id="Path_2560" class="st2" d="M230.1,188.8c-6.7-0.1-13,4-14.2,10.1c-1.5,7.2,4.6,14.3,13.7,14.5s15.4-6.6,14.2-13.9
	C242.9,193.3,236.8,188.9,230.1,188.8z"/>
<g id="Group_174" transform="translate(138.577 152.467)" class="st3">
	<path id="Path_2561" class="st4" d="M91.5,35.5c-7.2-0.2-14,4.3-15.5,10.9c-1.7,7.9,4.8,15.8,15,16S108,55,106.5,47
		C105.4,40.4,98.7,35.7,91.5,35.5z M91.1,59.3c-8.2-0.2-13.6-6.4-12.4-12.9c1-5.6,6.7-9.4,12.9-9.3s11.7,4.2,12.5,9.8
		C104.9,53.5,99.2,59.5,91.1,59.3L91.1,59.3z"/>
</g>
<path id="Path_2562" class="st6" d="M230.1,187c-7.8-0.2-14.6,4.5-16.3,11.7c-1.1,7.4,3.7,16.2,15.2,17.1c11.4,0.2,18-8,17-16.3
	C245.2,192.2,237.9,187.2,230.1,187z M229.6,213.3c-9.1-0.2-15.2-7.3-13.7-14.5c1.2-6.1,7.5-10.2,14.2-10.1s12.8,4.5,13.8,10.7
	C245,206.7,238.8,213.5,229.6,213.3L229.6,213.3z"/>
<path id="Path_2563" class="st6" d="M224.9,202.8c-0.2-0.1-0.2-0.4-0.2-0.6c0-0.5,0.3-0.9,0.8-1c0,0,0.1,0,0.1,0
	c0.9,0.1,1.8,0.4,2.5,0.9c0.7,0.3,1.4,0.5,2.2,0.5c0.7,0.1,1.4-0.1,2.1-0.5c0.5-0.3,0.8-0.8,0.7-1.4c0-0.5-0.2-1-0.6-1.3
	c-0.6-0.3-1.3-0.4-2.1-0.4l-0.6,0c-1.3,0.1-2.5-0.3-3.6-0.9c-0.8-0.5-1.2-1.4-1-2.4c0.1-0.9,0.6-1.7,1.3-2.2c1-0.5,2.1-0.8,3.2-0.7
	c0.6,0,1.1,0.1,1.7,0.3c1.2,0.3,3.2,1.2,2.8,2.1c-0.5,1.1-2.6-0.6-3.4-0.9c-0.5-0.2-1-0.3-1.5-0.3c-0.6,0-1.2,0.1-1.7,0.4
	c-0.4,0.2-0.7,0.7-0.7,1.1c-0.1,0.4,0.2,0.9,0.6,1c0.9,0.3,1.9,0.4,2.9,0.4c1.2,0,2.4,0.3,3.5,0.9c0.8,0.6,1.2,1.5,1.2,2.5
	c0.1,1.1-0.4,2.1-1.2,2.7c-1,0.8-2.3,1.1-3.5,1c-0.5,0-1.1-0.1-1.6-0.2C227.4,204,226.1,203.5,224.9,202.8z"/>
<path id="Path_2564" class="st6" d="M229.8,207.8L229.8,207.8c-0.6,0-1-0.5-1-1.1c0,0,0,0,0,0l0.5-14.7c0-0.4,0.4-0.7,0.8-0.7h0
	c0.4,0,0.8,0.3,0.8,0.7l-0.2,14.7C230.8,207.3,230.4,207.8,229.8,207.8C229.8,207.8,229.8,207.8,229.8,207.8L229.8,207.8z"/>
<path id="Path_2565" class="st2" d="M228.8,184.2c-6.7-0.1-13,4-14.2,10.1c-1.5,7.2,4.6,14.3,13.7,14.5s15.4-6.6,14.2-13.9
	C241.5,188.8,235.4,184.4,228.8,184.2z"/>
<g id="Group_175" transform="translate(137.252 147.894)" class="st3">
	<path id="Path_2566" class="st4" d="M91.5,35.5c-7.2-0.2-14,4.3-15.5,10.9c-1.7,7.9,4.8,15.8,15,16S108,55,106.5,47
		C105.4,40.4,98.7,35.7,91.5,35.5z M91.1,59.3c-8.2-0.2-13.6-6.4-12.4-12.9c1-5.6,6.7-9.4,12.9-9.3s11.7,4.2,12.5,9.8
		C104.9,53.5,99.2,59.5,91.1,59.3z"/>
</g>
<path id="Path_2567" class="st5" d="M228.8,182.5c-7.8-0.2-14.6,4.5-16.3,11.7c-1.1,7.4,3.7,16.2,15.2,17.1c11.4,0.2,18-8,17-16.3
	C243.9,187.6,236.6,182.6,228.8,182.5z M228.3,208.8c-9.1-0.2-15.2-7.3-13.7-14.5c1.2-6.1,7.5-10.2,14.2-10.1s12.8,4.5,13.8,10.7
	C243.7,202.1,237.4,208.9,228.3,208.8L228.3,208.8z"/>
<path id="Path_2568" class="st2" d="M228.8,182.3c-6.7-0.1-13,4-14.2,10.1c-1.4,7.2,4.6,14.3,13.7,14.5s15.4-6.6,14.2-13.9
	C241.6,186.8,235.5,182.4,228.8,182.3z"/>
<g id="Group_176" transform="translate(137.311 145.943)" class="st3">
	<path id="Path_2569" class="st4" d="M91.5,35.5c-7.2-0.2-14,4.3-15.5,10.9c-1.7,7.9,4.8,15.8,15,16S108,55,106.5,47
		C105.4,40.4,98.7,35.7,91.5,35.5z M91.1,59.3c-8.2-0.2-13.6-6.4-12.4-12.9c1-5.6,6.7-9.4,12.9-9.3s11.7,4.2,12.5,9.8
		C104.9,53.5,99.2,59.5,91.1,59.3L91.1,59.3z"/>
</g>
<path id="Path_2570" class="st6" d="M228.9,180.5c-7.8-0.2-14.6,4.5-16.3,11.7c-1.1,7.4,3.7,16.2,15.2,17.1c11.4,0.2,18-8,17-16.3
	C243.9,185.7,236.7,180.7,228.9,180.5z M228.4,206.8c-9.1-0.2-15.2-7.3-13.7-14.5c1.2-6.1,7.5-10.2,14.2-10.1s12.8,4.5,13.8,10.7
	C243.8,200.2,237.5,207,228.4,206.8L228.4,206.8z"/>
<path id="Path_2571" class="st6" d="M223.8,196.3c-0.2-0.1-0.2-0.4-0.2-0.6c0-0.5,0.3-0.9,0.8-1c0,0,0.1,0,0.1,0
	c0.9,0.1,1.8,0.4,2.5,0.9c0.7,0.3,1.4,0.5,2.2,0.5c0.7,0.1,1.4-0.1,2.1-0.5c0.5-0.3,0.8-0.8,0.7-1.4c0-0.5-0.2-1-0.6-1.3
	c-0.6-0.3-1.3-0.4-2.1-0.4l-0.6,0c-1.3,0.1-2.5-0.3-3.6-0.9c-0.8-0.5-1.2-1.4-1-2.4c0-0.9,0.5-1.7,1.3-2.2c1-0.5,2.1-0.8,3.2-0.7
	c0.6,0,1.1,0.1,1.7,0.3c1.2,0.3,3.2,1.2,2.8,2.1c-0.5,1.1-2.6-0.6-3.4-0.9c-0.5-0.2-1-0.3-1.5-0.3c-0.6,0-1.2,0.1-1.7,0.4
	c-0.4,0.2-0.7,0.7-0.7,1.1c0,0.4,0.2,0.8,0.6,1c0.9,0.3,1.9,0.4,2.9,0.4c1.2,0,2.4,0.3,3.5,0.9c0.8,0.6,1.2,1.5,1.2,2.5
	c0.1,1.1-0.4,2.1-1.2,2.7c-1,0.8-2.3,1.1-3.5,1c-0.5,0-1.1-0.1-1.6-0.2C226.3,197.5,225,197,223.8,196.3z"/>
<path id="Path_2572" class="st6" d="M228.7,201.3L228.7,201.3c-0.6,0-1-0.5-1-1.1c0,0,0,0,0,0l0.5-14.7c0-0.4,0.4-0.7,0.8-0.7
	c0,0,0,0,0,0h0c0.4,0,0.8,0.3,0.8,0.7l-0.2,14.7C229.7,200.8,229.3,201.2,228.7,201.3C228.7,201.3,228.7,201.3,228.7,201.3
	L228.7,201.3z"/>
<path id="Path_2573" class="st2" d="M228.8,180.5c-6.7-0.1-13,4-14.2,10.1c-1.4,7.2,4.6,14.3,13.7,14.5s15.4-6.6,14.2-13.9
	C241.6,185,235.5,180.6,228.8,180.5z"/>
<g id="Group_177" transform="translate(137.282 144.179)" class="st3">
	<path id="Path_2574" class="st4" d="M91.5,35.5c-7.2-0.2-14,4.3-15.5,10.9c-1.7,7.9,4.8,15.8,15,16S108,55,106.5,47
		C105.4,40.4,98.7,35.7,91.5,35.5z M91.1,59.3c-8.2-0.2-13.6-6.4-12.4-12.9c1-5.6,6.7-9.4,12.9-9.3s11.7,4.2,12.5,9.8
		C104.9,53.5,99.2,59.5,91.1,59.3L91.1,59.3z"/>
</g>
<path id="Path_2575" class="st5" d="M228.8,178.7c-7.8-0.2-14.6,4.5-16.3,11.7c-1.1,7.4,3.7,16.2,15.2,17.1c11.4,0.2,18-8,17-16.3
	C243.9,183.9,236.6,178.9,228.8,178.7z M228.3,205.1c-9.1-0.2-15.2-7.3-13.7-14.5c1.2-6.1,7.5-10.2,14.2-10.1s12.8,4.5,13.8,10.7
	C243.7,198.4,237.5,205.2,228.3,205.1L228.3,205.1z"/>
<path id="Path_2576" class="st2" d="M228.8,178.6c-6.7-0.1-13,4-14.2,10.1c-1.4,7.2,4.6,14.3,13.7,14.5s15.4-6.6,14.2-13.9
	C241.6,183.1,235.5,178.7,228.8,178.6z"/>
<g id="Group_178" transform="translate(137.282 142.228)" class="st3">
	<path id="Path_2577" class="st4" d="M91.5,35.5c-7.2-0.2-14,4.3-15.5,10.9c-1.7,7.9,4.8,15.8,15,16S108,55,106.5,47
		C105.4,40.4,98.7,35.7,91.5,35.5z M91.1,59.3c-8.2-0.2-13.6-6.4-12.4-12.9c1-5.6,6.7-9.4,12.9-9.3s11.7,4.2,12.5,9.8
		C104.9,53.5,99.2,59.5,91.1,59.3L91.1,59.3z"/>
</g>
<path id="Path_2578" class="st6" d="M228.8,176.8c-7.8-0.2-14.6,4.5-16.3,11.7c-1.1,7.4,3.7,16.2,15.2,17.1c11.4,0.2,18-8,17-16.3
	C243.9,182,236.6,177,228.8,176.8z M228.3,203.1c-9.1-0.2-15.2-7.3-13.7-14.5c1.2-6.1,7.5-10.2,14.2-10.1s12.8,4.5,13.8,10.7
	C243.7,196.5,237.5,203.3,228.3,203.1L228.3,203.1z"/>
<path id="Path_2579" class="st6" d="M223.6,192.6c-0.2-0.1-0.2-0.4-0.2-0.6c0-0.5,0.3-0.9,0.8-1c0,0,0.1,0,0.1,0
	c0.9,0.1,1.8,0.4,2.5,0.9c0.7,0.3,1.4,0.5,2.2,0.5c0.7,0.1,1.4-0.1,2.1-0.5c0.5-0.3,0.8-0.8,0.7-1.4c0-0.5-0.2-1-0.6-1.3
	c-0.6-0.3-1.3-0.4-2.1-0.4l-0.6,0c-1.3,0.1-2.5-0.3-3.6-0.9c-0.8-0.5-1.2-1.4-1-2.4c0-0.9,0.5-1.7,1.3-2.2c1-0.5,2.1-0.8,3.2-0.7
	c0.6,0,1.1,0.1,1.7,0.3c1.2,0.3,3.2,1.2,2.8,2.1c-0.5,1.1-2.6-0.6-3.4-0.9c-0.5-0.2-1-0.3-1.5-0.3c-0.6,0-1.2,0.1-1.7,0.4
	c-0.4,0.2-0.7,0.7-0.7,1.1c0,0.4,0.2,0.8,0.6,1c0.9,0.3,1.9,0.4,2.9,0.4c1.2,0,2.4,0.3,3.5,0.9c0.8,0.6,1.2,1.5,1.2,2.5
	c0.1,1.1-0.4,2.1-1.2,2.7c-1,0.8-2.3,1.1-3.5,1c-0.5,0-1.1-0.1-1.6-0.2C226.2,193.8,224.8,193.3,223.6,192.6z"/>
<path id="Path_2580" class="st6" d="M228.5,197.5L228.5,197.5c-0.6,0-1-0.5-1-1.1c0,0,0,0,0,0l0.5-14.7c0-0.4,0.4-0.7,0.8-0.7h0
	c0.4,0,0.8,0.3,0.8,0.7l-0.2,14.7C229.5,197.1,229.1,197.5,228.5,197.5C228.5,197.5,228.5,197.5,228.5,197.5L228.5,197.5z"/>
<path id="Path_2581" class="st2" d="M231.7,175.4c-6.7-0.1-13,4-14.2,10.1c-1.5,7.2,4.6,14.3,13.7,14.5s15.4-6.6,14.2-13.9
	C244.5,179.9,238.4,175.5,231.7,175.4z"/>
<g id="Group_179" transform="translate(140.232 139.057)" class="st3">
	<path id="Path_2582" class="st4" d="M91.5,35.5c-7.2-0.2-14,4.3-15.5,10.9c-1.7,7.9,4.8,15.8,15,16S108,55,106.5,47
		C105.4,40.4,98.7,35.7,91.5,35.5z M91.1,59.3c-8.2-0.2-13.6-6.4-12.4-12.9c1-5.6,6.7-9.4,12.9-9.3s11.7,4.2,12.5,9.8
		C104.9,53.5,99.2,59.5,91.1,59.3L91.1,59.3z"/>
</g>
<path id="Path_2583" class="st5" d="M231.8,173.6c-7.8-0.2-14.6,4.5-16.3,11.7c-1.1,7.4,3.7,16.2,15.2,17.1c11.4,0.2,18-8,17-16.3
	C246.8,178.8,239.6,173.8,231.8,173.6z M231.3,199.9c-9.1-0.2-15.2-7.3-13.7-14.5c1.2-6.1,7.5-10.2,14.2-10.1s12.8,4.5,13.8,10.7
	C246.7,193.3,240.4,200.1,231.3,199.9L231.3,199.9z"/>
<path id="Path_2584" class="st2" d="M231.8,173.4c-6.7-0.1-13,4-14.2,10.1c-1.5,7.2,4.6,14.3,13.7,14.5s15.4-6.6,14.2-13.9
	C244.6,178,238.5,173.6,231.8,173.4z"/>
<g id="Group_180" transform="translate(140.291 137.105)" class="st3">
	<path id="Path_2585" class="st4" d="M91.5,35.5c-7.2-0.2-14,4.3-15.5,10.9c-1.7,7.9,4.8,15.8,15,16S108,55,106.5,47
		C105.4,40.4,98.7,35.7,91.5,35.5z M91.1,59.3c-8.2-0.2-13.6-6.4-12.4-12.9c1-5.6,6.7-9.4,12.9-9.3s11.7,4.2,12.5,9.8
		C104.9,53.5,99.2,59.5,91.1,59.3L91.1,59.3z"/>
</g>
<path id="Path_2586" class="st6" d="M231.8,171.7c-7.8-0.2-14.6,4.5-16.3,11.7c-1.1,7.4,3.7,16.2,15.2,17.1c11.4,0.2,18-8,17-16.3
	C246.9,176.9,239.6,171.8,231.8,171.7z M231.4,198c-9.1-0.2-15.2-7.3-13.7-14.5c1.2-6.1,7.5-10.2,14.2-10.1s12.8,4.5,13.8,10.7
	C246.7,191.3,240.5,198.2,231.4,198L231.4,198z"/>
<g id="Group_181" transform="translate(164.393 175.424)" class="st7">
	<path id="Path_2589" d="M108.8,45.6c0,5.5-7.8,10.6-17.3,10c-11.9-0.8-15.7-5.8-15.7-11.3s6.1-8.8,15.7-8.8S108.8,40,108.8,45.6z"
		/>
</g>
<path id="Path_2590" class="st2" d="M264.2,205c-5.9-3.2-13.4-2.3-17.2,2.5c-4.6,5.8-2.4,14.8,5.6,19.1s16.7,1.1,19-5.9
	C273.5,214.9,270.1,208.2,264.2,205z"/>
<g id="Group_182" transform="translate(167.355 166.769)" class="st3">
	<path id="Path_2591" class="st4" d="M97.2,37.6c-6.3-3.4-14.4-2.6-18.7,2.6c-5.1,6.3-2.9,16.3,6,21.1s18.5,1.1,20.8-6.6
		C107.3,48.2,103.6,41,97.2,37.6z M86,58.6c-7.2-3.9-9.2-11.9-5.2-17.2c3.4-4.5,10.3-5.3,15.7-2.4s8.5,9.1,6.7,14.4
		C101,59.7,93.2,62.4,86,58.6L86,58.6z"/>
</g>
<path id="Path_2592" class="st5" d="M265,203.5c-6.9-3.7-15-2.7-19.8,3c-4.3,6.1-4.1,16.1,5.7,22.2c10,5.4,19.6,1.1,22.5-6.7
	C276.1,215,271.9,207.2,265,203.5z M252.6,226.7c-8-4.3-10.2-13.4-5.6-19.1c3.9-4.9,11.3-5.7,17.2-2.5s9.3,9.9,7.4,15.8
	C269.3,227.8,260.7,231,252.6,226.7L252.6,226.7z"/>
<path id="Path_2593" class="st2" d="M265.1,203.3c-5.9-3.2-13.4-2.3-17.2,2.5c-4.6,5.8-2.4,14.8,5.6,19.1s16.7,1.1,19-5.9
	C274.4,213.2,271,206.5,265.1,203.3z"/>
<g id="Group_183" transform="translate(168.242 165.032)" class="st3">
	<path id="Path_2594" class="st4" d="M97.2,37.6c-6.3-3.4-14.4-2.6-18.7,2.6c-5.1,6.3-2.9,16.3,6,21.1s18.5,1.1,20.8-6.6
		C107.3,48.2,103.6,41,97.2,37.6z M86,58.6c-7.2-3.9-9.2-11.9-5.2-17.2c3.4-4.5,10.3-5.3,15.7-2.4s8.5,9.1,6.7,14.4
		C101,59.7,93.2,62.4,86,58.6L86,58.6z"/>
</g>
<path id="Path_2595" class="st6" d="M265.9,201.7c-6.9-3.7-15-2.7-19.8,3c-4.3,6.1-4.1,16.1,5.7,22.2c10,5.4,19.6,1.1,22.5-6.7
	C277,213.2,272.8,205.5,265.9,201.7z M253.5,224.9c-8-4.3-10.2-13.4-5.6-19.1c3.9-4.9,11.3-5.7,17.2-2.5s9.3,9.9,7.4,15.8
	C270.2,226.1,261.5,229.3,253.5,224.9L253.5,224.9z"/>
<path id="Path_2598" class="st2" d="M90.4,190c-6.6,1.3-11.8,6.7-11.7,12.9c0.1,7.4,7.5,13,16.5,11.2s13.6-9.8,10.9-16.6
	C103.8,191.7,96.9,188.7,90.4,190z"/>
<g id="Group_184" transform="translate(1.64 153.395)" class="st3">
	<path id="Path_2599" class="st4" d="M88.6,35.8c-7.1,1.4-12.8,7.2-12.8,13.9c0,8.1,8.1,14.4,18.1,12.4c9.9-2,14.9-10.9,11.8-18.4
		C103.1,37.6,95.6,34.4,88.6,35.8z M93.2,59.2c-8,1.6-14.7-3.3-14.9-9.9c-0.2-5.6,4.6-10.6,10.6-11.8s12.3,1.6,14.3,6.9
		C105.5,50.5,101.2,57.6,93.2,59.2L93.2,59.2z"/>
</g>
<path id="Path_2600" class="st5" d="M90,188.3c-7.7,1.5-13.3,7.5-13.4,14.9c0.5,7.4,7.1,15,18.6,13.5c11.2-2.2,15.8-11.7,13.1-19.5
	C105.8,190.1,97.7,186.8,90,188.3z M95.2,214.1c-9,1.8-16.4-3.8-16.5-11.2c-0.1-6.2,5.1-11.6,11.7-12.9s13.5,1.7,15.7,7.4
	C108.8,204.3,104.1,212.3,95.2,214.1L95.2,214.1z"/>
<path id="Path_2601" class="st2" d="M89.9,188.1c-6.6,1.3-11.8,6.7-11.7,12.9c0.1,7.4,7.5,13,16.5,11.2s13.6-9.8,10.9-16.6
	C103.4,189.8,96.5,186.8,89.9,188.1z"/>
<g id="Group_185" transform="translate(1.22 151.49)" class="st3">
	<path id="Path_2602" class="st4" d="M88.6,35.8c-7.1,1.4-12.8,7.2-12.8,13.9c0,8.1,8.1,14.4,18.1,12.4c9.9-2,14.9-10.9,11.8-18.4
		C103.1,37.6,95.6,34.5,88.6,35.8z M93.2,59.2c-8,1.6-14.7-3.3-14.9-9.9c-0.2-5.6,4.6-10.6,10.6-11.8s12.3,1.6,14.3,6.9
		C105.5,50.5,101.2,57.6,93.2,59.2z"/>
</g>
<path id="Path_2603" class="st6" d="M89.6,186.4c-7.7,1.5-13.3,7.5-13.4,14.9c0.5,7.4,7.1,15,18.6,13.5
	c11.2-2.2,15.8-11.7,13.1-19.5C105.4,188.2,97.3,184.9,89.6,186.4z M94.8,212.2c-9,1.8-16.4-3.8-16.5-11.2
	c-0.1-6.2,5.1-11.6,11.7-12.9s13.5,1.7,15.8,7.4C108.4,202.4,103.7,210.4,94.8,212.2L94.8,212.2z"/>
<path id="Path_2606" class="st2" d="M103.2,191.2c-6.6,1.3-11.8,6.7-11.7,12.9c0.1,7.4,7.5,13,16.5,11.2c9-1.8,13.6-9.8,10.9-16.6
	C116.7,192.9,109.8,189.9,103.2,191.2z"/>
<g>
	<path class="st6" d="M94.2,193L94.2,193c0.3-0.2,0.7-0.1,0.9,0.2l5.6,9.5c0.2,0.3,0.1,0.7-0.2,0.9l0,0c-0.3,0.2-0.7,0.1-0.9-0.2
		l-5.6-9.5C93.8,193.5,93.9,193.2,94.2,193z"/>
	<path class="st6" d="M83.2,199.4L83.2,199.4c0.3-0.2,0.7-0.2,0.9,0.1l7.6,9.2c0.2,0.3,0.2,0.7-0.1,0.9l0,0
		c-0.3,0.2-0.7,0.2-0.9-0.1l-7.6-9.2C82.8,200,82.9,199.6,83.2,199.4z"/>
	<path class="st6" d="M94.8,193.2L94.8,193.2c0.2,0.3,0.1,0.7-0.2,0.9l-9.5,5.6c-0.3,0.2-0.7,0.1-0.9-0.2l0,0
		c-0.2-0.3-0.1-0.7,0.2-0.9L94,193C94.3,192.8,94.6,192.9,94.8,193.2z"/>
	<path class="st6" d="M100.3,203.2L100.3,203.2c-0.1,0.3-0.5,0.5-0.8,0.4l-3.1-1.2c-0.3-0.1-0.5-0.5-0.4-0.8l0,0
		c0.1-0.3,0.5-0.5,0.8-0.4l3.1,1.2C100.3,202.6,100.5,202.9,100.3,203.2z"/>
	<path class="st6" d="M93.7,203.3L93.7,203.3c-0.3,0.1-0.6,0.4-0.5,0.7l0.5,3.2c0.1,0.3,0.4,0.6,0.7,0.5l0,0
		c0.3-0.1,0.6-0.4,0.5-0.7l-0.5-3.2C94.4,203.5,94.1,203.3,93.7,203.3z"/>
	<path class="st6" d="M96.5,201.2L96.5,201.2c-0.3,0.1-0.6,0.4-0.5,0.7l0.5,3.2c0.1,0.3,0.4,0.6,0.7,0.5l0,0
		c0.3-0.1,0.6-0.4,0.5-0.7l-0.5-3.2C97.2,201.4,96.8,201.1,96.5,201.2z"/>
	<path class="st6" d="M97.8,205.4L97.8,205.4c-0.1,0.3-0.5,0.5-0.8,0.4l-3.1-1.2c-0.3-0.1-0.5-0.5-0.4-0.8v0
		c0.1-0.3,0.5-0.5,0.8-0.4l3.1,1.2C97.7,204.7,97.9,205,97.8,205.4z"/>
	<path class="st6" d="M90.5,205.2L90.5,205.2c-0.3,0.1-0.6,0.4-0.5,0.7l0.5,3.2c0.1,0.3,0.4,0.6,0.7,0.5l0,0
		c0.3-0.1,0.6-0.4,0.5-0.7l-0.5-3.2C91.2,205.4,90.9,205.2,90.5,205.2z"/>
	<path class="st6" d="M94.6,207.3L94.6,207.3c-0.1,0.3-0.5,0.5-0.8,0.4l-3.1-1.2c-0.3-0.1-0.5-0.5-0.4-0.8l0,0
		c0.1-0.3,0.5-0.5,0.8-0.4l3.1,1.2C94.6,206.7,94.7,207,94.6,207.3z"/>
</g>
<g id="Group_186" transform="translate(14.54 154.612)" class="st3">
	<path id="Path_2607" class="st4" d="M88.6,35.8c-7.1,1.4-12.8,7.2-12.8,13.9c0,8.1,8.1,14.4,18.1,12.4c9.9-2,14.9-10.9,11.8-18.4
		C103.1,37.6,95.6,34.4,88.6,35.8z M93.2,59.2c-8,1.6-14.7-3.3-14.9-9.9c-0.2-5.6,4.6-10.6,10.6-11.8s12.3,1.6,14.3,6.9
		C105.5,50.5,101.2,57.6,93.2,59.2z"/>
</g>
<path id="Path_2608" class="st5" d="M102.9,189.5c-7.7,1.5-13.3,7.5-13.4,14.9c0.5,7.4,7.1,15,18.5,13.5
	c11.2-2.2,15.8-11.7,13.1-19.5C118.7,191.3,110.6,188,102.9,189.5z M108.1,215.3c-9,1.8-16.4-3.8-16.5-11.2
	c-0.1-6.2,5.1-11.6,11.7-12.9s13.5,1.7,15.7,7.4C121.7,205.5,117,213.5,108.1,215.3L108.1,215.3z"/>
<path id="Path_2609" class="st2" d="M102.8,189.3c-6.6,1.3-11.8,6.7-11.7,12.9c0.1,7.4,7.5,13,16.5,11.2s13.6-9.8,10.9-16.6
	C116.3,191,109.4,188,102.8,189.3z"/>
<g id="Group_187" transform="translate(14.121 152.707)" class="st3">
	<path id="Path_2610" class="st4" d="M88.6,35.8c-7.1,1.4-12.8,7.2-12.8,13.9c0,8.1,8.1,14.4,18.1,12.4c9.9-2,14.9-10.9,11.8-18.4
		C103.1,37.6,95.6,34.4,88.6,35.8z M93.2,59.2c-8,1.6-14.7-3.3-14.9-9.9c-0.2-5.6,4.6-10.6,10.6-11.8s12.3,1.6,14.3,6.9
		C105.5,50.5,101.2,57.6,93.2,59.2L93.2,59.2z"/>
</g>
<path id="Path_2611" class="st6" d="M102.5,187.6c-7.7,1.5-13.3,7.5-13.4,14.9c0.5,7.4,7.1,15,18.5,13.5
	c11.2-2.2,15.8-11.7,13.1-19.5C118.3,189.4,110.2,186.1,102.5,187.6z M107.7,213.4c-9,1.8-16.4-3.8-16.5-11.2
	c-0.1-6.2,5.1-11.6,11.7-12.9s13.5,1.7,15.7,7.4C121.3,203.6,116.6,211.6,107.7,213.4L107.7,213.4z"/>
<path id="Path_2614" class="st2" d="M117,205.6c-6.7,0-12.9,4.2-14,10.3c-1.3,7.2,4.8,14.2,14,14.2s15.3-6.9,14-14.1
	C129.9,209.9,123.7,205.6,117,205.6z"/>
<g id="Group_188" transform="translate(25.71 169.294)" class="st3">
	<path id="Path_2615" class="st4" d="M91.3,35.5c-7.2,0-14,4.5-15.3,11.1c-1.6,8,5.1,15.7,15.2,15.8s16.8-7.7,15.2-15.7
		C105.2,40.1,98.5,35.5,91.3,35.5z M91.3,59.3c-8.2,0-13.8-6.2-12.7-12.7c0.9-5.6,6.6-9.5,12.7-9.5s11.8,4,12.7,9.6
		C105,53.2,99.4,59.4,91.3,59.3z"/>
</g>
<path id="Path_2616" class="st5" d="M117,203.9c-7.8,0-14.5,4.7-16.1,12c-1,7.4,4,16.1,15.5,16.8c11.4,0,17.8-8.3,16.7-16.6
	C132.1,208.8,124.8,203.9,117,203.9z M117,230.2c-9.1,0-15.3-7-14-14.2c1.1-6.1,7.3-10.4,14-10.3s12.9,4.3,14,10.4
	C132.3,223.3,126.1,230.2,117,230.2L117,230.2z"/>
<path id="Path_2617" class="st2" d="M117,203.7c-6.7,0-12.9,4.2-14,10.3c-1.3,7.2,4.8,14.2,14,14.2s15.3-6.9,14-14.1
	C129.8,208,123.6,203.7,117,203.7z"/>
<g id="Group_189" transform="translate(25.676 167.345)" class="st3">
	<path id="Path_2618" class="st4" d="M91.3,35.5c-7.2,0-14,4.5-15.3,11.1c-1.6,8,5.1,15.7,15.2,15.8s16.8-7.7,15.2-15.7
		C105.2,40.1,98.5,35.5,91.3,35.5z M91.3,59.3c-8.2,0-13.8-6.2-12.7-12.7c0.9-5.6,6.6-9.5,12.7-9.5s11.8,4,12.7,9.5
		C105,53.2,99.4,59.4,91.3,59.3L91.3,59.3z"/>
</g>
<path id="Path_2619" class="st6" d="M117,201.9c-7.8,0-14.5,4.7-16.1,12c-1,7.4,4,16.1,15.5,16.8c11.4,0,17.8-8.3,16.7-16.6
	C132.1,206.8,124.8,201.9,117,201.9z M116.9,228.2c-9.1,0-15.3-7-14-14.2c1.1-6.1,7.3-10.4,14-10.3s12.9,4.3,14,10.4
	C132.2,221.3,126.1,228.2,116.9,228.2L116.9,228.2z"/>
<path id="Path_2626" class="st8" d="M175.9,69l7.7,1.3l22.6,22.4v9.5h-8.5l-24.8-19.5L175.9,69z"/>
<path id="Path_2627" class="st8" d="M158.7,66.5l-19.3,1.4l-10.6-19.4l-5,2.6l9.7,26.8l19.7,1.6L158.7,66.5z"/>
<path id="Path_2628" class="st9" d="M156.4,41.7c0,0-2.7,2.2-1.4,10.3c0.8,4.4,0.9,8.9,0.5,13.4c0,0,2.8,1.3,4.8,0s2.8-1.5,2-4.8
	s-2.3-19-2.3-19L156.4,41.7z"/>
<path id="Path_2629" class="st10" d="M182.9,217.6l0.3,2.7l-4.9,3.4l-2.9-2.4l2.3-3l4.9-3.4L182.9,217.6z"/>
<path id="Path_2630" class="st11" d="M182.7,134.9l0.8,8.2l-7.4,28.2l6.8,45.3l-5,1.7l-13.3-44.3l-2.1-12.9l0.1-27.3L182.7,134.9z"
	/>
<path id="Path_2631" class="st11" d="M144.1,144.1l10.6,76h4.8l0.9-48.7l8.7-34.2L144.1,144.1z"/>
<path id="Path_2632" class="st10" d="M159.4,219.5v2.7l-5.2,2.7l-2.6-2.7l2.6-2.7H159.4z"/>
<path id="Path_2633" class="st8" d="M157.1,66.8c0.1-0.2,0.2-0.3,0.3-0.5c3.8-5.7,12.3-2.1,17.9-2.1c1.5,16.1,5.8,31.5,8.5,47.4
	c2.9,16.8,6.2,33.6,9.8,50.3c0.2,0.9-14.4,0.5-15.8,0.5c-14.1,0.2-32.5,0.2-46.1-4.1c8.7-23.3,11.8-48.4,18.7-72.3
	c1.5-5.3,3.1-10.5,5.1-15.6C155.9,69.2,156.5,68,157.1,66.8z"/>
<path id="Path_2634" class="st9" d="M163.1,44.4c-3.1,0.9-5.4,3.6-5.8,6.9c-2.9-2.7-3.1-7.3-0.4-10.2c0.6-0.6,1.2-1.1,1.9-1.5
	c1.9,1,3.4,2.8,4,4.9L163.1,44.4z"/>
<path id="Path_2635" class="st11" d="M156.8,48.6c1.6-8.4,12.1-6.9,15.1-0.1c1.7,3.9,1.3,11.4-3.5,12.7c-0.1,0.7-0.2,2.1-0.7,2.6
	c-0.6,0.5-2.6,0-3.3-0.2c-0.2,0-0.4-0.1-0.6-0.3c-0.2-0.4-0.3-0.8-0.2-1.3c-0.6,0-1.2-0.2-1.7-0.3c-2.4-0.9-4.3-3-4.9-5.5
	C156.3,53.7,156.2,51.1,156.8,48.6z"/>
<path id="Path_2636" class="st9" d="M159,39.6c0,0-1,4.6,4.8,5.8s9.6,5.8,8.6,10.6s-5.3,8.4-3,9.6s10.6,0,10.6,0s5.1-17-1.8-24.3
	S161.6,33.8,159,39.6z"/>
<g id="Group_198" transform="translate(66.468 45.822)">
	<path id="Path_2622" class="st12" d="M146.9,69.2c0.4-0.5,0.8-1.1,1-1.8c0.4-1.1,0.4-2.2,0.1-3.3c-0.1-0.5-0.6-0.8-1.1-0.7
		c-0.5,0.1-0.8,0.6-0.7,1.1c0.3,1.1,0.1,2.2-0.5,3.2c-0.2-0.2-0.4-0.3-0.6-0.4c-0.8-0.4-2-1-2.8-0.2c-0.7,0.7-0.6,1.8,0.1,2.5
		c0.1,0.1,0.2,0.2,0.3,0.2c0.7,0.5,1.5,0.8,2.4,0.6c-0.2,1.1-0.6,1.6-1.7,1.7c-0.7,0.1-2.3,0-2.7-0.7c-0.3-0.4,0-1.6-0.1-2.1
		c-0.1-1.5-0.3-3-0.7-4.4c-0.8-2.9-2.2-5.6-4-8c-4.1-5.4-10.1-9.2-16.5-11.5c-0.4-0.1-0.7-0.2-1.1-0.4c-4.2-1.4-8.7-2.1-13.1-1.9
		c-0.6-1.6-1.6-3.1-2.9-4.3c-2.8-2.8-7-3.8-10.8-2.6c1.6,2.9,2.8,5.9,3.7,9.1C91,46.9,87,49.8,84,53.6l-0.2,0.2l-5-0.1
		c0,0-3.5,9.3-2.9,12.4c0,0,3.5,2.2,5.8,3.3c1.2,4.5,3.5,8.5,6.7,11.9c0.2,0.2,0.4,0.5,0.7,0.7l-2.5,7.5c0,0,5.4,4,8.6,4l3.5-4.7
		c1.5,0.7,3,1.3,4.5,1.8c1.8,0.6,3.6,1.1,5.5,1.5l0,5.9c2.6,2,9.3,2,9.3,2l2.5-7.5c8.9-1.2,16.2-6.2,19.2-15.1
		c0.3-0.7,0.5-1.5,0.6-2.3c1.4,0.3,2.8,0,4-0.6c0.9-0.5,1.7-1.3,2.1-2.3C146.9,71.3,147.1,70.2,146.9,69.2z"/>
	<path id="Path_2623" class="st13" d="M107.2,44.3l0.1,3c6.2,0.5,12.1,2.5,17.4,5.9l2.5-1.3C127.3,51.9,120.8,43.2,107.2,44.3z"/>
	<g id="Group_190" transform="translate(5.466 36.317)" class="st14">
		<path id="Path_2624" d="M131.9,41c-5.1,5.3-12.4,7.7-19.6,8.4c-5.4,0.5-10.9,0.1-16.2-1.3c-7.6-2.1-13.9-6.7-19.6-11.9
			c-0.2-0.2-0.5-0.5-0.7-0.7c1.3,3.1,3.2,6,5.6,8.5c4.1,4.3,9.2,7.5,14.8,9.3c15.9,5.3,31.6,1.1,36.4-13.1
			C132.4,40.5,132.1,40.8,131.9,41z"/>
	</g>
	<g id="Group_191" transform="translate(2.096 17.666)" class="st14">
		<path id="Path_2625" d="M80.1,35.5c0,0-5.5,8.7-2.1,15.4l-2.2-1.1C75.8,49.8,75.1,40.5,80.1,35.5z"/>
	</g>
</g>
<path id="Path_2641" class="st11" d="M128.1,49.1l1-3.5l-2-4.6l-1.5,1l0.9,2.7l-2.1,3l-1.2,1.5l1.3,1.5L128.1,49.1z"/>
<path id="Path_2642" class="st8" d="M206.3,92.7l-8.5,0.7l-22.2,19.3l4.1,6.1l26.5-15.1V92.7z"/>
<path id="Path_2643" class="st11" d="M176.3,113.7l-5.8,1.4l-1.5,5.6l1.9,1.7l4.4-3.7l3.6-1.2L176.3,113.7z"/>
<g id="Group_196" transform="translate(0 0)">
	<path id="Path_2717" class="st15" d="M143.1,59.9l-34.5,11.6c-1.1,0.3-2.3-0.3-2.6-1.4L89.6,21.4c-0.4-1.1,0.1-2.3,1.2-2.7
		l34.5-11.6c1.1-0.3,2.3,0.3,2.6,1.4l16.4,48.8C144.7,58.3,144.2,59.5,143.1,59.9C143.1,59.9,143.1,59.9,143.1,59.9z"/>
	<path id="Path_2718" class="st16" d="M114.7,44.2l-9.1,3c-0.6,0.2-1.2-0.2-1.4-0.8l-3.1-9.5c-0.2-0.6,0.1-1.2,0.7-1.4l9.1-3
		c0.6-0.2,1.2,0.2,1.4,0.8l3.1,9.5C115.6,43.3,115.3,44,114.7,44.2z"/>
	<path id="Path_2719" class="st16" d="M131.4,38.6l-9,3c-0.6,0.2-1.2-0.2-1.4-0.8l-3.2-9.4c-0.2-0.6,0.1-1.2,0.7-1.4c0,0,0,0,0,0
		l9-3c0.6-0.2,1.2,0.2,1.4,0.8l3.2,9.4C132.3,37.7,132,38.3,131.4,38.6z"/>
	<path id="Path_2720" class="st16" d="M119.9,59.6l-9,3c-0.6,0.2-1.2-0.2-1.4-0.8l-3.2-9.4c-0.2-0.6,0.1-1.2,0.7-1.4c0,0,0,0,0,0
		l9-3c0.6-0.2,1.2,0.2,1.4,0.8l3.2,9.4C120.8,58.7,120.5,59.4,119.9,59.6z"/>
	<path id="Path_2721" class="st12" d="M136.6,54l-9,3c-0.6,0.2-1.2-0.2-1.4-0.8l-3.2-9.4c-0.2-0.6,0.1-1.2,0.7-1.4c0,0,0,0,0,0l9-3
		c0.6-0.2,1.2,0.2,1.4,0.8l3.2,9.4C137.4,53.2,137.2,53.8,136.6,54z"/>
	<path id="Path_2722" class="st17" d="M108.6,39.2l2.6-0.9c0.1-0.1,0.3,0,0.5,0c0.1,0.1,0.2,0.2,0.3,0.4c0.1,0.1,0,0.3,0,0.4
		c-0.1,0.1-0.2,0.2-0.4,0.3l-2.6,0.9l1,2.9c0.1,0.2,0.1,0.3,0,0.5c-0.1,0.1-0.2,0.3-0.3,0.3c-0.1,0-0.3,0-0.4-0.1
		c-0.1-0.1-0.3-0.2-0.3-0.4l-1-2.9l-2.6,0.9c-0.1,0.1-0.3,0-0.5,0c-0.1-0.1-0.2-0.2-0.3-0.3c-0.1-0.2,0-0.3,0-0.5
		c0.1-0.1,0.2-0.3,0.3-0.3l2.6-0.9l-1-2.8c-0.1-0.2-0.1-0.3,0-0.5c0.1-0.1,0.2-0.3,0.3-0.3c0.1-0.1,0.3,0,0.4,0
		c0.1,0.1,0.2,0.2,0.3,0.4L108.6,39.2z"/>
	<path id="Path_2723" class="st17" d="M122.3,36.1c-0.1,0-0.2,0-0.3,0c-0.1-0.1-0.1-0.1-0.2-0.2l-0.3-0.8c0-0.1,0-0.2,0-0.3
		c0-0.1,0.1-0.1,0.2-0.2l5.9-2c0.1,0,0.2,0,0.3,0c0.1,0,0.1,0.1,0.2,0.2l0.3,0.8c0,0.1,0,0.2,0,0.3c0,0.1-0.1,0.2-0.2,0.2
		L122.3,36.1z"/>
	<path id="Path_2724" class="st17" d="M126.7,49.4c-0.1,0-0.2,0-0.3,0c-0.1-0.1-0.1-0.1-0.2-0.2l-0.3-0.8c0-0.1,0-0.2,0-0.3
		c0-0.1,0.1-0.1,0.2-0.2l5.9-2c0.1,0,0.2,0,0.3,0c0.1,0,0.1,0.1,0.2,0.2l0.3,0.8c0,0.1,0,0.2,0,0.3c0,0.1-0.1,0.2-0.2,0.2
		L126.7,49.4z"/>
	<path id="Path_2725" class="st17" d="M127.7,52.4c-0.1,0-0.2,0-0.3,0c-0.1-0.1-0.1-0.1-0.2-0.2l-0.3-0.8c0-0.1,0-0.2,0-0.3
		c0-0.1,0.1-0.1,0.2-0.2l5.9-2c0.1,0,0.2,0,0.3,0c0.1,0,0.1,0.1,0.2,0.2l0.3,0.8c0,0.1,0,0.2,0,0.3c0,0.1-0.1,0.2-0.2,0.2
		L127.7,52.4z"/>
	<g id="Group_195" transform="translate(10.512 39.947)">
		<path id="Path_2726" class="st17" d="M100.1,16.8c-0.1,0-0.2,0-0.3,0c-0.1-0.1-0.1-0.1-0.2-0.2l-0.3-0.8c0-0.1,0-0.2,0-0.3
			c0-0.1,0.1-0.1,0.2-0.2l5.9-2c0.1,0,0.2,0,0.3,0c0.1,0,0.1,0.1,0.2,0.2l0.3,0.8c0,0.1,0,0.2,0,0.3c0,0.1-0.1,0.2-0.2,0.2
			L100.1,16.8z"/>
		<path id="Path_2727" class="st17" d="M103,12.9c0.2,0.4-0.1,0.9-0.5,1.1c-0.4,0.1-0.9-0.1-1-0.6c-0.2-0.4,0.1-0.9,0.5-1.1
			C102.4,12.2,102.8,12.5,103,12.9z"/>
		<path id="Path_2728" class="st17" d="M104.2,16.7c0.2,0.4-0.1,0.9-0.5,1.1c-0.4,0.1-0.9-0.1-1-0.6c-0.2-0.4,0.1-0.9,0.5-1.1
			C103.6,16,104.1,16.3,104.2,16.7z"/>
	</g>
</g>
<rect id="Rectangle_672" x="95.1" y="18.3" transform="matrix(0.9481 -0.3181 0.3181 0.9481 -1.2501 36.6394)" class="st18" width="32.8" height="7.7"/>
<g id="Layer_2">
	<g>
		<path class="st6" d="M225.1,190.8L225.1,190.8c-0.3-0.1-0.6-0.4-0.5-0.7l1.7-10.9c0.1-0.3,0.4-0.6,0.7-0.5l0,0
			c0.3,0.1,0.6,0.4,0.5,0.7l-1.7,10.9C225.8,190.7,225.4,190.9,225.1,190.8z"/>
		<path class="st6" d="M237.7,192.9L237.7,192.9c-0.3,0-0.6-0.3-0.6-0.6v-11.9c0-0.3,0.3-0.6,0.6-0.6l0,0c0.3,0,0.6,0.3,0.6,0.6
			v11.9C238.3,192.6,238,192.9,237.7,192.9z"/>
		<path class="st6" d="M224.8,190.3L224.8,190.3c0.1-0.3,0.4-0.6,0.7-0.5l10.9,1.7c0.3,0.1,0.6,0.4,0.5,0.7l0,0
			c-0.1,0.3-0.4,0.6-0.7,0.5l-10.9-1.7C225,190.9,224.7,190.6,224.8,190.3z"/>
		<path class="st6" d="M226.9,179L226.9,179c0.3-0.2,0.7-0.1,0.9,0.2l1.6,2.9c0.2,0.3,0.1,0.7-0.2,0.9l0,0c-0.3,0.2-0.7,0.1-0.9-0.2
			l-1.6-2.9C226.5,179.6,226.6,179.2,226.9,179z"/>
		<path class="st6" d="M232,183.1L232,183.1c0.3,0.2,0.7,0.1,0.9-0.2l1.6-2.9c0.2-0.3,0.1-0.7-0.2-0.9l0,0c-0.3-0.2-0.7-0.1-0.9,0.2
			l-1.6,2.9C231.6,182.6,231.7,183,232,183.1z"/>
		<path class="st6" d="M228.5,183L228.5,183c0.3,0.2,0.7,0.1,0.9-0.2l1.6-2.9c0.2-0.3,0.1-0.7-0.2-0.9v0c-0.3-0.2-0.7-0.1-0.9,0.2
			l-1.6,2.9C228.1,182.5,228.2,182.9,228.5,183z"/>
		<path class="st6" d="M230.2,179L230.2,179c0.3-0.2,0.7-0.1,0.9,0.2l1.6,2.9c0.2,0.3,0.1,0.7-0.2,0.9l0,0c-0.3,0.2-0.7,0.1-0.9-0.2
			l-1.6-2.9C229.8,179.6,229.9,179.2,230.2,179z"/>
		<path class="st6" d="M235.7,183.7L235.7,183.7c0.3,0.2,0.7,0.1,0.9-0.2l1.6-2.9c0.2-0.3,0.1-0.7-0.2-0.9l0,0
			c-0.3-0.2-0.7-0.1-0.9,0.2l-1.6,2.9C235.3,183.2,235.4,183.5,235.7,183.7z"/>
		<path class="st6" d="M233.9,179.5L233.9,179.5c0.3-0.2,0.7-0.1,0.9,0.2l1.6,2.9c0.2,0.3,0.1,0.7-0.2,0.9l0,0
			c-0.3,0.2-0.7,0.1-0.9-0.2l-1.6-2.9C233.5,180.1,233.6,179.7,233.9,179.5z"/>
	</g>
	<g>
		<path class="st6" d="M199.4,163.5L199.4,163.5c-0.3,0-0.7-0.2-0.7-0.5l-1.5-11c0-0.3,0.2-0.7,0.5-0.7l0,0c0.3,0,0.7,0.2,0.7,0.5
			l1.5,11C199.9,163.1,199.7,163.5,199.4,163.5z"/>
		<path class="st6" d="M212,161.9L212,161.9c-0.3,0.1-0.7-0.1-0.8-0.4l-3.4-11.4c-0.1-0.3,0.1-0.7,0.4-0.8l0,0
			c0.3-0.1,0.7,0.1,0.8,0.4l3.4,11.4C212.5,161.4,212.3,161.8,212,161.9z"/>
		<path class="st6" d="M198.9,163L198.9,163c0-0.3,0.2-0.7,0.5-0.7l11-1.5c0.3,0,0.7,0.2,0.7,0.5l0,0c0,0.3-0.2,0.7-0.5,0.7l-11,1.5
			C199.2,163.6,198.9,163.4,198.9,163z"/>
		<path class="st6" d="M197.7,151.7L197.7,151.7c0.2-0.3,0.6-0.3,0.9,0l2.4,2.3c0.3,0.2,0.3,0.6,0,0.9l0,0c-0.2,0.3-0.6,0.3-0.9,0
			l-2.4-2.3C197.4,152.3,197.4,151.9,197.7,151.7z"/>
		<path class="st6" d="M203.8,154.1L203.8,154.1c0.3,0.1,0.7-0.1,0.8-0.5l0.8-3.2c0.1-0.3-0.1-0.7-0.5-0.8l0,0
			c-0.3-0.1-0.7,0.1-0.8,0.5l-0.8,3.2C203.2,153.7,203.5,154.1,203.8,154.1z"/>
		<path class="st6" d="M200.4,155L200.4,155c0.3,0.1,0.7-0.1,0.8-0.5l0.8-3.2c0.1-0.3-0.1-0.7-0.5-0.8l0,0c-0.3-0.1-0.7,0.1-0.8,0.5
			l-0.8,3.2C199.9,154.6,200.1,154.9,200.4,155z"/>
		<path class="st6" d="M200.8,150.7L200.8,150.7c0.2-0.3,0.6-0.3,0.9,0l2.4,2.3c0.3,0.2,0.3,0.6,0,0.9l0,0c-0.2,0.3-0.6,0.3-0.9,0
			l-2.4-2.3C200.6,151.3,200.6,150.9,200.8,150.7z"/>
		<path class="st6" d="M207.5,153.6L207.5,153.6c0.3,0.1,0.7-0.1,0.8-0.5l0.8-3.2c0.1-0.3-0.1-0.7-0.5-0.8l0,0
			c-0.3-0.1-0.7,0.1-0.8,0.5l-0.8,3.2C206.9,153.2,207.1,153.6,207.5,153.6z"/>
		<path class="st6" d="M204.5,150.1L204.5,150.1c0.2-0.3,0.6-0.3,0.9,0l2.4,2.3c0.3,0.2,0.3,0.6,0,0.9h0c-0.2,0.3-0.6,0.3-0.9,0
			l-2.4-2.3C204.3,150.7,204.3,150.4,204.5,150.1z"/>
	</g>
	<g>
		<path class="st6" d="M243.4,171.3L243.4,171.3c-0.2-0.3-0.1-0.7,0.2-0.9l9.4-5.7c0.3-0.2,0.7-0.1,0.9,0.2l0,0
			c0.2,0.3,0.1,0.7-0.2,0.9l-9.4,5.7C243.9,171.7,243.5,171.6,243.4,171.3z"/>
		<path class="st6" d="M249.9,182.3L249.9,182.3c-0.2-0.3-0.2-0.7,0.1-0.9l9.1-7.7c0.3-0.2,0.7-0.2,0.9,0.1l0,0
			c0.2,0.3,0.2,0.7-0.1,0.9l-9.1,7.7C250.6,182.6,250.2,182.5,249.9,182.3z"/>
		<path class="st6" d="M243.6,170.7L243.6,170.7c0.3-0.2,0.7-0.1,0.9,0.2l5.7,9.4c0.2,0.3,0.1,0.7-0.2,0.9l0,0
			c-0.3,0.2-0.7,0.1-0.9-0.2l-5.7-9.4C243.2,171.3,243.3,170.9,243.6,170.7z"/>
		<path class="st6" d="M253.5,165L253.5,165c0.3,0.1,0.5,0.5,0.4,0.8l-1.1,3.1c-0.1,0.3-0.5,0.5-0.8,0.4l0,0
			c-0.3-0.1-0.5-0.5-0.4-0.8l1.1-3.1C252.8,165.1,253.2,164.9,253.5,165z"/>
		<path class="st6" d="M253.7,171.6L253.7,171.6c0.1,0.3,0.4,0.6,0.7,0.5l3.2-0.6c0.3-0.1,0.6-0.4,0.5-0.7l0,0
			c-0.1-0.3-0.4-0.6-0.7-0.5l-3.2,0.6C253.9,171,253.7,171.3,253.7,171.6z"/>
		<path class="st6" d="M251.5,168.9L251.5,168.9c0.1,0.3,0.4,0.6,0.7,0.5l3.2-0.6c0.3-0.1,0.6-0.4,0.5-0.7l0,0
			c-0.1-0.3-0.4-0.6-0.7-0.5l-3.2,0.6C251.7,168.2,251.5,168.6,251.5,168.9z"/>
		<path class="st6" d="M255.7,167.5L255.7,167.5c0.3,0.1,0.5,0.5,0.4,0.8l-1.1,3.1c-0.1,0.3-0.5,0.5-0.8,0.4l0,0
			c-0.3-0.1-0.5-0.5-0.4-0.8l1.1-3.1C255,167.6,255.4,167.4,255.7,167.5z"/>
		<path class="st6" d="M255.7,174.8L255.7,174.8c0.1,0.3,0.4,0.6,0.7,0.5l3.2-0.6c0.3-0.1,0.6-0.4,0.5-0.7l0,0
			c-0.1-0.3-0.4-0.6-0.7-0.5l-3.2,0.6C255.8,174.1,255.6,174.5,255.7,174.8z"/>
		<path class="st6" d="M257.7,170.7L257.7,170.7c0.3,0.1,0.5,0.5,0.4,0.8l-1.1,3.1c-0.1,0.3-0.5,0.5-0.8,0.4l0,0
			c-0.3-0.1-0.5-0.5-0.4-0.8l1.1-3.1C257,170.7,257.4,170.6,257.7,170.7z"/>
	</g>
	<g>
		<path class="st6" d="M260.2,205L260.2,205c0.3-0.2,0.7-0.1,0.9,0.2l5.6,9.5c0.2,0.3,0.1,0.7-0.2,0.9l0,0c-0.3,0.2-0.7,0.1-0.9-0.2
			l-5.6-9.5C259.8,205.6,259.9,205.2,260.2,205z"/>
		<path class="st6" d="M249.2,211.4L249.2,211.4c0.3-0.2,0.7-0.2,0.9,0.1l7.6,9.2c0.2,0.3,0.2,0.7-0.1,0.9l0,0
			c-0.3,0.2-0.7,0.2-0.9-0.1l-7.6-9.2C248.9,212.1,248.9,211.7,249.2,211.4z"/>
		<path class="st6" d="M260.9,205.3L260.9,205.3c0.2,0.3,0.1,0.7-0.2,0.9l-9.5,5.6c-0.3,0.2-0.7,0.1-0.9-0.2l0,0
			c-0.2-0.3-0.1-0.7,0.2-0.9l9.5-5.6C260.3,204.9,260.7,205,260.9,205.3z"/>
		<path class="st6" d="M266.4,215.3L266.4,215.3c-0.1,0.3-0.5,0.5-0.8,0.4l-3.1-1.2c-0.3-0.1-0.5-0.5-0.4-0.8l0,0
			c0.1-0.3,0.5-0.5,0.8-0.4l3.1,1.2C266.3,214.6,266.5,215,266.4,215.3z"/>
		<path class="st6" d="M259.8,215.4L259.8,215.4c-0.3,0.1-0.6,0.4-0.5,0.7l0.5,3.2c0.1,0.3,0.4,0.6,0.7,0.5l0,0
			c0.3-0.1,0.6-0.4,0.5-0.7l-0.5-3.2C260.4,215.5,260.1,215.3,259.8,215.4z"/>
		<path class="st6" d="M262.6,213.2L262.6,213.2c-0.3,0.1-0.6,0.4-0.5,0.7l0.5,3.2c0.1,0.3,0.4,0.6,0.7,0.5l0,0
			c0.3-0.1,0.6-0.4,0.5-0.7l-0.5-3.2C263.2,213.4,262.9,213.2,262.6,213.2z"/>
		<path class="st6" d="M263.8,217.4L263.8,217.4c-0.1,0.3-0.5,0.5-0.8,0.4l-3.1-1.2c-0.3-0.1-0.5-0.5-0.4-0.8h0
			c0.1-0.3,0.5-0.5,0.8-0.4l3.1,1.2C263.8,216.7,264,217.1,263.8,217.4z"/>
		<path class="st6" d="M256.6,217.3L256.6,217.3c-0.3,0.1-0.6,0.4-0.5,0.7l0.5,3.2c0.1,0.3,0.4,0.6,0.7,0.5l0,0
			c0.3-0.1,0.6-0.4,0.5-0.7l-0.5-3.2C257.3,217.4,256.9,217.2,256.6,217.3z"/>
		<path class="st6" d="M260.7,219.4L260.7,219.4c-0.1,0.3-0.5,0.5-0.8,0.4l-3.1-1.2c-0.3-0.1-0.5-0.5-0.4-0.8l0,0
			c0.1-0.3,0.5-0.5,0.8-0.4l3.1,1.2C260.6,218.7,260.8,219.1,260.7,219.4z"/>
	</g>
	<g>
		<path class="st6" d="M119.4,207L119.4,207c0.3-0.2,0.7-0.1,0.9,0.2l5.6,9.5c0.2,0.3,0.1,0.7-0.2,0.9l0,0c-0.3,0.2-0.7,0.1-0.9-0.2
			l-5.6-9.5C119,207.5,119.1,207.1,119.4,207z"/>
		<path class="st6" d="M108.3,213.4L108.3,213.4c0.3-0.2,0.7-0.2,0.9,0.1l7.6,9.2c0.2,0.3,0.2,0.7-0.1,0.9l0,0
			c-0.3,0.2-0.7,0.2-0.9-0.1l-7.6-9.2C108,214,108.1,213.6,108.3,213.4z"/>
		<path class="st6" d="M120,207.2L120,207.2c0.2,0.3,0.1,0.7-0.2,0.9l-9.5,5.6c-0.3,0.2-0.7,0.1-0.9-0.2l0,0
			c-0.2-0.3-0.1-0.7,0.2-0.9l9.5-5.6C119.4,206.8,119.8,206.9,120,207.2z"/>
		<path class="st6" d="M125.5,217.2L125.5,217.2c-0.1,0.3-0.5,0.5-0.8,0.4l-3.1-1.2c-0.3-0.1-0.5-0.5-0.4-0.8l0,0
			c0.1-0.3,0.5-0.5,0.8-0.4l3.1,1.2C125.5,216.5,125.6,216.9,125.5,217.2z"/>
		<path class="st6" d="M118.9,217.3L118.9,217.3c-0.3,0.1-0.6,0.4-0.5,0.7l0.5,3.2c0.1,0.3,0.4,0.6,0.7,0.5l0,0
			c0.3-0.1,0.6-0.4,0.5-0.7l-0.5-3.2C119.6,217.5,119.3,217.3,118.9,217.3z"/>
		<path class="st6" d="M121.7,215.2L121.7,215.2c-0.3,0.1-0.6,0.4-0.5,0.7l0.5,3.2c0.1,0.3,0.4,0.6,0.7,0.5l0,0
			c0.3-0.1,0.6-0.4,0.5-0.7l-0.5-3.2C122.4,215.4,122,215.1,121.7,215.2z"/>
		<path class="st6" d="M123,219.3L123,219.3c-0.1,0.3-0.5,0.5-0.8,0.4l-3.1-1.2c-0.3-0.1-0.5-0.5-0.4-0.8l0,0
			c0.1-0.3,0.5-0.5,0.8-0.4l3.1,1.2C122.9,218.7,123.1,219,123,219.3z"/>
		<path class="st6" d="M115.7,219.2L115.7,219.2c-0.3,0.1-0.6,0.4-0.5,0.7l0.5,3.2c0.1,0.3,0.4,0.6,0.7,0.5l0,0
			c0.3-0.1,0.6-0.4,0.5-0.7l-0.5-3.2C116.4,219.4,116.1,219.1,115.7,219.2z"/>
		<path class="st6" d="M119.8,221.3L119.8,221.3c-0.1,0.3-0.5,0.5-0.8,0.4l-3.1-1.2c-0.3-0.1-0.5-0.5-0.4-0.8l0,0
			c0.1-0.3,0.5-0.5,0.8-0.4l3.1,1.2C119.7,220.6,119.9,221,119.8,221.3z"/>
	</g>
	<g>
		<path class="st6" d="M106.5,190.4L106.5,190.4c0.3-0.2,0.7-0.1,0.9,0.2l5.6,9.5c0.2,0.3,0.1,0.7-0.2,0.9l0,0
			c-0.3,0.2-0.7,0.1-0.9-0.2l-5.6-9.5C106.1,190.9,106.2,190.5,106.5,190.4z"/>
		<path class="st6" d="M95.5,196.8L95.5,196.8c0.3-0.2,0.7-0.2,0.9,0.1l7.6,9.2c0.2,0.3,0.2,0.7-0.1,0.9l0,0
			c-0.3,0.2-0.7,0.2-0.9-0.1l-7.6-9.2C95.2,197.4,95.2,197,95.5,196.8z"/>
		<path class="st6" d="M107.2,190.6L107.2,190.6c0.2,0.3,0.1,0.7-0.2,0.9l-9.5,5.6c-0.3,0.2-0.7,0.1-0.9-0.2l0,0
			c-0.2-0.3-0.1-0.7,0.2-0.9l9.5-5.6C106.6,190.2,107,190.3,107.2,190.6z"/>
		<path class="st6" d="M112.7,200.6L112.7,200.6c-0.1,0.3-0.5,0.5-0.8,0.4l-3.1-1.2c-0.3-0.1-0.5-0.5-0.4-0.8l0,0
			c0.1-0.3,0.5-0.5,0.8-0.4l3.1,1.2C112.6,199.9,112.8,200.3,112.7,200.6z"/>
		<path class="st6" d="M106.1,200.7L106.1,200.7c-0.3,0.1-0.6,0.4-0.5,0.7l0.5,3.2c0.1,0.3,0.4,0.6,0.7,0.5l0,0
			c0.3-0.1,0.6-0.4,0.5-0.7l-0.5-3.2C106.7,200.9,106.4,200.6,106.1,200.7z"/>
		<path class="st6" d="M108.8,198.6L108.8,198.6c-0.3,0.1-0.6,0.4-0.5,0.7l0.5,3.2c0.1,0.3,0.4,0.6,0.7,0.5l0,0
			c0.3-0.1,0.6-0.4,0.5-0.7l-0.5-3.2C109.5,198.8,109.2,198.5,108.8,198.6z"/>
		<path class="st6" d="M110.1,202.7L110.1,202.7c-0.1,0.3-0.5,0.5-0.8,0.4l-3.1-1.2c-0.3-0.1-0.5-0.5-0.4-0.8l0,0
			c0.1-0.3,0.5-0.5,0.8-0.4l3.1,1.2C110.1,202.1,110.3,202.4,110.1,202.7z"/>
		<path class="st6" d="M102.9,202.6L102.9,202.6c-0.3,0.1-0.6,0.4-0.5,0.7l0.5,3.2c0.1,0.3,0.4,0.6,0.7,0.5l0,0
			c0.3-0.1,0.6-0.4,0.5-0.7l-0.5-3.2C103.5,202.8,103.2,202.5,102.9,202.6z"/>
		<path class="st6" d="M107,204.7L107,204.7c-0.1,0.3-0.5,0.5-0.8,0.4l-3.1-1.2c-0.3-0.1-0.5-0.5-0.4-0.8l0,0
			c0.1-0.3,0.5-0.5,0.8-0.4l3.1,1.2C106.9,204,107.1,204.4,107,204.7z"/>
	</g>
</g>
</svg>
