<svg xmlns="http://www.w3.org/2000/svg" width="76" height="93" viewBox="0 0 76 93">
  <g id="kitchen_icon" data-name="kitchen icon" transform="translate(-547 -880.655)">
    <g id="kitchen_stove" data-name="kitchen stove" transform="translate(547 911.873)">
      <rect id="Rectangle_719" data-name="Rectangle 719" width="34.135" height="38.207" transform="translate(3.82 12.198)" fill="#949fff"/>
      <rect id="Rectangle_720" data-name="Rectangle 720" width="76" height="2.865" transform="translate(0 9.926)" fill="#1f1f1f"/>
      <rect id="Rectangle_721" data-name="Rectangle 721" width="30.993" height="6.263" transform="translate(5.39 14.152)" fill="#283fff"/>
      <rect id="Rectangle_722" data-name="Rectangle 722" width="30.993" height="20.893" transform="translate(5.39 24.42)" fill="#283fff"/>
      <path id="Path_3209" data-name="Path 3209" d="M72.693,596.373l30.993-20.893H72.693Z" transform="translate(-67.303 -551.06)" fill="#283fff" fill-rule="evenodd"/>
      <rect id="Rectangle_723" data-name="Rectangle 723" width="17.067" height="37.613" transform="translate(37.886 12.792)" fill="#283fff"/>
      <rect id="Rectangle_726" data-name="Rectangle 726" width="17.067" height="37.613" transform="translate(54.915 12.792)" fill="#283fff"/>
      <circle id="Ellipse_26" data-name="Ellipse 26" cx="1.422" cy="1.422" r="1.422" transform="translate(49.984 15.176)" fill="#fff"/>
      <path id="Path_3210" data-name="Path 3210" d="M327.62,532.967a1.422,1.422,0,1,0-1.422-1.422A1.424,1.424,0,0,0,327.62,532.967Z" transform="translate(-269.225 -514.948)" fill="#fff" fill-rule="evenodd"/>
      <path id="Rectangle_728" data-name="Rectangle 728" d="M1.075,0H24.5a1.075,1.075,0,0,1,1.075,1.075v0A1.075,1.075,0,0,1,24.5,2.15H1.075A1.075,1.075,0,0,1,0,1.075v0A1.075,1.075,0,0,1,1.075,0Z" transform="translate(8.1 26.673)" fill="#1f1f1f"/>
      <g id="Group_332" data-name="Group 332" transform="translate(7.025 15.09)">
        <circle id="Ellipse_27" data-name="Ellipse 27" cx="1.664" cy="1.664" r="1.664" transform="translate(0 0.51)" fill="#fff"/>
        <circle id="Ellipse_28" data-name="Ellipse 28" cx="1.664" cy="1.664" r="1.664" transform="translate(4.586 3.076) rotate(-67.5)" fill="#fff"/>
        <circle id="Ellipse_29" data-name="Ellipse 29" cx="1.664" cy="1.664" r="1.664" transform="translate(10.193 0.51)" fill="#fff"/>
        <path id="Path_3211" data-name="Path 3211" d="M157.4,535.536a1.664,1.664,0,1,0-1.664-1.664A1.668,1.668,0,0,0,157.4,535.536Z" transform="translate(-140.446 -531.697)" fill="#fff" fill-rule="evenodd"/>
        <circle id="Ellipse_30" data-name="Ellipse 30" cx="1.664" cy="1.664" r="1.664" transform="translate(23.768 0.51)" fill="#fff"/>
      </g>
      <rect id="Rectangle_731" data-name="Rectangle 731" width="61.828" height="4.779" transform="translate(7.29 50.405)" fill="#1f1f1f"/>
      <rect id="Rectangle_732" data-name="Rectangle 732" width="0.522" height="43.344" transform="translate(37.64 9.926)" fill="#1f1f1f"/>
      <rect id="Rectangle_733" data-name="Rectangle 733" width="0.522" height="40.479" transform="translate(3.559 9.926)" fill="#3b2f1f"/>
      <rect id="Rectangle_734" data-name="Rectangle 734" width="0.522" height="43.344" transform="translate(54.683 9.926)" fill="#1f1f1f"/>
      <rect id="Rectangle_735" data-name="Rectangle 735" width="0.318" height="40.491" transform="translate(71.721 9.926)" fill="#3b2f1f"/>
      <rect id="Rectangle_741" data-name="Rectangle 741" width="0.493" height="1.951" transform="translate(8.493 15.314)" fill="#f1a51c"/>
      <rect id="Rectangle_742" data-name="Rectangle 742" width="0.493" height="1.951" transform="translate(13.54 15.314)" fill="#f1a51c"/>
      <rect id="Rectangle_743" data-name="Rectangle 743" width="0.493" height="1.951" transform="translate(18.61 15.314)" fill="#f1a51c"/>
      <rect id="Rectangle_744" data-name="Rectangle 744" width="0.493" height="1.951" transform="translate(23.699 15.314)" fill="#f1a51c"/>
      <rect id="Rectangle_745" data-name="Rectangle 745" width="0.493" height="1.951" transform="translate(32.166 15.314)" fill="#f1a51c"/>
      <path id="Path_3213" data-name="Path 3213" d="M124.148,455.661v8.576a1.354,1.354,0,0,1-1.35,1.35H108.584a1.354,1.354,0,0,1-1.35-1.35v-8.576Z" transform="translate(-94.827 -455.661)" fill="#ff5a3a" fill-rule="evenodd"/>
      <path id="Path_3214" data-name="Path 3214" d="M113.5,468.356h-.815a.776.776,0,0,1-.773-.773v-7.215H113.5Z" transform="translate(-98.526 -459.408)" fill="#fd9a86" fill-rule="evenodd"/>
    </g>
    <g id="shelf" transform="translate(547 882.201)">
      <g id="Background" transform="translate(0 11.43)">
        <rect id="Rectangle_746" data-name="Rectangle 746" width="46.346" height="2.859" fill="#283fff"/>
      </g>
      <g id="Objects" transform="translate(5.271 0)">
        <path id="Path_3219" data-name="Path 3219" d="M676.126,235.494a6.505,6.505,0,0,1-3.516,5.779h-5.982a6.505,6.505,0,0,1-3.515-5.779Z" transform="translate(-636.643 -229.843)" fill="#ffaf20" fill-rule="evenodd"/>
        <path id="Path_3221" data-name="Path 3221" d="M663.219,238.1h12.97a6.493,6.493,0,0,1-.156.983H663.375A6.485,6.485,0,0,1,663.219,238.1Z" transform="translate(-636.728 -231.923)" fill="#ff5a3a" fill-rule="evenodd"/>
        <path id="Path_3223" data-name="Path 3223" d="M544.115,221.712v7.415a1.171,1.171,0,0,1-1.167,1.167h-8.831a1.171,1.171,0,0,1-1.167-1.167v-7.415Z" transform="translate(-532.95 -218.864)" fill="#ff5a3a" fill-rule="evenodd"/>
        <path id="Path_3224" data-name="Path 3224" d="M584.553,230.464a.843.843,0,0,1,0-1.686Z" transform="translate(-573.387 -224.493)" fill="#fd9a86" fill-rule="evenodd"/>
        <path id="Path_3225" data-name="Path 3225" d="M586.3,223.592l10.6-1.878c1.078-.191,1.23,1.1.175,1.236L586.3,224.345C585.883,224.4,585.662,223.7,586.3,223.592Z" transform="translate(-575.132 -218.851)" fill="#ff5a3a" fill-rule="evenodd"/>
        <path id="Path_3226" data-name="Path 3226" d="M538.375,232.7h-.7a.67.67,0,0,1-.668-.668V225.79h1.373Z" transform="translate(-536.178 -222.113)" fill="#fd9a86" fill-rule="evenodd"/>
      </g>
    </g>
    <g id="man" transform="translate(574.576 880.655)">
      <g id="Group_336" data-name="Group 336" transform="translate(0 14.994)">
        <path id="Path_3227" data-name="Path 3227" d="M786.8,323.615l-1.209-.981-.12-1.368-.3-.122-.165.367-.425-1.107-.839-.472-1.16.543-.6,1.179.661,1.094,1.332.733,1.6,1.415Z" transform="translate(-781.982 -319.932)" fill="#eac1a4"/>
        <path id="Path_3228" data-name="Path 3228" d="M794.378,327.6l6.8,5.1,12.4-6.494,1.426,8.016-12.52,5.178-3.532-.419-7.319-9.722Z" transform="translate(-789.789 -325.005)" fill="#ff5a3a"/>
      </g>
      <g id="Group_340" data-name="Group 340" transform="translate(13.575 0)">
        <path id="Path_3229" data-name="Path 3229" d="M936.483,344.214a39.926,39.926,0,0,1-.826-5.373c-.1-3.338-.523-14.361-.523-14.361l-2.072-4.216-.383,0,.083-.01a2.9,2.9,0,0,1,.033-.92c3.612.217,7.315,2.111,8.351,5.628a4.378,4.378,0,0,1,.176.887c.144,1.807-.407,3.142.114,4.957.453,1.577.864,3.177,1.165,4.791.436,2.336.839,4.66,1.156,6.979a71.54,71.54,0,0,1,.671,7.673c.008.281.065,1.068.1,2.008.067,1.969.024,4.6-.805,4.7a.817.817,0,0,1-.442-.117,29.2,29.2,0,0,1-2.847-1.786l-.051-10.271Z" transform="translate(-917.405 -304.456)" fill="#ff5a3a"/>
        <path id="Path_3230" data-name="Path 3230" d="M852.914,355.383c.212-2.186.432-4.371.7-6.55a80.825,80.825,0,0,1,2.5-12.893c.472-1.608,1.016-3.193,1.561-4.778l1.988-5.789a7.242,7.242,0,0,1,4.648-4.927,9.137,9.137,0,0,1,1.364-.35,1.46,1.46,0,0,1,.028.153,1.244,1.244,0,0,0,.24.653l-1.6.015s-4.507,15.751-4.673,18.466c-.063,1.032-.272,3.285-.505,5.658l-2.448.36-.1,9.077c-.137.039-.273.077-.408.113a7.035,7.035,0,0,0-2.054,1.216C853.2,356.463,852.784,356.722,852.914,355.383Z" transform="translate(-852.891 -305.069)" fill="#ff5a3a"/>
        <g id="Group_338" data-name="Group 338" transform="translate(9.32 44.676)">
          <path id="Path_3231" data-name="Path 3231" d="M1014.193,684.069l.84,1.714-2.762,3.332-1.725-.759,1.318-3.65,1.706-1.923Z" transform="translate(-989.684 -642.991)" fill="#1f1f1f"/>
          <g id="Group_337" data-name="Group 337">
            <path id="Path_3232" data-name="Path 3232" d="M925.815,515.327l-7.687-16.5-4.1-19.986-1.893-3.909-10.565,3.1.918,3.084,8.4,20.167,12.619,15.8Z" transform="translate(-901.573 -474.928)" fill="#9d9796"/>
          </g>
        </g>
        <g id="Group_339" data-name="Group 339" transform="translate(4.426 41.894)">
          <path id="Path_3233" data-name="Path 3233" d="M877.966,460.4l-1.1,23.634,2.587,23.645,2.643.1,2.454-21.643,4.4-21.572Z" transform="translate(-876.705 -460.398)" fill="#9d9796"/>
          <path id="Path_3234" data-name="Path 3234" d="M881.581,709.682l-5.275,1.533-.3-1.791,2.873-2.03,2.548.092Z" transform="translate(-876.008 -660.11)" fill="#1f1f1f"/>
        </g>
        <path id="Path_3235" data-name="Path 3235" d="M874.907,450.4c-.369,3.756-.8,7.813-.8,7.813s1.979.047,4.841.26c-.212,0-.424-.011-.635-.012-1.991-.018-4.056.828-5.963,1.377l.1-9.077Z" transform="translate(-868.628 -410.424)" fill="#ff5a3a"/>
        <path id="Path_3236" data-name="Path 3236" d="M953.107,458.711c1.365.071,1.534-.182,1.534-.182s-1.231-4.946-2.1-9.248l3.9.574.051,10.271a10.242,10.242,0,0,0-1.043-.581A13.309,13.309,0,0,0,953.107,458.711Z" transform="translate(-933.468 -409.522)" fill="#ff5a3a"/>
        <path id="Path_3237" data-name="Path 3237" d="M879.177,348.919c.254-2.43.481-4.737.55-5.794.18-2.78,5.085-18.911,5.085-18.911l1.738-.016a.611.611,0,0,0,.061.058.551.551,0,0,0,.187.1,1.1,1.1,0,0,0,.445.012l1.724-.192.416,0,2.255,4.318s.465,11.289.569,14.707a38.665,38.665,0,0,0,.9,5.5c.941,4.406,2.281,9.47,2.281,9.47s-.185.259-1.67.186a31.726,31.726,0,0,1-4.511-.655l-.251-.028c-1.7-.191-3.334-.336-4.787-.444l-.589-.043c-3.115-.219-5.269-.267-5.269-.267S878.775,352.765,879.177,348.919Z" transform="translate(-873.444 -308.366)" fill="#fff"/>
        <path id="Path_3238" data-name="Path 3238" d="M905.438,281.262a2.91,2.91,0,0,0-.19-1.285,1.209,1.209,0,0,1-.022-.333,9.492,9.492,0,0,0,2.083-.657c1.161-.507,3.423-1.047,4.629-.448.954.474.661,1.983.613,2.938a2.608,2.608,0,0,0,.025.734,3.144,3.144,0,0,0,.307.619,2.639,2.639,0,0,1-.564,1.046c-.764.863-1.542,1.287-1.748,2.261a2.9,2.9,0,0,0-.033.92l-.082.01-1.584.187a.951.951,0,0,1-.409-.011.5.5,0,0,1-.172-.1.6.6,0,0,1-.056-.057,1.243,1.243,0,0,1-.24-.653,1.477,1.477,0,0,0-.028-.153c-.206-.889-1.188-1.289-1.717-2.077a6.905,6.905,0,0,1-1.049-3c0-.018,0-.036-.007-.054A1.535,1.535,0,0,0,905.438,281.262Z" transform="translate(-895.181 -271.258)" fill="#eac1a4"/>
        <path id="Path_3239" data-name="Path 3239" d="M887.3,245.3a3.1,3.1,0,0,0,1.089-.911c.186-.329.214-.736.4-1.066a2.677,2.677,0,0,1,1.689-.976c1.577-.507,2.427-1.091,4.1-.443,1.188.461,2.722.523,3.825,1.2a3.861,3.861,0,0,1,1.173,1.235,6.967,6.967,0,0,1,.656,6.006,7.407,7.407,0,0,1-.589,1.138,4.568,4.568,0,0,1-1.694,1.947.851.851,0,0,0-.072-.236,3.15,3.15,0,0,1-.307-.619,2.608,2.608,0,0,1-.025-.734c.048-.955.341-2.465-.613-2.938-1.206-.6-3.468-.059-4.629.448a9.491,9.491,0,0,1-2.083.657,1.209,1.209,0,0,0,.022.333,2.908,2.908,0,0,1,.19,1.286,1.539,1.539,0,0,1-.244-.107,2.637,2.637,0,0,1-1.095-1.454,2.187,2.187,0,0,1-.648-.162,4.091,4.091,0,0,1-1.81-3.318A1.522,1.522,0,0,1,887.3,245.3Z" transform="translate(-880.174 -241.622)" fill="#c49c0f"/>
      </g>
      <g id="Group_341" data-name="Group 341" transform="translate(13.183 17.769)">
        <path id="Path_3240" data-name="Path 3240" d="M859.977,420.168l-1.588.19-1.1-.889-.306.136.153.384-1.12-.478-.948.281-.428,1.243.441,1.285,1.28.295,1.493-.458,2.185-.166Z" transform="translate(-854.644 -404.808)" fill="#eac1a4"/>
        <path id="Path_3241" data-name="Path 3241" d="M873.843,359.674l8.62-1.373,5.173-13.381,5.837,4.266-5.129,12.938-2.834,2.306-12.4-1.55Z" transform="translate(-869.475 -344.919)" fill="#ff5a3a"/>
      </g>
    </g>
  </g>
</svg>
