<svg xmlns="http://www.w3.org/2000/svg" width="320" height="249.999" viewBox="0 0 320 249.999">
  <g id="Search_icon" data-name="Search icon" transform="translate(1)">
    <g id="background" transform="translate(32.187)">
      <ellipse id="Ellipse_15" data-name="Ellipse 15" cx="120.743" cy="120.755" rx="120.743" ry="120.755" transform="translate(0)" fill="#ff5a3a"/>
    </g>
    <g id="object" transform="translate(-1 41.981)">
      <g id="Group_42" data-name="Group 42" transform="translate(93.125 20.728)">
        <g id="Group_29" data-name="Group 29">
          <path id="Path_2" data-name="Path 2" d="M705.434,477.7H592.1v-163H717.873V467.106C717.873,472.961,712.312,477.7,705.434,477.7Z" transform="translate(-592.077 -314.7)" fill="#fff"/>
          <rect id="Rectangle_50" data-name="Rectangle 50" width="125.569" height="7.581" fill="#8cabef"/>
        </g>
        <g id="Group_31" data-name="Group 31" transform="translate(29.775 87.731)">
          <g id="Group_30" data-name="Group 30">
            <path id="Path_3" data-name="Path 3" d="M787.486,703.207c1.7,0,1.7-1.907,0-1.907H724.452c-1.7,0-1.7,1.907,0,1.907h63.034Z" transform="translate(-723.175 -701.3)" fill="#d67086"/>
          </g>
        </g>
        <g id="Group_32" data-name="Group 32" transform="translate(26.935 12.825)">
          <path id="Path_4" data-name="Path 4" d="M770.464,371.2A33.353,33.353,0,0,0,745.2,382.731l25.264,21.881,25.264-21.881A33.353,33.353,0,0,0,770.464,371.2Z" transform="translate(-737.361 -371.2)" fill="#ff9b88"/>
          <path id="Path_5" data-name="Path 5" d="M900.195,496.9,867.1,501.667V535.1a33.421,33.421,0,0,0,33.435-33.435A32.737,32.737,0,0,0,900.195,496.9Z" transform="translate(-831.592 -468.368)" fill="#283fff"/>
          <path id="Path_6" data-name="Path 6" d="M718.55,422.5a33.384,33.384,0,0,0,4.018,47.1,32.827,32.827,0,0,0,3.859,2.815l17.682-28.373Z" transform="translate(-710.666 -410.856)" fill="#dddae8"/>
          <path id="Path_7" data-name="Path 7" d="M796.268,551.035a33.243,33.243,0,0,1-18.068-5.312L796.268,517.6Z" transform="translate(-762.871 -484.369)" fill="#7e8bff"/>
          <path id="Path_8" data-name="Path 8" d="M907.695,430.337a33.311,33.311,0,0,0-7.831-17.137L874.6,435.081Z" transform="translate(-837.389 -403.667)" fill="#3b3387"/>
        </g>
        <g id="Group_37" data-name="Group 37" transform="translate(14.822 97.972)">
          <g id="Group_33" data-name="Group 33" transform="translate(0 16.683)">
            <rect id="Rectangle_51" data-name="Rectangle 51" width="12.28" height="29.576" transform="translate(0 11.44)" fill="#ffaf20"/>
            <rect id="Rectangle_52" data-name="Rectangle 52" width="12.28" height="13.892" fill="#ff9b88"/>
          </g>
          <g id="Group_34" data-name="Group 34" transform="translate(80.852 4.494)">
            <rect id="Rectangle_53" data-name="Rectangle 53" width="12.28" height="29.576" transform="translate(0 24.968)" fill="#ffaf20"/>
            <rect id="Rectangle_54" data-name="Rectangle 54" width="12.371" height="27.42" fill="#ff9b88"/>
          </g>
          <g id="Group_35" data-name="Group 35" transform="translate(53.886 24.356)">
            <rect id="Rectangle_55" data-name="Rectangle 55" width="12.28" height="31.256" transform="translate(0 2.769)" fill="#ffaf20"/>
            <rect id="Rectangle_56" data-name="Rectangle 56" width="12.28" height="20.747" fill="#ff9b88"/>
          </g>
          <g id="Group_36" data-name="Group 36" transform="translate(26.943)">
            <rect id="Rectangle_57" data-name="Rectangle 57" width="12.28" height="41.97" transform="translate(0 16.252)" fill="#ffaf20"/>
            <rect id="Rectangle_58" data-name="Rectangle 58" width="12.28" height="33.571" fill="#ff9b88"/>
          </g>
        </g>
        <g id="Group_41" data-name="Group 41" transform="translate(3.178 2.701)">
          <g id="Group_38" data-name="Group 38">
            <path id="Path_9" data-name="Path 9" d="M607.612,329.823a1.612,1.612,0,1,1,1.612-1.612A1.618,1.618,0,0,1,607.612,329.823Zm0-2.974a1.339,1.339,0,1,0,1.339,1.339A1.327,1.327,0,0,0,607.612,326.85Z" transform="translate(-606 -326.6)" fill="#fff"/>
          </g>
          <g id="Group_39" data-name="Group 39" transform="translate(4.994)">
            <path id="Path_10" data-name="Path 10" d="M629.612,329.823a1.612,1.612,0,1,1,1.612-1.612A1.618,1.618,0,0,1,629.612,329.823Zm0-2.974a1.339,1.339,0,0,0,0,2.678,1.339,1.339,0,1,0,0-2.678Z" transform="translate(-628 -326.6)" fill="#fff"/>
          </g>
          <g id="Group_40" data-name="Group 40" transform="translate(9.965)">
            <path id="Path_11" data-name="Path 11" d="M651.512,329.823a1.612,1.612,0,1,1,1.612-1.612A1.618,1.618,0,0,1,651.512,329.823Zm0-2.974a1.339,1.339,0,1,0,1.339,1.339A1.342,1.342,0,0,0,651.512,326.85Z" transform="translate(-649.9 -326.6)" fill="#fff"/>
          </g>
        </g>
      </g>
      <path id="Path_12" data-name="Path 12" d="M333.971,632.321H253.8V508.5h87.617V624.876A7.435,7.435,0,0,1,333.971,632.321Z" transform="translate(-237.298 -443.822)" fill="#2e4661" opacity="0.07"/>
      <g id="Group_44" data-name="Group 44" transform="translate(6.56 55.303)">
        <g id="Group_43" data-name="Group 43">
          <path id="Path_13" data-name="Path 13" d="M293.554,596.923H210V467.2h94.4V586.073A10.85,10.85,0,0,1,293.554,596.923Z" transform="translate(-210 -467.2)" fill="#f1ece8"/>
        </g>
        <rect id="Rectangle_59" data-name="Rectangle 59" width="76.426" height="48.325" transform="translate(10.01 10.351)" fill="#fff"/>
        <path id="Path_14" data-name="Path 14" d="M324.155,544.034a3.183,3.183,0,0,0,1.907,1.566c1.929.726,4.54.2,5.652-1.43,1.861-2.7,1.339-6.583,3.337-9.4a6.763,6.763,0,0,1,3.518-2.5,6.031,6.031,0,0,1,4.449.431c2.111,1.158,2.86,3.586,2.883,5.765a66.743,66.743,0,0,1-1.317,12.711,11,11,0,0,1-2.383,5.675c-1.975,2.156-5.221,3.042-8.33,3.541-7.876,1.2-15.957.477-23.9-.272-6.4-.59-12.779-1.2-19.18-1.793-1.793-.159-7.1.113-8.194-1.135-1.044-1.226-.227-5.357.386-6.628,1.362-2.837,5.13-4.449,8.648-4.267,7.945.409,4.812-7.9,7.354-11.826,1.362-2.088,4.335-3.586,6.9-2.724,2.451.84,3.473,3.291,4.676,5.311a4.422,4.422,0,0,0,2.86,2.383c2.27.386,4.177-1.929,6.492-1.839a3.862,3.862,0,0,1,3.132,2.066C323.815,541.151,323.542,542.763,324.155,544.034Z" transform="translate(-265.729 -516.909)" fill="#f1ece8"/>
        <path id="Path_15" data-name="Path 15" d="M340.22,587.7s.023-3.473.023-3.677c.023-5.2.023-10.373.023-15.571,0-4.971.409-9.919.34-14.868-.045-2.293-1.021-3.5-3.427-2.86a11.236,11.236,0,0,0-6.038,3.95c-1.021,1.317-1.861,2.974-3.427,3.5-2.815.953-5.107-2.224-7.627-3.768a7.878,7.878,0,0,0-8.943.658c-2.951,2.5-3.632,6.81-6.129,9.76a10.075,10.075,0,0,1-11.6,2.542c-1.589-.726-2.951-1.884-4.494-2.656-6.2-3.11-14.8,1.362-15.821,8.217v14.164C273.077,587.065,340.356,587.814,340.22,587.7Z" transform="translate(-258.777 -531.635)" fill="#ffaf20"/>
        <rect id="Rectangle_60" data-name="Rectangle 60" width="5.743" height="5.743" transform="translate(11.259 66.053)" fill="#8cabef"/>
        <rect id="Rectangle_61" data-name="Rectangle 61" width="5.743" height="5.743" transform="translate(11.259 74.542)" fill="#283fff"/>
        <rect id="Rectangle_62" data-name="Rectangle 62" width="16.729" height="1.748" transform="translate(21.745 67.801)" fill="#f7f7f7"/>
        <rect id="Rectangle_63" data-name="Rectangle 63" width="16.729" height="1.748" transform="translate(21.496 77.039)" fill="#f7f7f7"/>
        <rect id="Rectangle_64" data-name="Rectangle 64" width="72.931" height="1.884" transform="translate(12.008 90.091)" fill="#f7f7f7"/>
        <rect id="Rectangle_65" data-name="Rectangle 65" width="32.459" height="25.876" transform="translate(12.008 95.584)" fill="#eed5d5"/>
        <rect id="Rectangle_66" data-name="Rectangle 66" width="35.455" height="11.281" transform="translate(49.483 95.833)" fill="#f7f7f7"/>
        <rect id="Rectangle_67" data-name="Rectangle 67" width="35.455" height="11.281" transform="translate(49.097 110.065)" fill="#f7f7f7"/>
      </g>
      <g id="Group_46" data-name="Group 46" transform="translate(0 1.964)">
        <path id="Path_16" data-name="Path 16" d="M241.183,231H181.509a.433.433,0,0,0-.409.454v31.619c0,7.786,5.788,14.119,12.961,14.119H218.8l10.124,14.187a.487.487,0,0,0,.885-.272l.2-13.914h11.19a.433.433,0,0,0,.409-.454V231.454A.468.468,0,0,0,241.183,231Z" transform="translate(-181.1 -231)" fill="#7e8bff"/>
        <g id="Group_45" data-name="Group 45" transform="translate(7.808 7.559)">
          <rect id="Rectangle_68" data-name="Rectangle 68" width="37.158" height="1.544" fill="#dddae8"/>
          <rect id="Rectangle_69" data-name="Rectangle 69" width="44.33" height="1.544" transform="translate(0 11.803)" fill="#dddae8"/>
          <rect id="Rectangle_70" data-name="Rectangle 70" width="44.33" height="1.544" transform="translate(0 23.607)" fill="#dddae8"/>
        </g>
      </g>
      <g id="Group_53" data-name="Group 53" transform="translate(187.281 37.657)">
        <g id="Group_50" data-name="Group 50" transform="translate(0 39.817)">
          <path id="Path_19" data-name="Path 19" d="M1007.954,566.043a.341.341,0,0,1-.34-.3,9.491,9.491,0,0,1-.114-1.385.341.341,0,0,1,.681-.045c.023.431.068.885.114,1.316a.353.353,0,0,1-.3.386A.079.079,0,0,1,1007.954,566.043Z" transform="translate(-1007.5 -564)" fill="#5d66d3"/>
        </g>
        <g id="Group_51" data-name="Group 51" transform="translate(0.156 3.708)">
          <path id="Path_20" data-name="Path 20" d="M1008.532,438.987h-.045a.352.352,0,0,1-.3-.386,17.311,17.311,0,0,1,.658-2.7.337.337,0,0,1,.635.227,15.676,15.676,0,0,0-.635,2.565A.305.305,0,0,1,1008.532,438.987Zm1.7-5.107a.422.422,0,0,1-.159-.045.338.338,0,0,1-.136-.454,19.819,19.819,0,0,1,1.43-2.361.343.343,0,1,1,.567.386,21.985,21.985,0,0,0-1.385,2.293A.391.391,0,0,1,1010.235,433.88Zm3.064-4.472a.325.325,0,0,1-.227-.091.329.329,0,0,1-.023-.477,25.965,25.965,0,0,1,1.907-1.975.337.337,0,0,1,.454.5,24.774,24.774,0,0,0-1.861,1.929A.365.365,0,0,1,1013.3,429.408Zm3.95-3.723a.355.355,0,0,1-.272-.136.332.332,0,0,1,.068-.477,26.235,26.235,0,0,1,2.225-1.589.343.343,0,1,1,.386.567q-1.124.749-2.179,1.566A.508.508,0,0,1,1017.248,425.685Zm4.54-2.974a.354.354,0,0,1-.3-.182.338.338,0,0,1,.136-.454c.794-.431,1.612-.862,2.429-1.248a.34.34,0,1,1,.3.613c-.817.386-1.612.794-2.406,1.226A.421.421,0,0,1,1021.788,422.712Zm4.9-2.338a.356.356,0,0,1-.318-.2.372.372,0,0,1,.182-.454c.84-.34,1.7-.658,2.565-.953a.337.337,0,1,1,.227.636q-1.294.443-2.52.953A.4.4,0,0,1,1026.691,420.374Zm5.107-1.748a.3.3,0,0,1-.318-.25.36.36,0,0,1,.227-.431c.863-.25,1.748-.477,2.633-.681a.339.339,0,1,1,.159.658c-.885.2-1.771.431-2.61.681C1031.866,418.6,1031.844,418.626,1031.8,418.626Zm43.422-.976h-.272a.34.34,0,0,1,0-.681h.272c.84,0,1.657-.023,2.406-.091a.341.341,0,1,1,.045.681C1076.9,417.627,1076.083,417.65,1075.22,417.65Zm-2.973-.114h0c-.84-.045-1.725-.136-2.747-.227a.331.331,0,0,1,.068-.658c1,.091,1.884.182,2.7.227a.349.349,0,0,1,.318.363A.363.363,0,0,1,1072.247,417.536Zm-35.16-.159a.361.361,0,0,1-.34-.272.353.353,0,0,1,.272-.409c.885-.159,1.793-.318,2.7-.454a.343.343,0,0,1,.091.681c-.908.136-1.793.272-2.656.454C1037.132,417.355,1037.11,417.378,1037.087,417.378Zm43.264-.182a.361.361,0,0,1-.341-.272.354.354,0,0,1,.272-.409,21.152,21.152,0,0,0,2.565-.681.337.337,0,1,1,.227.636,19.265,19.265,0,0,1-2.678.7C1080.4,417.2,1080.373,417.2,1080.351,417.2Zm-13.529-.159h-.045l-.817-.091-1.884-.2a.331.331,0,0,1,.068-.658c.635.068,1.271.136,1.884.2l.817.091a.339.339,0,0,1,.3.386A.3.3,0,0,1,1066.822,417.037Zm-24.355-.454a.344.344,0,0,1-.341-.3.353.353,0,0,1,.3-.386c.885-.091,1.793-.182,2.724-.25a.341.341,0,0,1,.045.681c-.908.068-1.816.159-2.7.25Zm18.953-.068h-.022c-.908-.068-1.816-.136-2.7-.182a.341.341,0,1,1,.045-.681c.885.045,1.793.113,2.724.182a.341.341,0,1,1-.045.681Zm-5.4-.318c-.023,0-.023-.023,0,0q-1.4-.068-2.724-.068a.34.34,0,0,1,0-.681l2.724.068a.341.341,0,0,1,0,.681Zm-8.149-.023a.33.33,0,0,1-.34-.318.367.367,0,0,1,.318-.363c.885-.045,1.816-.068,2.724-.068a.341.341,0,1,1,0,.681l-2.7.068Zm37.589-.749a.327.327,0,0,1-.3-.182.338.338,0,0,1,.136-.454,17.646,17.646,0,0,0,2.224-1.43.34.34,0,0,1,.408.545,18.248,18.248,0,0,1-2.315,1.5C1085.571,415.4,1085.5,415.426,1085.458,415.426Zm4.313-3.246a.341.341,0,0,1-.25-.091.329.329,0,0,1,0-.477,21.79,21.79,0,0,0,1.771-2,.339.339,0,1,1,.522.431,27.054,27.054,0,0,1-1.838,2.066A.355.355,0,0,1,1089.77,412.18Zm3.382-4.245a.427.427,0,0,1-.181-.045.332.332,0,0,1-.091-.477c.477-.726.931-1.521,1.362-2.315a.335.335,0,0,1,.59.318c-.431.817-.908,1.612-1.385,2.361A.331.331,0,0,1,1093.152,407.935Z" transform="translate(-1008.189 -404.921)" fill="#5d66d3"/>
        </g>
        <g id="Group_52" data-name="Group 52" transform="translate(87.341)">
          <path id="Path_21" data-name="Path 21" d="M1392.63,390.518a.288.288,0,0,1-.136-.023.342.342,0,0,1-.182-.454c.182-.409.363-.817.522-1.248a.346.346,0,1,1,.635.272c-.182.431-.363.863-.545,1.271A.375.375,0,0,1,1392.63,390.518Z" transform="translate(-1392.286 -388.586)" fill="#5d66d3"/>
        </g>
      </g>
      <g id="Group_54" data-name="Group 54" transform="translate(263.48 11.61)">
        <path id="Path_22" data-name="Path 22" d="M1371.505,274.406l-1.43,32.3-10.668-11.19s12.121-21.995,12.212-21.632l-.477-.386c.363-.113-12.984,21.2-12.984,21.2l-14.958-3.881,27.533-16.933Z" transform="translate(-1343.2 -273.498)" fill="#7e8bff"/>
      </g>
      <g id="Group_69" data-name="Group 69" transform="translate(149.276 0)">
        <g id="Group_67" data-name="Group 67" transform="translate(0)">
          <g id="Group_65" data-name="Group 65">
            <g id="Group_62" data-name="Group 62">
              <g id="Group_60" data-name="Group 60" transform="translate(80.974 67.222)">
                <g id="Group_59" data-name="Group 59">
                  <path id="Path_25" data-name="Path 25" d="M1247.418,545.6l-7.581,12.144-43.036-27.1,7.581-12.144Z" transform="translate(-1196.8 -518.5)" fill="#f7f7f7"/>
                  <path id="Path_26" data-name="Path 26" d="M1339.828,609.729l-.091.136c-2.383,3.836-6.651,5.493-9.533,3.677l-33-20.247,8.671-14.6,33.095,20.86C1341.848,601.331,1342.234,605.893,1339.828,609.729Z" transform="translate(-1274.411 -565.036)" fill="#353a85"/>
                </g>
                <path id="Path_27" data-name="Path 27" d="M1210.1,534.392l2.088,1.521,18.84-4.9L1215.321,521Z" transform="translate(-1207.081 -520.432)" fill="#f1ece8" opacity="0.2"/>
              </g>
              <g id="Group_61" data-name="Group 61">
                <path id="Path_28" data-name="Path 28" d="M947.008,269.928a43.1,43.1,0,1,0,13.733,59.38A43.117,43.117,0,0,0,947.008,269.928Zm8.625,56.2a37.065,37.065,0,1,1-11.8-51.072A37.059,37.059,0,0,1,955.633,326.13Z" transform="translate(-871.777 -254.073)" fill="#ffaf20"/>
                <circle id="Ellipse_16" data-name="Ellipse 16" cx="37.066" cy="37.066" r="37.066" transform="translate(0 52.42) rotate(-45)" fill="#d1e7f5" opacity="0.5"/>
              </g>
            </g>
            <g id="Group_64" data-name="Group 64" transform="translate(20.527 19.001)">
              <g id="Group_63" data-name="Group 63" opacity="0.22">
                <path id="Path_29" data-name="Path 29" d="M935.675,337.982a26.11,26.11,0,0,1,48.666-13.823c1.68,2.883,6.265.477,4.585-2.406a31.656,31.656,0,0,0-33.866-15c-13.12,2.792-22.812,14.073-24.378,27.261a31,31,0,0,0-.182,3.836c.045,3.314,5.221,3.5,5.175.136Z" transform="translate(-930.5 -306.058)" fill="#fff"/>
              </g>
              <ellipse id="Ellipse_17" data-name="Ellipse 17" cx="3.405" cy="3.405" rx="3.405" ry="3.405" transform="translate(55.948 23.121) rotate(-7.527)" fill="#fff" opacity="0.31"/>
            </g>
          </g>
          <path id="Path_30" data-name="Path 30" d="M1292.2,587.511l8.262-13.892a1.1,1.1,0,0,0-.295-1.43l-.136-.114a1.1,1.1,0,0,0-1.589.318l-8.126,13.982a1.107,1.107,0,0,0,.408,1.5h.023A1.022,1.022,0,0,0,1292.2,587.511Z" transform="translate(-1188.008 -492.528)" fill="#d67086"/>
          <g id="Group_66" data-name="Group 66" transform="translate(13.272 14.028)">
            <path id="Path_31" data-name="Path 31" d="M973.841,322.794a36.646,36.646,0,1,1-4.9-18.34,36.9,36.9,0,0,1,4.9,18.34.988.988,0,0,0,1.975,0,16.769,16.769,0,1,0,.045,0A1.012,1.012,0,0,0,973.841,322.794Z" transform="translate(-898.535 -284.15)" fill="#f7f7f7"/>
          </g>
        </g>
        <path id="Path_32" data-name="Path 32" d="M1335.038,578.686c1.385-3.654,3.4-10.9,4.562-14.391-2.542-8.557-7.763-22.835-8.308-22.994-3.178-.908-5.992-1.748-9.148-2.678-.136-.045-1.067,4.676-1.226,4.653a7.154,7.154,0,0,1-.2-2.066h0l-.613-6.151a1.164,1.164,0,0,0-.862-1.089c-1.861-.477-5.856-1.43-6.015-1.135-.068.113-.409,5.448-.7,6.968l-.658-.34L1311,529.5s-6.923-1.748-7.059-1.43c-.159.386-1.7,8.83-1.7,8.83s-2.678,20.156-2.974,21.586c-.454,2.088-1.839,3.972-1.634,6.06a20.159,20.159,0,0,0,2.27,6.628c2.451,5.13,4.88,10.282,7.332,15.412.522,3.5,1.09,11.463,1.884,14.913,9.034-1.816,18.091-3.2,28.146-6.4C1337.512,595.052,1334.448,580.275,1335.038,578.686Z" transform="translate(-1193.754 -458.786)" fill="#eac5b0"/>
        <g id="Group_68" data-name="Group 68" transform="translate(107.622 124.057)">
          <path id="Path_33" data-name="Path 33" d="M1330.166,801.787l-2.065-18.318,36.068-13.369,6.287,22.335L1330.3,804.42Z" transform="translate(-1324.945 -770.1)" fill="#f7f7f7"/>
          <path id="Path_34" data-name="Path 34" d="M1361.1,817.7s-37.112,21.2-44.784,23.221l-2.111,49.937h63.1Z" transform="translate(-1314.2 -806.895)" fill="#283fff"/>
          <path id="Path_35" data-name="Path 35" d="M1348.032,852.979a2.056,2.056,0,1,1-1.453-2.52A2.055,2.055,0,0,1,1348.032,852.979Z" transform="translate(-1337.228 -832.165)" fill="#292949"/>
        </g>
        <path id="Path_36" data-name="Path 36" d="M1247.7,630.382l-4.812-7.581-6.969-6.492s-1.362-3.9,3.019-4.018c4.358-.114,7.309,3.541,9.238,6.446.84,1.271,4.948,4.971,8.149,7.241,4.177,2.974-.182,16.025-.182,16.025S1248.176,631.108,1247.7,630.382Z" transform="translate(-1145.91 -523.914)" fill="#eac5b0"/>
      </g>
    </g>
  </g>
</svg>
