<svg xmlns="http://www.w3.org/2000/svg" width="338" height="238" viewBox="0 0 338 238">
  <g id="Iliustrations_search" data-name="Iliustrations/search" transform="translate(14.493 7.216)">
    <path id="Path_2716" data-name="Path 2716" d="M235.363,662.113a267.107,267.107,0,0,0-29.678,1.407c-3.725.427-7.372,1.367-11.1,1.747-7.458.756-14.784,2.17-22.27,2.817-6.027.524-12.079.832-18.088,1.5a61.736,61.736,0,0,1-17.464-.55c-4.139-.763-8.3-1.193-12.368-2.415a49.177,49.177,0,0,0-14.241-2.314c-6.78.051-13.353.054-19.826,2.473a19.382,19.382,0,0,0-6.78,4.028c-3.95,4.079-4.485,14.258-.539,18.488,6.641,7.123,20.822,9.915,30.132,10.049,10.206.145,20.115-.636,30.331-1.085,9.5-.427,18.966-1.034,28.479-1.012,19.423.043,38.853,0,58.243-1.334,18.2-1.255,36.48-.824,54.739-.824,18.72,0,37.318.152,55.9,2.712,8.1,1.117,16.35,1.508,24.49,2.293,7.29.7,14.295,0,21.557-.662a50.314,50.314,0,0,0,17.681-4.9c4.386-2.17,12.2-8.859,13.56-14.012,3.772-14.439-53.119-14.1-61.855-14.059-9.77.036-19.626.362-29.382,0a67.1,67.1,0,0,1-12.165-1.895c-4.011-.908-8.018-.687-12.068-1.049-16.882-1.584-33.807-1.352-50.743-1.352C246.393,662.146,240.876,662.1,235.363,662.113Z" transform="translate(-94.79 -469.594)" fill="#ffcdc3"/>
    <g id="Object" transform="translate(55.524 -7.216)">
      <path id="Path_2339" data-name="Path 2339" d="M344.763,605.91l5.651,3.108-.489,2.652-10.045-1.377.54-3.822Z" transform="translate(-286.588 -388.764)" fill="#292949"/>
      <path id="Path_2340" data-name="Path 2340" d="M274.18,613.857l-3.931-.047-.96,3.329.1.029-.025,0,6.55,3.764,3.094.3.348-3.536-.844-.6Z" transform="translate(-241.558 -393.802)" fill="#292949"/>
      <path id="Path_2341" data-name="Path 2341" d="M127.909,482.161c.634-.065,2.355,22.562,2.355,22.562l-12.23,41.12-7.057-1.391,4.3-41.055s-14.947-17.229-10.643-30.1C111.129,476.452,127.909,482.161,127.909,482.161Z" transform="translate(-83.162 -324.824)" fill="#474747"/>
      <path id="Path_2342" data-name="Path 2342" d="M185.248,498.29l1.427,20.182-3.941,40.146-7.245-.362s-1.753-38.037-2.471-38.809-6.908-20.732-6.908-20.732Z" transform="translate(-122.876 -340.761)" fill="#474747"/>
      <path id="Path_2343" data-name="Path 2343" d="M134.54,396.318c-23.072-.42-24.764-12.063-29.847-13.331s-2.431-7.321-2.431-7.321.964-2.7,1.373-4.112c2.963-10.143,11.86-23.185,11.864-23.185,4.387-5.988,8.788-11.277,12.592-14.469a42.428,42.428,0,0,1,23.424-9.94c17.446,5.456,11.288,13.661,11.491,15.816-5.742,5.26-9.9,13.143-12.965,21.605a50.513,50.513,0,0,0-1.945,21.605c.38,3.014.822,5.626,1.261,7.9C149.433,393.858,146.574,396.51,134.54,396.318Z" transform="translate(-81.708 -228.679)" fill="#ffaf20"/>
      <path id="Path_2344" data-name="Path 2344" d="M179.991,327.927s3.883-2.13,6.289,1.572c2.92,4.492-13.585,24.75-13.193,68.072-4.322.877-15.468,2.967-26.967-2.46C148.732,382.24,160.005,343.42,179.991,327.927Z" transform="translate(-110.127 -230.829)" fill="#fff"/>
      <path id="Path_2345" data-name="Path 2345" d="M259.274,286.326c1.953,1.529,3.652,4.771,2.978,7.321-.326,1.228-1.214,2.054-1.507,3.384-.59,2.619-5.144,4.546-3.228,7.586.982,1.561,2.9,2.221,4.651,2.775a1.38,1.38,0,0,0,.659.091.956.956,0,0,0,.67-.8,3.755,3.755,0,0,0-.04-1.087c-.4-3.833,2.2-7.673,3.155-11.3s.924-7.76-1.612-10.763c-2.137.2-3-.214-4.376,1.449Z" transform="translate(-180.879 -202.395)" fill="#795c43"/>
      <path id="Path_2346" data-name="Path 2346" d="M238.509,300.767a8.09,8.09,0,0,0,6.644-3.173,16.211,16.211,0,0,0,2.992-6.97c1.757-8.31-8.419-11-13.766-5.916C229.685,289.139,231.108,300.2,238.509,300.767Z" transform="translate(-164.692 -201.47)" fill="#eacdb0"/>
      <path id="Path_2347" data-name="Path 2347" d="M183.582,289.065a7.18,7.18,0,0,0,3.912-1.116c1.96-1.413,3.115-4.6,4.318-6.618,1.268-2.126,2.717-4.409,5.072-5.22a5.853,5.853,0,0,1,4.318.388c.982.395.866.779,1.909.6a4.58,4.58,0,0,0,2.286-1.746,4.4,4.4,0,0,0,.395-3.775,6.158,6.158,0,0,0-3.528-4.025c-6.3-2.811-12.657-1.043-17.059,4.416-2.116,2.626-2.873,6.216-5,8.694-1.315,1.536-2.945,2.242-4.2,3.938-3.26,4.4-8.593,9.535-10.506,14.69a.761.761,0,0,0-.047.594c.178.362.725.243,1.109.058l6.5-3.242a10.3,10.3,0,0,0,2.416-1.5c1.742-1.6,2.347-4.347,4.467-5.434A9.736,9.736,0,0,1,183.582,289.065Z" transform="translate(-122.432 -191.33)" fill="#795c43"/>
      <path id="Path_2348" data-name="Path 2348" d="M298.3,254.514l-17.41-4.086L276.23,227.29l5.782.5,4.459,15.11,22.572.645,1.29,1.721Z" transform="translate(-245.984 -145.91)" fill="#ffaf20"/>
      <path id="Path_2349" data-name="Path 2349" d="M141.659,262.844l-.569-6.064-4.3-3.289-.254,1.771,1.514,1.518a5.435,5.435,0,0,0,1.449,2.652,20.409,20.409,0,0,1-.949,3.163Z" transform="translate(-104.008 -183.053)" fill="#ebceb1"/>
      <path id="Path_2350" data-name="Path 2350" d="M423.749,657.54l4.988,3.2,1.732,2.536a18.753,18.753,0,0,1-2.771,1.134c-1,.25-8.9-.594-8.9-.594l-.214-4.63Z" transform="translate(-283.907 -442.321)" fill="#273140"/>
      <path id="Path_2351" data-name="Path 2351" d="M351.331,665.216l2.463,2.764s2.007,3.749,1,3.691-6.47.235-6.839-.391a48.373,48.373,0,0,0-3.648-3.235c-.388-.424,0-3.945,0-3.945Z" transform="translate(-236.424 -446.505)" fill="#273140"/>
      <path id="Path_2352" data-name="Path 2352" d="M359.206,446.874l-6.2,37.675-7.9,35.864-7.042-.4,1.358-37.867s-5.072-34.8-5.093-45.094Z" transform="translate(-230.172 -301.706)" fill="#bdbfc1"/>
      <path id="Path_2353" data-name="Path 2353" d="M557.444,384.3l-2.833,69.518-7.249.337-3.851-35.324L537.9,387.667l14.976-19.287Z" transform="translate(-412.891 -237.281)" fill="#bdbfc1"/>
      <path id="Path_2354" data-name="Path 2354" d="M490.38,247.01Z" transform="translate(-382.579 -158.446)" fill="none"/>
      <path id="Path_2355" data-name="Path 2355" d="M365.823,309.014c-3.8-18.475,1.022-27.4-7.292-32.538,0,0-13.548-3.724-22.177,2.471l-.362.261-3.137,6.521-2.38,29.245s-6.655,38.4-3.123,38.7c4,.362,22.384-8.216,25.873-8.013s14.168,2.116,24.242-1.315C386.113,341.407,369.619,327.5,365.823,309.014Z" transform="translate(-225.065 -197.472)" fill="#ff5a3a"/>
      <path id="Path_2356" data-name="Path 2356" d="M529.752,219.9l-2.634.1-.268,2.652,9.68,27.075,2.17-11.734-2.369-17.037Z" transform="translate(-405.842 -141.178)" fill="#fff"/>
      <path id="Path_2357" data-name="Path 2357" d="M550.261,330.95l-3.731,29.477,7.865,1.108,5.441-.42-6.879-25.575Z" transform="translate(-418.394 -212.476)" fill="#fff"/>
      <path id="Path_2358" data-name="Path 2358" d="M381.311,246.613l-5.434.225a27.254,27.254,0,0,1-.311-4.311c-1.558-.312-3.384-.851-3.862-2.369a4.558,4.558,0,0,1-.12-1.489c.065-2.068-.514-4.162.192-6.206.235-.674.051-1.449.362-2.1a4.6,4.6,0,0,1,2.942-2.174,11.181,11.181,0,0,1,9.267.92,4.949,4.949,0,0,1,1.793,1.782,6.621,6.621,0,0,1,.319,3.873l-.424,3.623c-.163,1.387-.456,2.978-1.674,3.659-.645.362-1.449.4-2.029.88C381.34,243.769,381.713,245.37,381.311,246.613Z" transform="translate(-253.829 -166.471)" fill="#e7caad"/>
      <path id="Path_2359" data-name="Path 2359" d="M375.3,201.359a5.285,5.285,0,0,1-1.25-.232c-1.351-.456-2.358-1.518-3.789-1.931a12.757,12.757,0,0,0-9.057,1c-2.536,1.329-6.093,2.058-8.332,3.746a7.183,7.183,0,0,0-2.1,2.757,10.868,10.868,0,0,0,1.572,11.375,15.765,15.765,0,0,0,1.967,1.873c1.449,1.188,3.2,2.666,5.006,2.927-.177-1.558-2.279-6.249-1.268-7.691,1.344-1.906,4.278-2.108,6.4-2.09,2.536.022,4.514-.956,7.021-1.043,1.275-.043,2.735.091,3.641-.811a21.97,21.97,0,0,0,3.623-5.619,3.348,3.348,0,0,0-.946-3.434A3.771,3.771,0,0,0,375.3,201.359Z" transform="translate(-240.06 -147.986)" fill="#f4e1c0"/>
      <path id="Path_2360" data-name="Path 2360" d="M431.159,292.141l-16.41-14.871L410.8,280.6l13.585,22.685,6.129.591s1.768-6.318,2.134-6.988Z" transform="translate(-278.946 -198.383)" fill="#ff5a3a"/>
      <path id="Path_2361" data-name="Path 2361" d="M314.462,460.487a15.266,15.266,0,0,0-20.442,22.677,15.811,15.811,0,0,0,4.021,2.648,15.28,15.28,0,0,0,16.439-25.326Z" transform="translate(-201.244 -313.506)" fill="#7e8bff"/>
      <path id="Path_2362" data-name="Path 2362" d="M324.465,473.943a14.8,14.8,0,0,0-5.072-10.542,16,16,0,0,0-3.217-2.271A15.309,15.309,0,0,1,297.5,484c-.264-.12-.525-.254-.782-.391a16.294,16.294,0,0,0,2.232,2.463,15.809,15.809,0,0,0,4.028,2.659,15.363,15.363,0,0,0,21.5-14.784Z" transform="translate(-206.184 -316.426)" fill="#283fff"/>
      <path id="Path_2363" data-name="Path 2363" d="M474.79,227.246c-1.152-12.632-7.5-24.235-18.859-34.48s-23.6-15.414-36.393-15.367c-11.118.043-21.134,4.159-29.77,12.237a7.14,7.14,0,0,0,.091,10.506l6.763,6.126a7.14,7.14,0,0,0,9.52.033c4.836-4.289,9.875-6.39,15.4-6.434,6.7-.047,13.4,2.9,19.924,8.785s10.02,12.255,10.469,19.015-2.246,13.382-7.97,19.75c-7.919,8.778-15.769,12.426-23.329,10.835-7.97-1.67-17.512-7.607-28.4-17.613L389.312,238a7.14,7.14,0,0,0-10.078.522l-23.025,25.5a7.137,7.137,0,0,0,.522,10.078l6.861,6.191a7.137,7.137,0,0,0,10.078-.511l14.892-16.512a.514.514,0,0,1,.725-.047c13.1,11.19,25.481,17.211,36.809,17.892,12.049.724,23.6-4.938,34.335-16.841S475.957,239.954,474.79,227.246Z" transform="translate(-242.978 -134.588)" fill="#7e8bff"/>
      <path id="Path_2364" data-name="Path 2364" d="M561.917,231.156c-1.152-12.632-7.5-24.235-18.859-34.48q-10.553-9.5-22.036-13.146a68.934,68.934,0,0,1,10.545,7.9c11.361,10.248,17.707,21.848,18.859,34.483,1.152,12.679-3.684,25.144-14.374,37s-22.286,17.566-34.335,16.841a42.384,42.384,0,0,1-10.727-2.137c7.752,4.485,15.182,6.963,22.207,7.386,12.049.725,23.6-4.938,34.335-16.841S563.083,243.864,561.917,231.156Z" transform="translate(-330.105 -138.518)" fill="#283fff"/>
      <path id="Path_2365" data-name="Path 2365" d="M461.52,223.75l-7.774,2.4L435.14,257.864l1.268,6.129,24.1,12.052,3.383-6.553L448.67,257.864l9.3-12.686,3.594-20.3Z" transform="translate(-347.349 -143.77)" fill="#ff5a3a"/>
      <path id="Path_2366" data-name="Path 2366" d="M551.34,213.6l-3.949-4.242-3.807,1.058-1.054,3.8,3.38.634,3.177.645Z" transform="translate(-415.843 -134.317)" fill="#eac1a4"/>
      <path id="Path_2367" data-name="Path 2367" d="M509.279,351.8l3.8.783-.609,2.235,3.289,3.851-4.51,1.641-4.416-3.764Z" transform="translate(-393.072 -225.713)" fill="#e7caad"/>
      <path id="Path_2368" data-name="Path 2368" d="M136.718,337.743a8.821,8.821,0,1,0,5.137,16.878,9.058,9.058,0,0,0,2.507-1.188,8.825,8.825,0,0,0-7.644-15.675Z" transform="translate(-100.133 -236.909)" fill="#7e8bff"/>
      <path id="Path_2369" data-name="Path 2369" d="M150.8,338.318a8.564,8.564,0,0,0-6.727-.634,9.466,9.466,0,0,0-2.079.917,8.843,8.843,0,0,1,5.76,16.048c-.138.094-.283.185-.427.272a9.275,9.275,0,0,0,1.884-.362,9.058,9.058,0,0,0,2.507-1.188,8.868,8.868,0,0,0-.917-15.041Z" transform="translate(-107.484 -236.85)" fill="#283fff"/>
      <path id="Path_2370" data-name="Path 2370" d="M91.3,126.338c-6.6-3.188-14.226-3.5-22.681-.924s-14.65,7.082-18.432,13.44a24.708,24.708,0,0,0-2.8,18.377,4.126,4.126,0,0,0,5.246,3.083l5.032-1.532a4.122,4.122,0,0,0,2.851-4.709,13.248,13.248,0,0,1,1.4-9.538c1.971-3.329,5.434-5.767,10.274-7.245s9.056-1.311,12.527.475,5.956,5.1,7.4,9.843c1.989,6.521,1.449,11.5-1.576,14.773-3.2,3.441-8.97,6.408-17.171,8.814l-2.174.663A4.126,4.126,0,0,0,68.453,177l5.778,18.972a4.119,4.119,0,0,0,5.144,2.739l5.1-1.554a3.985,3.985,0,0,0,1.116-.54,4.13,4.13,0,0,0,1.616-4.6l-3.753-12.284a.3.3,0,0,1,.188-.362c9.419-3.152,16.1-7.492,19.808-12.893,3.945-5.749,4.579-13.154,1.88-22.007S97.912,129.544,91.3,126.338Z" transform="translate(-46.738 -99.517)" fill="#7e8bff"/>
      <path id="Path_2371" data-name="Path 2371" d="M106.818,126.338c-6.6-3.188-14.226-3.5-22.681-.924a34.82,34.82,0,0,0-13.067,6.992,39.741,39.741,0,0,1,7.053-2.873c8.452-2.576,16.084-2.264,22.681.924s11.346,9.306,14.034,18.113,2.065,16.258-1.88,22.007a24.659,24.659,0,0,1-4.238,4.684,29.222,29.222,0,0,0,10.263-8.792c3.945-5.749,4.579-13.154,1.88-22.007S113.429,129.544,106.818,126.338Z" transform="translate(-62.256 -99.517)" fill="#283fff"/>
      <path id="Path_2372" data-name="Path 2372" d="M258.4,211.155a6.409,6.409,0,0,0-.362,12.813,6.608,6.608,0,0,0,2-.235,6.419,6.419,0,0,0-1.63-12.578Z" transform="translate(-177.536 -155.9)" fill="#7e8bff"/>
      <path id="Path_2373" data-name="Path 2373" d="M271.364,213.149a6.205,6.205,0,0,0-4.47-2,6.653,6.653,0,0,0-1.648.149,6.158,6.158,0,0,1,3.108,1.811,6.47,6.47,0,0,1-.268,9.089,6.159,6.159,0,0,1-2.594,1.493c-.116.036-.235.062-.362.091a7.014,7.014,0,0,0,3.391-.058,6.452,6.452,0,0,0,2.858-10.582Z" transform="translate(-186.033 -155.897)" fill="#283fff"/>
      <path id="Path_2374" data-name="Path 2374" d="M267.31,62.877c-3.807-3.728-8.995-5.716-15.421-5.9s-11.748,1.489-15.834,4.985a17.99,17.99,0,0,0-6.2,12.016,3,3,0,0,0,2.9,3.34l3.825.112a3,3,0,0,0,3.054-2.579,9.638,9.638,0,0,1,3.181-6.253c2.13-1.837,5.072-2.713,8.763-2.6s6.539,1.2,8.524,3.235,2.923,4.894,2.818,8.495c-.145,4.963-1.666,8.267-4.517,9.817-3,1.63-7.673,2.333-13.882,2.09l-1.656-.047a3,3,0,0,0-3.086,2.9l-.42,14.418a3,3,0,0,0,2.9,3.083l3.88.112a2.963,2.963,0,0,0,.9-.109,3.007,3.007,0,0,0,2.174-2.8l.272-9.335a.217.217,0,0,1,.214-.21c7.245.018,12.838-1.424,16.664-4.289,4.054-3.047,6.209-8,6.4-14.733S271.131,66.626,267.31,62.877Z" transform="translate(-163.524 -56.962)" fill="#7e8bff"/>
      <path id="Path_2375" data-name="Path 2375" d="M287.414,62.876c-3.807-3.728-8.995-5.716-15.421-5.9a25.347,25.347,0,0,0-10.632,1.786,29.108,29.108,0,0,1,5.532-.337c6.423.188,11.61,2.174,15.418,5.9s5.666,9.056,5.466,15.755-2.351,11.672-6.4,14.722a17.673,17.673,0,0,1-4.014,2.235,21.363,21.363,0,0,0,9.118-3.677c4.054-3.047,6.209-8,6.4-14.733S291.236,66.626,287.414,62.876Z" transform="translate(-183.63 -56.961)" fill="#283fff"/>
      <path id="Path_2376" data-name="Path 2376" d="M251.143,373.875l-2-22.051-5.155-.225-3.539,17-4.289,7.155,6.561,6.325s5.575-3.452,6.3-3.7Z" transform="translate(-167.556 -246.121)" fill="#ffaf20"/>
      <path id="Path_2377" data-name="Path 2377" d="M404.665,281.843l-.033-5.793-3.514-1.8-3.358,2.083,2.061,2.76,1.9,2.623Z" transform="translate(-323.505 -175.954)" fill="#eac1a4"/>
    </g>
  </g>
</svg>
